<svg width="56" height="162" viewBox="0 0 56 162" fill="none" xmlns="http://www.w3.org/2000/svg">
<g id="character-1">
<path id="Vector" d="M14.1593 34.2711C13.5753 35.5497 12.9606 36.9573 12.4259 38.3218C11.8911 39.6864 11.344 41.094 10.8707 42.4955C9.90437 45.2574 9.16835 48.0946 8.67021 50.978L8.53498 51.8816C8.52208 52.0366 8.53665 52.1926 8.57801 52.3426C8.72307 52.852 8.95154 53.3339 9.25415 53.7686C10.0435 54.8939 10.9592 55.9251 11.9833 56.842C13.063 57.8463 14.1957 58.7922 15.3763 59.6757C16.5565 60.5854 17.7981 61.4705 19.0213 62.3065L17.8719 64.464C14.9511 63.1913 12.1787 61.6021 9.60451 59.7248C8.23116 58.7233 6.99173 57.5499 5.91646 56.2335C5.2791 55.4498 4.78208 54.5619 4.44739 53.6088C4.25279 53.0134 4.15322 52.3911 4.15234 51.7648C4.15234 51.6173 4.15234 51.4021 4.15234 51.2976V50.9964L4.21382 50.3818C4.5662 47.1793 5.23958 44.0204 6.2238 40.9526C6.70325 39.4405 7.21343 37.9346 7.79737 36.4655C8.38131 34.9964 8.98369 33.5581 9.72745 32.0645L14.1593 34.2711Z" fill="#FFC3B1"/>
<path id="Vector_2" d="M18.155 61.9254L22.5008 59.7249L21.3759 64.4947C21.3759 64.4947 18.3947 65.3307 17.0117 63.88L18.155 61.9254Z" fill="#E58A7B"/>
<path id="Vector_3" d="M26.4768 60.5055L25.3212 64.4517L21.375 64.4947L22.4999 59.7249L26.4768 60.5055Z" fill="#E58A7B"/>
<path id="Vector_4" d="M32.6119 11.2576C32.8443 12.1094 33.1679 12.9337 33.5769 13.7163C33.4574 13.8518 33.3035 13.9525 33.1315 14.0077C32.9594 14.0628 32.7756 14.0705 32.5996 14.0297L32.6119 11.2576Z" fill="#DF5753"/>
<path id="Vector_5" d="M32.4825 11.2946C32.7371 11.2946 32.9435 10.9781 32.9435 10.5877C32.9435 10.1973 32.7371 9.88086 32.4825 9.88086C32.2279 9.88086 32.0215 10.1973 32.0215 10.5877C32.0215 10.9781 32.2279 11.2946 32.4825 11.2946Z" fill="#263238"/>
<path id="Vector_6" d="M32.3477 9.90543L33.282 9.64111C33.282 9.64111 32.8271 10.3664 32.3477 9.90543Z" fill="#263238"/>
<path id="Vector_7" d="M20.6078 15.7693C21.1671 18.6275 21.7265 23.8707 19.7227 25.7823C19.7227 25.7823 20.5094 28.6836 25.8264 28.6836C31.6719 28.6836 28.617 25.7823 28.617 25.7823C25.4268 25.0202 25.5067 22.6536 26.0661 20.4285L20.6078 15.7693Z" fill="#FFC3B1"/>
<path id="Vector_8" d="M19.0526 9.25378C19.3476 14.0298 19.3722 16.0582 21.7817 18.5108C25.4145 22.1988 31.217 20.7974 32.3541 16.0521C33.3807 11.7494 32.7291 4.6683 28.0514 2.76895C27.0246 2.34597 25.9069 2.19191 24.804 2.32136C23.7011 2.45081 22.6495 2.85947 21.7485 3.50871C20.8476 4.15794 20.1272 5.02628 19.6554 6.03158C19.1837 7.03688 18.9762 8.14592 19.0526 9.25378Z" fill="#FFC3B1"/>
<path id="Vector_9" d="M19.5253 3.88164C17.1281 4.75448 13.9317 4.10292 15.1857 11.4975C16.5134 19.3284 14.4727 21.9039 14.4727 21.9039C14.4727 21.9039 23.5637 23.8401 32.8453 21.7871C32.8453 21.7871 30.0116 16.8328 30.8046 13.1817C31.8188 8.57162 31.0197 6.86896 31.0197 6.86896C31.0197 6.86896 22.8937 2.65229 19.5253 3.88164Z" fill="#263238"/>
<path id="Vector_10" d="M29.668 11.7433C29.6705 12.6514 29.9305 13.5402 30.4179 14.3065C31.0694 15.3022 31.8378 14.9211 32.0283 13.8639C32.2004 12.9357 32.0713 11.2946 31.2415 10.6553C30.4117 10.016 29.6803 10.643 29.668 11.7433Z" fill="#FFC3B1"/>
<path id="Vector_11" d="M17.4413 4.68681C16.7528 2.75058 20.0352 -0.230594 26.981 0.998756C33.9269 2.22811 34.2281 8.0122 34.2281 8.0122L32.8266 6.34028L32.8881 8.09826L25.7517 9.46898L17.4413 4.68681Z" fill="#263238"/>
<path id="Vector_12" d="M18.031 26.1083C17.99 25.8277 18.0602 25.5421 18.2267 25.3125C18.3932 25.0828 18.6427 24.9273 18.9222 24.879C21.0859 24.5225 26.0033 23.7971 28.4743 24.1414C30.3183 24.3995 30.7978 25.4691 30.8777 26.348C30.8902 26.502 30.8696 26.6568 30.8173 26.8021C30.765 26.9473 30.6822 27.0798 30.5745 27.1904C30.4668 27.301 30.3366 27.3873 30.1928 27.4435C30.0489 27.4996 29.8947 27.5243 29.7405 27.5159L19.0575 27.0365C18.8056 27.0238 18.5659 26.9244 18.3788 26.7553C18.1918 26.5862 18.0689 26.3576 18.031 26.1083Z" fill="#4CAF4F"/>
<path id="Vector_13" opacity="0.6" d="M18.031 26.1083C17.99 25.8277 18.0602 25.5421 18.2267 25.3125C18.3932 25.0828 18.6427 24.9273 18.9222 24.879C21.0859 24.5225 26.0033 23.7971 28.4743 24.1414C30.3183 24.3995 30.7978 25.4691 30.8777 26.348C30.8902 26.502 30.8696 26.6568 30.8173 26.8021C30.765 26.9473 30.6822 27.0798 30.5745 27.1904C30.4668 27.301 30.3366 27.3873 30.1928 27.4435C30.0489 27.4996 29.8947 27.5243 29.7405 27.5159L19.0575 27.0365C18.8056 27.0238 18.5659 26.9244 18.3788 26.7553C18.1918 26.5862 18.0689 26.3576 18.031 26.1083Z" fill="black"/>
<path id="Vector_14" d="M24.209 133.492L28.1736 136.246L34.806 127.253L30.8413 124.505L24.209 133.492Z" fill="#FFC3B1"/>
<path id="Vector_15" d="M14.9648 133.314L19.1508 135.699L25.0209 126.19L20.835 123.805L14.9648 133.314Z" fill="#FFC3B1"/>
<path id="Vector_16" d="M34.8002 127.253L31.3826 131.888L27.418 129.14L30.8356 124.505L34.8002 127.253Z" fill="#CF6F64"/>
<path id="Vector_17" d="M20.8289 123.805L25.021 126.196L21.9968 131.095L17.8047 128.704L20.8289 123.805Z" fill="#CF6F64"/>
<path id="Vector_18" d="M27.5531 56.1289C27.5531 56.1289 43.0306 75.6325 40.1232 94.2879C37.7813 109.354 24.197 129.755 24.197 129.755L17.8105 126.583C22.3121 117.563 26.1536 108.228 29.3049 98.6521C30.2767 95.6791 30.5604 92.5242 30.1344 89.4256C29.7085 86.327 28.5841 83.3656 26.8462 80.7651C19.003 69.3137 6.43902 76.1304 14.8908 56.1289H27.5531Z" fill="#4CAF4F"/>
<path id="Vector_19" opacity="0.6" d="M27.5531 56.1289C27.5531 56.1289 43.0306 75.6325 40.1232 94.2879C37.7813 109.354 24.197 129.755 24.197 129.755L17.8105 126.583C22.3121 117.563 26.1536 108.228 29.3049 98.6521C30.2767 95.6791 30.5604 92.5242 30.1344 89.4256C29.7085 86.327 28.5841 83.3656 26.8462 80.7651C19.003 69.3137 6.43902 76.1304 14.8908 56.1289H27.5531Z" fill="black"/>
<path id="Vector_20" opacity="0.4" d="M35.1442 68.6561L32.8945 66.4187C32.8945 66.597 37.2526 93.5013 38.4758 101.062C39.1976 98.8532 39.7504 96.5929 40.1293 94.3004C41.5676 85.1479 38.5618 75.7987 35.1442 68.6561Z" fill="black"/>
<path id="Vector_21" d="M34.4613 56.1289C34.4613 56.1289 53.0982 80.6422 53.6268 95.339C54.0633 107.633 33.3426 131.451 33.3426 131.451L27.3187 127.554C27.3187 127.554 39.4463 110.638 42.5012 96.8204C41.321 83.1254 16.3652 56.1289 16.3652 56.1289H34.4613Z" fill="#4CAF4F"/>
<path id="Vector_22" opacity="0.6" d="M34.4613 56.1289C34.4613 56.1289 53.0982 80.6422 53.6268 95.339C54.0633 107.633 33.3426 131.451 33.3426 131.451L27.3187 127.554C27.3187 127.554 39.4463 110.638 42.5012 96.8204C41.321 83.1254 16.3652 56.1289 16.3652 56.1289H34.4613Z" fill="black"/>
<path id="Vector_23" d="M11.4051 26.8766C9.41359 27.3499 7.50195 34.5907 7.50195 34.5907L15.2899 39.7909C15.2899 39.7909 17.8838 34.0621 16.9741 31.5542C16.0336 28.9419 13.9069 26.2803 11.4051 26.8766Z" fill="#4CAF4F"/>
<path id="Vector_24" opacity="0.2" d="M12.9296 31.542L12.3887 37.8547L15.2838 39.7971C16.0832 37.9974 16.675 36.1125 17.0479 34.1789L12.9296 31.542Z" fill="black"/>
<path id="Vector_25" d="M36.7677 27.018C36.7677 27.018 39.0666 27.8232 34.4627 56.1229H14.8792C15.2111 48.1321 15.2172 43.2147 11.4062 26.8766C14.1484 26.3115 16.9278 25.9459 19.7228 25.7825C22.6838 25.5702 25.6562 25.5702 28.6171 25.7825C32.4404 26.1329 36.7677 27.018 36.7677 27.018Z" fill="#4CAF4F"/>
<path id="Vector_26" d="M38.7588 31.542C39.2014 32.7714 39.6686 34.0929 40.1603 35.3653C40.652 36.6377 41.1192 37.947 41.6171 39.2378L43.123 43.0979L43.5041 44.063L43.7008 44.5424L43.793 44.7821C43.793 44.8252 43.793 44.8252 43.793 44.819C43.6807 44.6607 43.5335 44.5303 43.3628 44.4379C43.1196 44.2948 42.8455 44.2126 42.5637 44.1982C42.3296 44.1909 42.0967 44.235 41.8814 44.3273C41.5986 44.4564 41.5986 44.5117 41.6048 44.5055C41.6559 44.4646 41.7014 44.417 41.74 44.3642C42.0803 43.9174 42.3748 43.4376 42.619 42.932C42.9079 42.3665 43.1845 41.7641 43.4611 41.1556C44.002 39.9262 44.4999 38.6538 44.9978 37.3692C45.4957 36.0845 45.969 34.7875 46.43 33.4783L47.8314 29.5566L50.1979 30.1713C49.7308 32.9742 49.1284 35.7034 48.4031 38.4817C48.0527 39.8647 47.6409 41.2355 47.1737 42.6185C46.9402 43.3131 46.682 44.0015 46.387 44.7084C46.0794 45.4756 45.7008 46.2123 45.256 46.9089C45.0925 47.1434 44.9117 47.3653 44.715 47.5728C44.4012 47.9118 44.0202 48.1818 43.5963 48.3657C43.2202 48.5272 42.8129 48.6028 42.4039 48.587C41.9457 48.5699 41.4994 48.4367 41.1069 48.1997C40.6438 47.9108 40.2595 47.5116 39.9882 47.038C39.896 46.8782 39.8161 46.7184 39.7608 46.6016L39.644 46.368L39.4104 45.8886L38.9432 44.9358C38.3286 43.6573 37.7139 42.3665 37.1791 41.0695C36.6444 39.7725 36.0789 38.4571 35.5502 37.1356C35.0216 35.814 34.5483 34.4925 34.0996 33.0664L38.7588 31.542Z" fill="#FFC3B1"/>
<path id="Vector_27" d="M36.7675 27.0179C39.1217 27.5773 41.7709 34.5354 41.7709 34.5354L34.7698 40.4916C34.7698 40.4916 30.2396 32.9065 31.1555 30.4048C32.1082 27.7986 33.6941 26.2865 36.7675 27.0179Z" fill="#4CAF4F"/>
<path id="Vector_28" d="M48.9438 27.356L51.4025 25.303L53.1113 27.9645L51.8512 30.1835C51.8512 30.1835 49.8474 32.0275 48.0771 31.0871C47.7961 30.4555 47.7288 29.7496 47.8852 29.0763C48.0416 28.403 48.4132 27.799 48.9438 27.356Z" fill="#FFC3B1"/>
<path id="Vector_29" d="M55.8412 25.3091L55.6568 25.9791L51.7659 26.6307L51.3848 25.303L55.8412 25.3091Z" fill="#FFC3B1"/>
<path id="Vector_30" d="M33.8223 131.765L26.8027 127.229L28.0628 125.04L35.9491 129.89L33.8223 131.765Z" fill="#4CAF4F"/>
<path id="Vector_31" d="M21.8975 135.379C21.2816 135.304 20.6898 135.094 20.1641 134.764C20.1424 134.757 20.1236 134.743 20.1103 134.724C20.097 134.705 20.0898 134.683 20.0898 134.66C20.0898 134.637 20.097 134.615 20.1103 134.596C20.1236 134.577 20.1424 134.563 20.1641 134.555C20.3547 134.494 22.0082 133.984 22.4876 134.377C22.5415 134.422 22.5824 134.48 22.6062 134.546C22.63 134.612 22.6357 134.683 22.6228 134.752C22.6143 134.863 22.5776 134.969 22.5163 135.062C22.455 135.154 22.371 135.23 22.2725 135.281C22.1573 135.344 22.0286 135.377 21.8975 135.379ZM20.5145 134.703C21.2828 135.096 21.8975 135.238 22.1925 135.09C22.2568 135.055 22.3109 135.003 22.3496 134.941C22.3883 134.878 22.4104 134.807 22.4138 134.734C22.4138 134.635 22.4138 134.592 22.3585 134.568C22.1003 134.359 21.1783 134.519 20.5022 134.703H20.5145Z" fill="#263238"/>
<path id="Vector_32" d="M20.2074 134.807C20.175 134.807 20.1441 134.794 20.1214 134.77C20.1122 134.753 20.1074 134.734 20.1074 134.715C20.1074 134.696 20.1122 134.677 20.1214 134.66C20.1214 134.605 20.5209 133.271 21.1479 132.969C21.2279 132.933 21.3149 132.914 21.403 132.914C21.491 132.914 21.578 132.933 21.658 132.969C21.7444 132.997 21.8191 133.052 21.8703 133.127C21.9216 133.201 21.9464 133.291 21.9408 133.381C21.8978 133.935 20.7729 134.697 20.2566 134.826L20.2074 134.807ZM21.3999 133.129C21.3401 133.131 21.2814 133.146 21.2278 133.172C20.8467 133.357 20.5332 134.076 20.3795 134.512C20.9204 134.285 21.6642 133.683 21.6888 133.344C21.6888 133.289 21.6888 133.222 21.5474 133.16C21.5014 133.135 21.4515 133.119 21.3999 133.111V133.129Z" fill="#263238"/>
<path id="Vector_33" d="M30.67 138.034C29.9754 138.034 29.0103 137.143 28.4817 136.596C28.4682 136.577 28.4609 136.555 28.4609 136.531C28.4609 136.508 28.4682 136.486 28.4817 136.467C28.4938 136.447 28.5111 136.431 28.5317 136.42C28.5522 136.409 28.5753 136.404 28.5985 136.405C28.8444 136.405 30.9773 136.725 31.2785 137.327C31.3104 137.381 31.3272 137.443 31.3272 137.506C31.3272 137.568 31.3104 137.63 31.2785 137.684C31.2333 137.778 31.1651 137.859 31.0801 137.919C30.9952 137.979 30.8964 138.017 30.7929 138.028L30.67 138.034ZM28.8874 136.682C29.6619 137.432 30.3442 137.85 30.7314 137.801C30.7992 137.792 30.8638 137.767 30.9196 137.727C30.9753 137.687 31.0204 137.634 31.051 137.573C31.0648 137.552 31.0721 137.528 31.0721 137.503C31.0721 137.478 31.0648 137.453 31.051 137.432C30.8912 137.1 29.7541 136.817 28.8874 136.682Z" fill="#263238"/>
<path id="Vector_34" d="M28.9552 136.651C28.8172 136.655 28.6792 136.645 28.5434 136.621C28.5244 136.618 28.5065 136.61 28.4914 136.598C28.4763 136.586 28.4646 136.571 28.4573 136.553C28.4481 136.535 28.4434 136.515 28.4434 136.495C28.4434 136.474 28.4481 136.454 28.4573 136.436C28.4942 136.393 29.324 135.391 30.1108 135.324C30.3335 135.306 30.5542 135.377 30.7255 135.52C30.9652 135.729 30.9529 135.914 30.8914 136.03C30.7378 136.448 29.6744 136.651 28.9552 136.651ZM28.7954 136.424C29.4838 136.461 30.5841 136.233 30.7255 135.932C30.7255 135.932 30.7746 135.834 30.6148 135.699C30.5512 135.643 30.477 135.602 30.3966 135.576C30.3162 135.551 30.2315 135.542 30.1477 135.551C29.6177 135.699 29.1457 136.006 28.7954 136.43V136.424Z" fill="#263238"/>
<path id="Vector_35" d="M20.3735 134.143L15.1611 132.668C15.0712 132.641 14.9745 132.648 14.8894 132.688C14.8044 132.727 14.7369 132.797 14.7001 132.883L12.9421 136.836C12.9008 136.937 12.8814 137.046 12.8852 137.155C12.889 137.264 12.9159 137.371 12.9641 137.47C13.0123 137.568 13.0807 137.655 13.1648 137.724C13.249 137.794 13.3469 137.845 13.4523 137.875C15.2963 138.354 16.1814 138.489 18.4742 139.147C19.8879 139.54 21.9041 140.272 23.8526 140.825C25.8011 141.378 26.4527 139.479 25.6966 139.073C22.279 137.266 22.0086 136 21.0743 134.647C20.9069 134.403 20.6589 134.224 20.3735 134.143Z" fill="#4CAF4F"/>
<path id="Vector_36" d="M28.6228 135.877L24.1725 132.804C24.0971 132.749 24.0041 132.723 23.9111 132.732C23.8182 132.741 23.7319 132.784 23.6685 132.853L20.718 136.024C20.6461 136.106 20.5925 136.203 20.5607 136.307C20.5289 136.411 20.5197 136.521 20.5337 136.629C20.5476 136.738 20.5844 136.841 20.6417 136.934C20.6989 137.027 20.7752 137.107 20.8656 137.168C22.433 138.219 23.2444 138.643 25.2052 140.001C26.4345 140.837 28.8133 142.694 30.4729 143.849C32.1326 145.005 33.368 143.419 32.778 142.792C30.1349 139.971 29.5571 138.2 29.1206 136.596C29.0449 136.305 28.8685 136.05 28.6228 135.877Z" fill="#4CAF4F"/>
<path id="Vector_37" d="M25.0137 130.16L16.9922 126.171L17.822 123.995L26.3906 128.199L25.0137 130.16Z" fill="#4CAF4F"/>
<path id="Vector_38" d="M14.5844 54.9733L13.9082 56.7435C13.8406 56.8788 14.0004 57.0201 14.2279 57.0201H34.5613C34.7396 57.0201 34.8871 56.9341 34.8994 56.8234L35.0715 55.0655C35.0715 54.9487 34.9301 54.8442 34.7396 54.8442H14.904C14.8443 54.8386 14.7841 54.8474 14.7285 54.8698C14.6729 54.8923 14.6234 54.9277 14.5844 54.9733Z" fill="#4CAF4F"/>
<path id="Vector_39" opacity="0.4" d="M14.5844 54.9733L13.9082 56.7435C13.8406 56.8788 14.0004 57.0201 14.2279 57.0201H34.5613C34.7396 57.0201 34.8871 56.9341 34.8994 56.8234L35.0715 55.0655C35.0715 54.9487 34.9301 54.8442 34.7396 54.8442H14.904C14.8443 54.8386 14.7841 54.8474 14.7285 54.8698C14.6729 54.8923 14.6234 54.9277 14.5844 54.9733Z" fill="#FAFAFA"/>
<path id="Vector_40" d="M17.7856 57.1923H17.2509C17.1464 57.1923 17.0665 57.137 17.0726 57.0693L17.3246 54.7889C17.3246 54.7274 17.423 54.6721 17.5275 54.6721H18.0622C18.1667 54.6721 18.2466 54.7274 18.2405 54.7889L17.9885 57.0693C17.9823 57.137 17.8901 57.1923 17.7856 57.1923Z" fill="#4CAF4F"/>
<path id="Vector_41" d="M30.3244 57.1923H29.7958C29.6913 57.1923 29.6114 57.137 29.6175 57.0693L29.8634 54.7889C29.8634 54.7274 29.9679 54.6721 30.0724 54.6721H30.601C30.7055 54.6721 30.7915 54.7274 30.7793 54.7889L30.5334 57.0693C30.5027 57.137 30.435 57.1923 30.3244 57.1923Z" fill="#4CAF4F"/>
<g id="Vector_42" style="mix-blend-mode:multiply">
<path d="M17.3187 161.288C26.4133 161.288 33.7859 160.754 33.7859 160.095C33.7859 159.436 26.4133 158.903 17.3187 158.903C8.22416 158.903 0.851562 159.436 0.851562 160.095C0.851562 160.754 8.22416 161.288 17.3187 161.288Z" fill="#FAFAFA"/>
</g>
<path id="Vector_43" d="M27.35 158.411C24.4364 157.563 21.2032 156.475 19.2486 155.338C19.1932 155.301 19.1318 155.282 19.0764 155.252V142.061H24.9712C25.4187 142.034 25.8391 141.838 26.1466 141.512C26.454 141.185 26.6252 140.754 26.6252 140.306C26.6252 139.858 26.454 139.426 26.1466 139.1C25.8391 138.774 25.4187 138.577 24.9712 138.551H19.1072V78.4233H15.5667V138.551H9.7088C9.46961 138.537 9.23004 138.572 9.00482 138.653C8.7796 138.735 8.57348 138.862 8.39911 139.026C8.22475 139.191 8.08582 139.389 7.99086 139.609C7.8959 139.829 7.84692 140.066 7.84692 140.306C7.84692 140.545 7.8959 140.782 7.99086 141.002C8.08582 141.222 8.22475 141.421 8.39911 141.585C8.57348 141.749 8.7796 141.876 9.00482 141.958C9.23004 142.04 9.46961 142.075 9.7088 142.061H15.5667V155.233C15.5113 155.233 15.456 155.282 15.4007 155.319C13.4153 156.475 10.2067 157.563 7.29312 158.393C7.09631 158.452 6.92731 158.58 6.81672 158.753C6.70613 158.927 6.66126 159.134 6.69023 159.338C6.7192 159.541 6.82011 159.728 6.97467 159.863C7.12924 159.999 7.32724 160.075 7.53285 160.077H27.1102C27.3067 160.063 27.4927 159.983 27.637 159.849C27.7814 159.715 27.8755 159.536 27.9035 159.341C27.9316 159.146 27.8919 158.947 27.7912 158.778C27.6904 158.609 27.5347 158.479 27.35 158.411Z" fill="#E0E0E0"/>
<path id="Vector_44" d="M28.2528 72.301H6.39495C4.63647 72.301 3.21094 73.7266 3.21094 75.485V81.9822C3.21094 83.7406 4.63647 85.1662 6.39495 85.1662H28.2528C30.0113 85.1662 31.4368 83.7406 31.4368 81.9822V75.485C31.4368 73.7266 30.0113 72.301 28.2528 72.301Z" fill="#4CAF4F"/>
<path id="Vector_45" d="M6.19336 85.1724V86.2911C6.19336 87.2131 7.19528 87.963 8.42463 87.963H26.2502C27.4796 87.963 28.4815 87.2131 28.4815 86.2911V85.1724H6.19336Z" fill="#4CAF4F"/>
<path id="Vector_46" opacity="0.3" d="M6.19336 85.1724V86.2911C6.19336 87.2131 7.19528 87.963 8.42463 87.963H26.2502C27.4796 87.963 28.4815 87.2131 28.4815 86.2911V85.1724H6.19336Z" fill="#FAFAFA"/>
</g>
</svg>
