<svg width="104" height="201" viewBox="0 0 104 201" fill="none" xmlns="http://www.w3.org/2000/svg">
<g id="Character">
<path id="Vector" d="M35.581 197.028V190.877L24.5525 190.798L24.459 200.1L25.1424 200.15C28.1855 200.344 40.624 200.632 42.6672 199.999C44.9405 199.294 35.581 197.028 35.581 197.028Z" fill="#4CAF4F"/>
<path id="Vector_2" d="M42.9253 199.423C42.9253 199.524 38.7959 199.61 33.7097 199.61C28.6235 199.61 24.4941 199.524 24.4941 199.423C24.4941 199.323 28.6235 199.236 33.7097 199.236C38.7959 199.236 42.9253 199.323 42.9253 199.423Z" fill="#263238"/>
<path id="Vector_3" d="M35.7743 198.287C35.6808 198.236 35.7743 197.912 35.9973 197.567C36.2203 197.222 36.5225 197.078 36.5944 197.15C36.6664 197.222 36.5153 197.495 36.2995 197.79C36.0836 198.085 35.8678 198.337 35.7743 198.287Z" fill="#263238"/>
<path id="Vector_4" d="M36.4795 198.689C36.3788 198.689 36.4292 198.287 36.645 197.905C36.8608 197.524 37.1486 197.294 37.2277 197.351C37.3068 197.409 37.1773 197.733 36.9759 198.071C36.7745 198.409 36.573 198.725 36.4795 198.689Z" fill="#263238"/>
<path id="Vector_5" d="M27.818 199.395C27.7749 199.395 27.6094 199.265 27.372 198.992C27.0822 198.64 26.7594 198.317 26.408 198.028C26.0624 197.752 25.6508 197.571 25.2138 197.503C24.8756 197.459 24.6598 197.503 24.6382 197.459C24.6167 197.416 24.8253 197.265 25.221 197.236C25.7431 197.225 26.2525 197.398 26.6598 197.726C27.0413 198.037 27.3631 198.414 27.6094 198.841C27.7749 199.157 27.8612 199.366 27.818 199.395Z" fill="#263238"/>
<path id="Vector_6" d="M35.8115 197.128C35.8618 197.215 35.6748 197.431 35.3582 197.546C35.0417 197.661 34.7611 197.618 34.7468 197.546C34.7324 197.474 34.9554 197.323 35.2288 197.222C35.5021 197.121 35.7539 197.042 35.8115 197.128Z" fill="#263238"/>
<path id="Vector_7" d="M35.6383 196.531C35.6383 196.639 35.3505 196.726 34.9764 196.733C34.6023 196.74 34.3074 196.654 34.3146 196.553C34.3218 196.452 34.6167 196.359 34.9764 196.351C35.3361 196.344 35.6239 196.431 35.6383 196.531Z" fill="#263238"/>
<path id="Vector_8" d="M62.7372 197.028V190.877L51.7088 190.798L51.6152 200.006L52.2987 200.056C55.3418 200.251 67.7875 200.632 69.8234 199.999C72.0967 199.294 62.7372 197.028 62.7372 197.028Z" fill="#4CAF4F"/>
<path id="Vector_9" d="M70.0842 199.438C70.0842 199.539 65.962 199.625 60.8686 199.625C55.7752 199.625 51.6602 199.539 51.6602 199.438C51.6602 199.337 55.7824 199.251 60.8686 199.251C65.9548 199.251 70.0842 199.337 70.0842 199.438Z" fill="#263238"/>
<path id="Vector_10" d="M62.9333 198.287C62.847 198.236 62.9333 197.912 63.1564 197.567C63.3794 197.222 63.6815 197.078 63.7535 197.15C63.8254 197.222 63.6743 197.495 63.4585 197.79C63.2427 198.085 63.0269 198.337 62.9333 198.287Z" fill="#263238"/>
<path id="Vector_11" d="M63.6382 198.689C63.5447 198.689 63.5878 198.287 63.8108 197.905C64.0339 197.524 64.3144 197.294 64.3936 197.351C64.4727 197.409 64.336 197.733 64.1346 198.071C63.9331 198.409 63.7389 198.725 63.6382 198.689Z" fill="#263238"/>
<path id="Vector_12" d="M54.9762 199.395C54.9331 199.395 54.7748 199.265 54.5302 198.992C54.2404 198.64 53.9176 198.317 53.5662 198.028C53.2206 197.752 52.809 197.571 52.372 197.503C52.041 197.459 51.818 197.503 51.7964 197.459C51.7749 197.416 51.9835 197.265 52.3792 197.236C52.9013 197.225 53.4107 197.398 53.818 197.726C54.2015 198.035 54.5236 198.413 54.7676 198.841C54.9331 199.157 55.0194 199.366 54.9762 199.395Z" fill="#263238"/>
<path id="Vector_13" d="M62.9677 197.128C63.0181 197.215 62.831 197.431 62.5145 197.546C62.198 197.661 61.9174 197.618 61.903 197.546C61.8886 197.474 62.1116 197.323 62.385 197.222C62.6584 197.121 62.9102 197.042 62.9677 197.128Z" fill="#263238"/>
<path id="Vector_14" d="M62.8108 196.531C62.8108 196.639 62.523 196.726 62.1489 196.733C61.7748 196.74 61.4871 196.654 61.4943 196.553C61.5015 196.452 61.7892 196.359 62.1489 196.351C62.5086 196.344 62.8108 196.431 62.8108 196.531Z" fill="#263238"/>
<path id="Vector_15" d="M103.37 14.3704C103.083 14.0755 102.37 14.2194 102.37 14.2194C102.442 13.8052 102.442 13.3818 102.37 12.9676C102.241 12.5647 101.334 12.6439 101.334 12.6439C101.293 12.3046 101.293 11.9615 101.334 11.6223C101.342 11.5471 101.325 11.4715 101.288 11.4059C101.251 11.3402 101.194 11.2877 101.126 11.2554C100.697 11.0805 100.236 10.9972 99.7732 11.0108C99.2193 10.6151 101.464 7.47133 102.298 6.46417C103.133 5.457 102.982 4.67285 102.241 4.67285C101.73 4.67285 99.1114 7.69436 98.3056 8.70872C97.4999 9.72308 95.3633 12.5432 95.2913 10.2914C95.2194 8.03967 94.3129 6.34187 93.7446 6.05411C93.1763 5.76635 92.572 6.44258 92.8813 7.06846C93.1531 7.77953 93.3226 8.52555 93.3849 9.28424C93.463 9.88859 93.4363 10.5019 93.3058 11.0971C93.0673 12.2047 92.7425 13.2919 92.3346 14.3489H92.277C92.277 14.3489 76.5796 29.406 75.4429 30.4779C74.4286 31.442 54.0262 29.3341 49.9328 28.9024C48.5418 28.6989 47.1372 28.6027 45.7314 28.6147C43.9545 28.6938 43.638 28.9456 41.8682 28.9672C37.3989 29.0168 32.9399 29.4088 28.5304 30.1398C26.5338 30.4793 24.6688 31.3606 23.1388 32.6876C21.6089 34.0145 20.4727 35.7363 19.8544 37.6648C15.7322 50.5422 6.3943 81.0234 4.74686 98.1453C3.50197 100.403 2.37811 102.725 1.38005 105.102C0.221801 108.253 0.50237 108.361 0.890849 108.433C1.94118 108.627 3.13539 102.973 3.58143 104.339C4.02746 105.706 1.3153 111.08 2.41599 111.238C3.8548 111.44 4.99866 105.483 5.13535 105.008C5.27203 104.534 5.98425 104.685 5.85475 105.131C5.64612 105.764 3.62459 112.476 5.03463 112.692C5.81159 112.807 5.89792 111.39 5.89792 111.39C5.89792 111.39 7.33673 104.965 7.99139 105.095C8.64605 105.224 7.94822 109.016 7.6173 110.282C7.28637 111.548 7.74679 112.188 8.42303 111.879C8.88345 111.663 9.98415 107.814 10.2863 106.562C10.5884 105.311 11.3438 101.843 12.3582 103.85C13.3725 105.857 14.9121 107.023 15.5452 107.052C15.6878 107.035 15.8223 106.976 15.9312 106.883C16.0402 106.789 16.1187 106.665 16.1566 106.527C16.1945 106.388 16.1902 106.242 16.144 106.106C16.0978 105.97 16.012 105.851 15.8977 105.764C15.3531 105.232 14.8858 104.627 14.5092 103.965C14.1736 103.45 13.9302 102.88 13.7898 102.282C13.4999 101.089 13.3312 99.8689 13.2862 98.6417L13.1711 97.9223C14.7826 89.9441 19.4228 66.5274 26.1204 51.5709L28.8686 57.2255L30.0628 61.4124L22.7392 79.4911L53.9758 79.081L49.3141 61.139L54.9758 42.4345C61.098 42.5712 76.817 42.8014 79.4356 41.6144C82.7305 40.1755 99.7732 18.6509 99.7732 18.6509C100.884 17.7877 101.948 16.8655 102.96 15.8884C102.96 15.8884 103.996 15.0179 103.37 14.3704Z" fill="#FFBE9D"/>
<path id="Vector_16" d="M21.365 66.1318C22.2715 63.0384 26.9261 47.7438 26.9261 47.7438C26.9261 47.7438 29.2138 60.2111 28.6095 61.7147C28.0536 63.0019 27.3969 64.2431 26.6455 65.4268C21.365 73.4626 22.0557 77.4841 22.0557 77.4841L53.9613 76.5129C54.0333 72.0525 51.3931 61.6787 50.8463 60.0241C50.2996 58.3694 52.1197 52.9523 52.1197 52.9523C52.1197 52.9523 55.7167 49.2905 55.5872 47.4057C55.5189 45.7126 55.3095 44.0281 54.9613 42.3698L74.3853 43.0892L73.7738 29.9241L45.8752 27.1328C44.904 29.8738 36.1201 28.5285 36.1201 28.5285C26.6383 28.845 26.0484 30.586 22.106 33.6506C18.1637 36.7153 11.6387 63.0168 11.6387 63.0168L21.365 66.1318Z" fill="#4CAF4F"/>
<path id="Vector_17" d="M40.2273 63.0167C39.6744 63.1155 39.1113 63.1445 38.5511 63.103C37.508 63.103 36.0763 63.031 34.5008 62.8728C32.9253 62.7145 31.5009 62.4915 30.4866 62.29C29.9273 62.218 29.3788 62.0779 28.8535 61.8728C29.416 61.873 29.9772 61.926 30.5297 62.0311C31.5513 62.1606 32.9685 62.3404 34.5368 62.4987C36.1051 62.657 37.5295 62.7649 38.5583 62.8368C39.1191 62.8439 39.6779 62.9041 40.2273 63.0167Z" fill="#263238"/>
<path id="Vector_18" d="M42.4154 60.3044C41.8623 60.5754 41.2774 60.776 40.6744 60.9015C37.8043 61.6557 34.8431 62.0068 31.8761 61.9447C31.2622 61.9647 30.6482 61.9067 30.0488 61.772C30.6548 61.6955 31.2655 61.6643 31.8761 61.6785C33.0056 61.6425 34.5595 61.5634 36.2717 61.362C37.9839 61.1605 39.509 60.8728 40.5881 60.6426C41.1875 60.4825 41.7984 60.3695 42.4154 60.3044Z" fill="#263238"/>
<path id="Vector_19" d="M53.1481 48.2041C53.1336 48.7526 53.0588 49.2978 52.9251 49.83C52.7381 50.8299 52.4503 52.1968 52.0834 53.6932C51.7165 55.1895 51.364 56.5708 51.0475 57.506C50.9202 58.0414 50.7319 58.5603 50.4863 59.0527C50.5264 58.506 50.6278 57.9654 50.7885 57.4413C51.0619 56.319 51.3712 55.0241 51.7165 53.6068C52.0618 52.1896 52.3928 50.8947 52.6661 49.7724C52.7635 49.2322 52.9253 48.7057 53.1481 48.2041Z" fill="#263238"/>
<path id="Vector_20" d="M21.7023 64.2972C20.038 64.0402 18.3955 63.6578 16.7888 63.1533C15.147 62.7695 13.5359 62.2645 11.9688 61.6426C13.6323 61.9038 15.2745 62.2861 16.8823 62.7864C18.5244 63.1689 20.1356 63.674 21.7023 64.2972Z" fill="#263238"/>
<path id="Vector_21" d="M55.3069 42.2115C55.0356 42.2582 54.7582 42.2582 54.4868 42.2115C53.7354 42.1344 52.9975 41.9578 52.2926 41.6863C51.1157 41.2441 50.0444 40.5606 49.1474 39.6797C48.2504 38.7988 47.5476 37.74 47.0841 36.5713C46.5718 35.2857 46.3531 33.902 46.4438 32.5211C46.4759 31.3821 46.8165 30.2731 47.4294 29.3125C47.8605 28.6654 48.5044 28.1895 49.2495 27.9672C49.4486 27.9123 49.6545 27.8857 49.861 27.8881C50.0049 27.8881 50.0768 27.8881 50.0768 27.8881C50.0768 27.8881 49.7747 27.8881 49.2927 28.0823C48.6091 28.3349 48.0293 28.8083 47.6452 29.4276C46.6669 30.9672 46.3935 33.78 47.4366 36.4059C47.9221 37.644 48.6822 38.7558 49.6596 39.6576C50.4605 40.3955 51.3829 40.9894 52.3861 41.4129C53.3276 41.785 54.3071 42.0528 55.3069 42.2115Z" fill="#263238"/>
<path id="Vector_22" d="M72.0754 42.8302C71.8955 40.6241 71.8378 38.4097 71.9028 36.1973C71.8464 33.9867 71.9137 31.7746 72.1042 29.5715C72.2843 31.7752 72.3419 33.9872 72.2769 36.1973C72.3373 38.4103 72.2701 40.6249 72.0754 42.8302Z" fill="#263238"/>
<path id="Vector_23" d="M45.6892 27.9386C45.7684 26.3343 45.9338 24.5214 45.9338 24.5214C45.9338 24.5214 49.905 24.0826 50.1424 19.982C50.3798 15.8813 50.1424 6.42115 50.1424 6.42115L42.9483 2.73779L34.9629 9.01821L36.1931 29.5213L43.5166 29.9889C44.0764 30.0044 44.6195 29.7972 45.0268 29.4129C45.4341 29.0285 45.6723 28.4983 45.6892 27.9386Z" fill="#FFBE9D"/>
<path id="Vector_24" d="M46.4008 16.7372C46.4008 16.7372 46.4008 16.8164 46.3361 16.9099C46.2826 16.9777 46.2133 17.0315 46.1344 17.0666C46.0554 17.1017 45.9691 17.117 45.8829 17.1113C45.4224 17.1113 44.9764 16.5789 44.8181 15.9603C44.7429 15.6604 44.7429 15.3465 44.8181 15.0466C44.8329 14.9157 44.8801 14.7906 44.9555 14.6825C45.0309 14.5745 45.132 14.487 45.2498 14.4279C45.3465 14.388 45.4552 14.388 45.5519 14.4279C45.6237 14.4635 45.6818 14.5217 45.7174 14.5934C45.7678 14.7157 45.7174 14.7948 45.7174 14.7876C45.7174 14.7804 45.7174 14.7157 45.6455 14.6438C45.6078 14.5922 45.5525 14.5564 45.4902 14.5431C45.4278 14.5298 45.3627 14.5401 45.3073 14.5718C45.2191 14.6252 45.1458 14.7 45.0942 14.7893C45.0426 14.8786 45.0145 14.9795 45.0124 15.0826C44.9518 15.3502 44.9518 15.6279 45.0124 15.8955C45.1563 16.4566 45.5447 16.9099 45.89 16.953C45.9576 16.9622 46.0263 16.9573 46.0919 16.9388C46.1575 16.9202 46.2186 16.8883 46.2713 16.8451C46.3577 16.7876 46.3864 16.73 46.4008 16.7372Z" fill="#EB996E"/>
<path id="Vector_25" d="M52.6098 4.20527C52.0558 2.32042 50.0487 1.3852 48.2214 0.867223C45.4373 0.0758759 42.4302 -0.269441 39.7108 0.730534C36.9915 1.73051 33.7254 3.48586 33.7254 6.48578C32.1211 6.35629 31.2002 7.75913 30.5672 9.5001C30.1624 10.5608 29.9199 11.6764 29.8478 12.8094C29.6463 16.7373 28.5456 22.1617 25.9989 25.0393C24.5601 26.6436 22.5674 27.7514 21.7472 29.7514C21.0278 31.4852 21.4019 33.5427 20.7329 35.298C20.1358 36.8447 18.8193 37.9454 17.8553 39.2907C16.8731 40.8168 16.2951 42.5676 16.1756 44.3785C16.056 46.1894 16.3989 48.001 17.1718 49.643C17.9503 51.2429 19.0464 52.6675 20.3933 53.8301C21.7402 54.9927 23.3097 55.8689 25.0062 56.4054C28.3665 57.4277 31.9499 57.4627 35.3296 56.5061C37.8661 55.8996 40.2322 54.7264 42.2503 53.0745C44.3153 51.3883 45.7335 49.0398 46.2646 46.4272C46.7754 43.492 45.9553 40.5065 45.3438 37.5857C43.4301 28.3557 43.9769 27.8737 46.3941 19.3056C46.4516 19.1545 46.4804 18.9963 46.5236 18.8452C46.5668 18.6941 46.5883 18.6222 46.6171 18.5071C46.6858 18.1684 46.7219 17.8239 46.725 17.4783C46.372 17.6096 45.9888 17.6374 45.6205 17.5584C45.2522 17.4794 44.9141 17.2968 44.6459 17.0323C44.3772 16.7502 44.1898 16.4006 44.1037 16.0206C44.0175 15.6407 44.0359 15.2445 44.1568 14.8741C44.3265 14.469 44.5794 14.104 44.8991 13.8029C45.2189 13.5017 45.5983 13.2711 46.0128 13.1259C46.8114 12.795 47.6674 12.6223 48.4516 12.2554C50.1134 11.4641 51.2645 9.82383 52.0486 8.10445C52.6933 6.91278 52.8923 5.53037 52.6098 4.20527Z" fill="#263238"/>
<path id="Vector_26" d="M46.6876 16.9316C46.8396 17.1562 46.9651 17.3976 47.0616 17.651C47.2775 18.1043 47.5652 18.7445 47.8818 19.4855L47.9393 19.6222H47.7882L47.0688 19.687C46.5724 19.687 46.1552 19.7805 45.666 19.7733C45.6234 19.7637 45.5839 19.7435 45.5512 19.7146C45.5185 19.6857 45.4937 19.6489 45.479 19.6078C45.4575 19.5424 45.4575 19.4718 45.479 19.4064C45.4956 19.3094 45.5172 19.2134 45.5437 19.1186L45.6732 18.6079C45.7383 18.2671 45.8396 17.9343 45.9753 17.6151C45.962 17.9624 45.9113 18.3073 45.8243 18.6438L45.7236 19.1546C45.6876 19.3273 45.6228 19.5934 45.7236 19.5719C46.0833 19.5719 46.594 19.4927 47.0688 19.464L47.7882 19.3992L47.6947 19.5575C47.3854 18.8381 47.1264 18.1618 46.9753 17.6942C46.8428 17.4554 46.7458 17.1985 46.6876 16.9316Z" fill="#4CAF4F"/>
<path id="Vector_27" d="M22.0555 77.4839L53.9612 76.5127L67.8458 130.713L65.2919 192.884H48.4218L50.4865 132.036L38.1487 94.3036L40.0479 195.294L22.998 195.546L21.2066 100.62C21.1275 97.9798 20.2642 92.0303 20.588 89.4116L22.0555 77.4839Z" fill="#263238"/>
<path id="Vector_28" d="M42.3928 95.0735C41.8706 95.1064 41.3463 95.075 40.8317 94.98C39.8677 94.8649 38.5512 94.6635 37.1052 94.3757C35.6592 94.088 34.3643 93.757 33.429 93.4909C32.9291 93.381 32.4455 93.2069 31.9902 92.9729C31.9902 92.865 34.3355 93.4261 37.2131 94.0088C40.0907 94.5916 42.4072 94.9656 42.3928 95.0735Z" fill="#455A64"/>
<path id="Vector_29" d="M65.1203 189.474C65.1203 189.575 61.3003 189.661 56.5882 189.661C51.8761 189.661 48.0488 189.575 48.0488 189.474C48.0488 189.373 51.8689 189.287 56.5882 189.287C61.3075 189.287 65.1203 189.366 65.1203 189.474Z" fill="#455A64"/>
<path id="Vector_30" d="M39.898 192.668C39.898 192.776 36.1859 192.855 31.6105 192.855C27.035 192.855 23.3301 192.776 23.3301 192.668C23.3301 192.56 27.0422 192.481 31.6105 192.481C36.1787 192.481 39.898 192.567 39.898 192.668Z" fill="#455A64"/>
<path id="Vector_31" d="M37.6953 192.409C37.5946 192.409 37.1485 170.345 36.6953 143.13C36.2421 115.915 35.9759 93.8362 36.0694 93.8362C36.1629 93.8362 36.6234 115.893 37.0694 143.123C37.5154 170.352 37.8032 192.409 37.6953 192.409Z" fill="#455A64"/>
<path id="Vector_32" d="M62.8529 189.474C62.845 189.376 62.845 189.277 62.8529 189.179V188.316C62.8529 187.539 62.9105 186.424 62.9536 185.006C63.0543 182.129 63.1982 177.949 63.3781 172.827C63.7666 162.525 64.3133 148.324 64.9104 132.648C64.9104 132.497 64.9104 132.353 64.9104 132.224V132.274C61.1335 117.166 57.7164 103.454 55.2344 93.5338L52.3568 81.8003C52.0258 80.4263 51.7741 79.3543 51.5942 78.6062C51.5079 78.2536 51.4503 77.9803 51.4 77.7716C51.3719 77.678 51.355 77.5815 51.3496 77.4839C51.387 77.5745 51.4159 77.6685 51.4359 77.7644C51.4935 77.9659 51.5654 78.2393 51.6661 78.5846C51.8604 79.304 52.1409 80.3975 52.5007 81.7643C53.2201 84.5412 54.2344 88.5412 55.5006 93.4691C58.0041 103.383 61.4573 117.058 65.2845 132.188V132.238C65.2845 132.367 65.2845 132.518 65.2845 132.662C64.6442 148.338 64.0615 162.532 63.6371 172.834C63.414 177.963 63.227 182.114 63.0975 185.006C63.0256 186.445 62.968 187.539 62.932 188.316C62.932 188.683 62.8889 188.97 62.8817 189.179C62.8828 189.278 62.8731 189.377 62.8529 189.474Z" fill="#455A64"/>
<path id="Vector_33" d="M57.3492 130.958C56.1374 131.356 54.8891 131.633 53.6227 131.785C52.0687 132.051 50.745 132.238 50.1479 132.267V132.123C50.3422 132.181 50.4429 132.216 50.4429 132.245C50.4429 132.274 50.3206 132.245 50.1191 132.245H49.6875L50.1191 132.116C50.6803 131.95 52.004 131.677 53.5579 131.396C54.8042 131.126 56.0741 130.979 57.3492 130.958Z" fill="#455A64"/>
<path id="Vector_34" d="M57.0545 133.022C55.9323 133.074 54.8079 133.023 53.6949 132.871C52.5711 132.848 51.4516 132.725 50.3496 132.504C52.5979 132.321 54.861 132.496 57.0545 133.022Z" fill="#455A64"/>
<path id="Vector_35" opacity="0.2" d="M21.9199 78.6278C22.2978 79.113 22.7737 79.513 23.3167 79.8019C23.8596 80.0907 24.4574 80.2618 25.0709 80.304C26.3559 80.4562 27.6557 80.432 28.9341 80.232C37.1713 79.3184 45.8977 78.4767 53.9623 76.5127C43.5237 77.0954 32.4952 76.9012 22.0566 77.4839L21.9487 78.376" fill="black"/>
<g id="Group" opacity="0.2">
<path id="Vector_36" d="M32.6738 93.3396L38.5586 116.174L38.1485 94.3036L32.6738 93.3396Z" fill="black"/>
</g>
</g>
</svg>
