<svg width="225" height="201" viewBox="0 0 225 201" fill="none" xmlns="http://www.w3.org/2000/svg">
    <g id="Frame 36">
    <g id="Group">
    <g id="SVGID 115">
    <g id="Group_2">
    <path id="Vector" d="M223.941 195.403C223.469 195.039 222.85 194.966 222.269 194.893C217.906 194.438 213.524 194.329 209.143 194.238C197.327 193.983 185.51 193.71 173.694 193.455C168.313 193.328 162.822 193.218 157.569 194.547C156.042 194.93 152.824 195.33 153.915 197.533C154.951 199.627 158.387 198.844 160.205 198.826C172.039 198.626 183.874 198.444 195.727 198.243C202.381 198.134 209.034 198.025 215.67 197.916C218.197 197.879 220.723 197.825 223.214 197.424C223.614 197.351 224.032 197.26 224.287 196.951C224.65 196.495 224.414 195.767 223.941 195.403Z" fill="url(#paint0_linear_53_257)"/>
    </g>
    </g>
    <path id="Vector_2" d="M223.941 195.403C223.469 195.039 222.85 194.966 222.269 194.893C217.906 194.438 213.524 194.329 209.143 194.238C197.327 193.983 185.51 193.71 173.694 193.455C168.313 193.328 162.822 193.218 157.569 194.547C156.042 194.93 152.824 195.33 153.915 197.533C154.951 199.627 158.387 198.844 160.205 198.826C172.039 198.626 183.874 198.444 195.727 198.243C202.381 198.134 209.034 198.025 215.67 197.916C218.197 197.879 220.723 197.825 223.214 197.424C223.614 197.351 224.032 197.26 224.287 196.951C224.65 196.495 224.414 195.767 223.941 195.403Z" fill="url(#paint1_linear_53_257)"/>
    <g id="Group_3">
    <path id="Vector_3" d="M203.707 189.668C205.889 189.649 208.052 188.866 209.761 187.483C205.925 180.71 202.089 173.937 198.254 167.164C197.036 165.016 195.818 162.867 195 160.555C193.981 157.696 193.582 154.674 193.182 151.67C191.636 140.036 190.091 128.401 188.546 116.749C188.419 115.766 188.273 114.765 187.764 113.927C186.31 111.506 182.819 111.615 180.038 112.033C179.42 112.125 178.765 112.234 178.347 112.707C177.875 113.235 177.911 114.036 177.966 114.728C178.711 123.959 176.311 115.784 177.057 125.015C177.311 128.256 180.729 148.939 181.71 152.052C183.437 157.551 185.764 163.213 189.255 167.783C194.636 174.811 198.235 181.274 203.707 189.668Z" fill="#4D4D4D"/>
    <path id="Vector_4" d="M170.457 117.059C166.531 116.95 162.604 116.859 158.659 116.749C158.405 116.24 159.423 116.677 159.423 117.241C159.168 135.066 160.75 152.908 164.167 170.405C165.64 177.943 167.44 185.499 167.476 193.164C169.094 193.164 170.694 193.164 172.312 193.164C172.857 169.131 173.402 145.116 173.948 121.083C173.984 119.863 173.93 118.479 172.984 117.696C172.312 117.132 171.348 117.095 170.457 117.059Z" fill="#4D4D4D"/>
    <path id="Vector_5" d="M168.567 196.805C167.894 197.369 168.803 197.824 169.239 197.861C170.039 197.934 170.857 197.897 171.639 197.697C171.839 197.642 172.057 197.588 172.221 197.46C172.348 197.351 172.439 197.224 172.548 197.078C172.802 196.696 173.42 196.095 173.511 195.64C173.584 195.275 173.366 194.911 173.202 194.584C172.839 193.874 172.203 193.145 172.239 192.29C170.512 192.472 168.857 191.889 167.421 192.344C167.294 192.945 166.858 193.437 167.058 193.91C166.912 193.6 162.749 194.656 162.258 194.747C161.459 194.911 160.659 195.039 159.859 195.112C159.222 195.166 158.023 194.875 157.677 195.512C157.55 195.731 157.514 196.004 157.495 196.259C157.477 196.459 157.477 196.659 157.55 196.841C157.659 197.151 157.95 197.387 158.259 197.497C161.659 198.753 165.076 196.768 168.567 196.805Z" fill="#1A1A1A"/>
    <path id="Vector_6" d="M207.543 192.872C207.125 193.728 208.216 193.764 208.67 193.619C209.488 193.345 210.288 192.945 210.979 192.417C211.161 192.271 211.343 192.126 211.452 191.925C211.543 191.761 211.561 191.579 211.597 191.416C211.688 190.924 212.015 190.05 211.924 189.577C211.833 189.176 211.47 188.921 211.161 188.666C210.488 188.12 209.307 187.137 208.979 186.281C207.361 187.228 204.889 188.32 203.689 189.413C204.344 189.886 204.416 190.323 204.834 190.687C204.562 190.432 200.908 193.309 200.453 193.619C199.744 194.128 198.999 194.602 198.235 195.021C197.635 195.348 196.326 195.585 196.254 196.368C196.236 196.641 196.308 196.914 196.399 197.187C196.472 197.387 196.563 197.588 196.69 197.733C196.945 198.006 197.326 198.097 197.69 198.079C201.58 197.806 204.089 194.347 207.543 192.872Z" fill="#1A1A1A"/>
    <path id="Vector_7" d="M182.111 25.7515C182.111 25.442 182.002 25.1506 181.893 24.8593C180.729 21.7095 179.566 18.5416 178.384 15.3918C177.548 13.1341 176.53 10.6761 174.367 9.6019C171.476 8.18176 168.131 9.9297 165.077 10.9311C165.168 14.9366 164.986 18.942 164.532 22.9111C164.277 25.1506 163.932 27.4265 164.204 29.6659C164.477 31.9053 165.495 34.1812 167.386 35.4011C170.585 37.4767 175.021 35.838 177.748 33.1616C179.62 31.3409 181.056 29.1015 181.911 26.6436C182.02 26.3705 182.129 26.061 182.111 25.7515Z" fill="#C89A81"/>
    <path id="Vector_8" d="M177.02 23.9671C177.184 23.1114 177.857 22.3468 178.711 22.2011C179.565 22.0372 180.529 22.5834 180.729 23.4392C180.965 24.4587 180.147 25.3873 179.638 26.3159C177.947 29.2836 179.275 32.9977 180.602 36.1293C181.82 33.9445 183.492 32.0146 185.456 30.467C187.001 29.2653 188.873 28.0819 189.255 26.152C189.455 25.1142 189.182 24.0218 189.382 22.9658C189.673 21.5274 190.855 20.3622 191.055 18.9057C191.273 17.3035 190.291 15.8105 189.273 14.5724C186.892 11.6775 184.074 9.1468 180.929 7.08942C180.038 6.5068 179.038 5.85126 178.747 4.83168C178.602 4.30368 178.656 3.72107 178.42 3.24769C178.002 2.41017 176.911 2.22813 175.984 2.1371C173.112 1.8822 170.13 1.64553 167.385 2.50126C166.676 2.71974 165.985 3.01099 165.258 3.01099C163.822 3.01099 162.586 1.91865 161.15 1.82761C159.55 1.71837 158.096 2.9382 157.441 4.41296C156.787 5.88771 156.787 7.54449 156.896 9.1467C157.878 9.58366 158.859 10.0025 159.841 10.4394C158.968 11.7503 158.914 13.5711 159.714 14.9366C161.659 15.1733 163.659 14.8638 165.422 14.0262C166.64 13.4436 167.876 12.6061 169.203 12.8427C170.548 13.0794 171.439 14.2993 172.439 15.2461C173.439 16.1928 175.093 16.8665 176.093 15.9379C176.984 18.4687 177.311 21.2543 177.02 23.9671Z" fill="#736357"/>
    <path id="Vector_9" d="M182.911 35.7653C187.201 36.3115 190.528 38.7511 192.2 41.4821C193.873 44.2132 194.164 47.1991 194.436 50.1486C194.782 53.9174 195.127 57.7045 195.491 61.4733C196.327 70.504 197.163 79.5527 196.763 88.6015C196.582 92.7163 196.145 96.8493 195.727 100.946C194.836 109.412 193.945 117.878 193.055 126.344C181.311 125.58 169.585 124.797 157.841 124.032C156.442 123.941 154.933 123.832 153.824 123.231C151.806 122.157 151.915 120.099 152.242 118.388C156.278 96.8674 159.514 75.3288 161.441 53.608C161.714 50.6038 160.914 41.5186 162.768 39.2609C164.913 36.6392 178.893 35.2373 182.911 35.7653Z" fill="#B4C7BA"/>
    <path id="Vector_10" d="M176.457 22.8928C175.076 22.9474 173.621 23.1659 172.258 23.4572C172.258 23.1113 172.24 22.7835 172.203 22.5104C172.076 21.8185 171.549 21.2359 170.876 20.981C170.713 20.9082 170.531 20.8718 170.349 20.8354C169.476 20.708 168.567 21.0903 167.931 21.7093C167.749 21.8914 167.586 22.0917 167.458 22.3284C167.349 22.5287 167.313 22.7653 167.277 22.9838C167.04 22.9838 166.786 22.9838 166.55 22.9838C166.64 22.4194 166.622 21.8186 166.55 21.3816C166.422 20.6897 165.895 20.1071 165.222 19.8522C165.059 19.7793 164.877 19.743 164.695 19.7066C163.823 19.5791 162.914 19.9614 162.277 20.5805C162.096 20.7626 161.932 20.9629 161.805 21.1996C161.587 21.6365 161.568 22.1463 161.568 22.6379C161.568 22.8746 161.568 23.1294 161.641 23.3661C162.077 24.5313 165.204 24.8591 166.041 24.0944C166.277 23.8759 166.404 23.53 166.495 23.1658C166.731 23.2933 166.986 23.4025 167.24 23.5118C167.24 23.6028 167.222 23.6939 167.222 23.7849C167.222 24.0216 167.222 24.2764 167.295 24.5131C167.731 25.6784 170.858 26.0061 171.694 25.2414C171.967 24.9865 172.094 24.6041 172.167 24.1672C172.567 24.2582 173.112 24.1672 173.421 24.1672C174.421 24.149 175.457 24.1854 176.439 24.0762C177.184 23.9851 177.221 22.8746 176.457 22.8928Z" fill="#333333"/>
    <path id="Vector_11" d="M181.475 30.5762C182.347 30.4488 183.238 30.3031 184.074 30.5398C184.892 30.7583 185.583 31.3227 186.165 31.9418C187.91 33.8171 188.819 36.4388 188.583 38.9878C188.546 39.4794 188.437 39.9892 188.146 40.3898C187.656 41.0452 186.765 41.2091 185.965 41.3183C180.238 42.1558 174.476 42.8112 168.713 43.3028C167.422 43.4121 166.095 43.5213 164.822 43.23C162.677 42.7567 160.768 41.0998 160.259 38.9696C159.187 34.4361 163.223 33.3983 166.568 32.8885C171.53 32.1239 176.493 31.3409 181.475 30.5762Z" fill="#EBEFEB"/>
    <path id="Vector_12" d="M164.277 50.1668C164.386 53.2801 164.786 56.4117 164.441 59.5069C164.15 62.1651 163.332 64.7322 162.495 67.2994C161.786 69.5206 161.059 71.7601 160.35 73.9814C160.169 74.5458 159.969 75.1284 159.569 75.5471C158.896 76.239 157.823 76.3301 156.86 76.3665C155.842 76.4029 154.733 76.4392 153.879 75.8566C152.533 74.9463 152.442 73.0345 152.515 71.3959C153.006 60.9998 154.787 50.6401 157.842 40.6809C158.823 37.4765 162.895 35.401 164.586 39.4793C165.695 42.1922 164.168 47.2354 164.277 50.1668Z" fill="#EBEFEB"/>
    <g id="Group_4">
    <path id="Vector_13" d="M125.464 91.223C126.082 91.223 126.718 91.0957 127.336 90.95C128.972 90.5859 130.59 90.1852 132.208 89.7118C132.426 89.6572 132.662 89.5663 132.735 89.3478C132.772 89.2203 132.735 89.0746 132.699 88.9472C132.426 88.1643 132.044 87.436 131.572 86.7806C131.208 86.289 130.754 85.8156 130.154 85.6517C129.463 85.4697 128.681 85.7063 127.954 85.852C126.554 86.1069 125.118 85.9612 123.864 85.415C123.555 85.5971 123.5 86.0523 123.682 86.3436C123.864 86.6349 124.191 86.7806 124.5 86.908C123.718 87.3268 122.809 87.0719 122.337 87.254C121.755 87.4906 121.119 87.6363 120.537 87.9276C120.373 88.0186 120.21 88.1097 120.119 88.2553C119.882 88.6559 120.282 89.0746 120.646 89.3113C122.1 90.2763 123.664 91.2412 125.464 91.223Z" fill="#C89A81"/>
    <path id="Vector_14" d="M181.401 59.6524C182.456 57.9227 183.492 56.1201 183.765 54.1174C184.037 52.1146 183.419 49.857 181.765 48.71C180.292 47.6904 178.256 47.7268 176.602 48.4186C174.948 49.1105 173.584 50.3669 172.366 51.696C167.094 57.3401 163.549 64.4771 158.005 69.8482C149.878 77.7499 138.48 81.0089 128.081 85.5242C127.791 85.6517 127.482 85.7974 127.318 86.0523C127.136 86.3618 127.172 86.7441 127.227 87.09C127.427 88.3827 127.609 89.6936 127.809 90.9863C134.281 90.3308 140.734 89.3295 147.097 87.9822C153.86 86.5621 160.822 84.5957 165.949 79.9529C167.912 78.1687 169.548 76.0567 171.148 73.9447C174.729 69.3202 178.311 64.6592 181.401 59.6524Z" fill="#BFD1C4"/>
    </g>
    <g id="Group_5">
    <g id="Group_6">
    <g id="Group_7">
    <path id="Vector_15" d="M124.41 86.6351C118.647 104.296 113.066 122.047 107.594 139.799C101.922 158.188 95.9227 176.668 91.287 195.367C91.1416 195.967 91.8143 196.113 92.0142 195.567C98.177 178.07 103.322 160.1 108.885 142.366C114.666 123.941 120.556 105.57 126.428 87.1814C126.955 85.561 124.937 85.0329 124.41 86.6351Z" fill="#F5F5F5"/>
    <path id="Vector_16" d="M92.3957 191.306C92.6684 191.416 92.9411 191.525 93.2319 191.634C93.2683 191.652 93.3047 191.67 93.341 191.689C95.977 183.969 98.4676 176.176 100.885 168.366C100.267 168.001 99.7038 167.546 99.2129 167.018C96.7769 175.084 94.45 183.168 92.3594 191.288C92.3594 191.306 92.3775 191.306 92.3957 191.306Z" fill="#67302D"/>
    <path id="Vector_17" d="M126.337 89.3117C126.591 88.5288 126.791 87.7459 126.791 87.054C126.755 84.7235 125.5 85.2151 124.555 86.6899C124.464 86.7991 124.373 86.9629 124.3 87.1268C124.282 87.1632 124.264 87.1996 124.246 87.236C124.228 87.2907 124.191 87.3089 124.173 87.3635C124.082 87.582 123.991 87.8187 123.901 88.0372C123.882 88.0736 123.882 88.11 123.882 88.1464C123.61 88.5287 123.373 89.0204 123.173 89.694C122.392 92.2976 118.447 103.677 117.629 106.28C116.538 109.722 115.92 112.343 117.811 113.108C118.156 113.254 118.719 112.744 118.974 112.034C120.537 107.846 125.009 94.7738 126.227 90.3859C126.337 89.9489 126.355 89.603 126.337 89.3117Z" fill="#333333"/>
    </g>
    <path id="Vector_18" d="M89.5781 196.259C89.1054 196.841 88.8327 197.624 88.9236 198.371C89.0145 199.117 89.4872 199.809 90.1598 200.064C90.8324 200.319 91.6687 200.082 92.105 199.463C92.9594 198.261 93.3958 197.042 92.305 196.131C91.4142 195.421 90.4507 195.203 89.5781 196.259Z" fill="#EBEBEB"/>
    </g>
    <g id="Group_8">
    <path id="Vector_19" d="M121.991 100.491C122.173 99.8717 122.355 99.2526 122.518 98.6336C122.9 97.2863 123.282 95.9208 123.663 94.5735C123.9 93.7177 123.991 93.1533 124.082 92.3339C124.1 92.1337 124.118 91.9334 124.082 91.806C124.045 91.6603 123.936 91.6057 123.845 91.5875C123.373 91.4419 123.009 91.2052 122.482 91.278C121.991 91.3509 121.646 90.9321 121.155 91.0049C121.046 91.0231 120.937 91.0413 120.827 91.1506C120.737 91.2416 120.646 91.4054 120.555 91.5511C119.737 93.0622 119.046 95.4291 118.519 97.2316C117.792 99.7624 116.774 102.33 116.137 104.86C115.992 105.443 115.992 105.479 116.192 105.643C116.428 105.807 116.919 105.88 117.173 105.971C117.701 106.171 118.246 106.371 118.773 106.572C119.173 106.717 119.664 106.79 120.137 106.044C120.355 105.698 120.5 105.224 120.646 104.787C121.118 103.349 121.573 101.929 121.991 100.491Z" fill="#696969"/>
    <path id="Vector_20" d="M117.374 103.003C117.537 102.494 117.701 101.984 117.865 101.456C117.974 101.11 118.083 100.746 118.101 100.491C118.119 100.309 118.065 100.254 118.028 100.218C117.756 99.9809 117.465 99.8353 117.138 99.7989C117.01 99.7807 116.847 99.7989 116.61 100.236C116.392 100.636 116.174 101.274 115.992 101.856C115.829 102.366 115.538 103.185 115.465 103.659C115.374 104.169 115.556 104.077 115.665 104.096C115.992 104.169 116.319 104.241 116.629 104.314C116.719 104.332 116.81 104.332 116.956 104.059C117.101 103.804 117.247 103.386 117.374 103.003Z" fill="#F5F5F5"/>
    <g id="Group_9">
    <path id="Vector_21" d="M118.629 96.9402C118.611 96.8309 118.574 96.7763 118.52 96.7399C118.447 96.6671 118.356 96.5942 118.265 96.5942C118.156 96.5942 118.029 96.6853 117.92 96.8674C117.738 97.1769 117.429 98.0872 117.447 98.4331C117.465 98.8155 117.829 98.6698 118.011 98.6152C118.065 98.597 118.12 98.5787 118.192 98.4877C118.265 98.3785 118.338 98.1964 118.392 98.0143C118.447 97.8505 118.501 97.6684 118.538 97.5046C118.592 97.3043 118.647 97.0858 118.629 96.9402Z" fill="#333333"/>
    <path id="Vector_22" d="M119.447 94.5369C119.374 94.4823 119.283 94.4276 119.211 94.373C119.12 94.3002 118.992 94.2274 118.847 94.3912C118.683 94.5733 118.556 94.9557 118.447 95.3016C118.102 96.394 118.283 96.2484 118.647 96.3576C118.738 96.394 118.865 96.4122 118.992 96.2484C119.12 96.0845 119.211 95.8114 119.283 95.5383C119.356 95.1924 119.429 94.8282 119.447 94.5369Z" fill="#333333"/>
    <path id="Vector_23" d="M119.393 94.0635C119.465 94.0453 119.538 94.027 119.611 93.9178C119.738 93.7539 119.847 93.4627 119.92 93.1896C120.029 92.8619 120.138 92.4795 120.101 92.2428C120.083 92.0425 119.956 92.0061 119.847 92.0061C119.774 92.0061 119.683 92.0061 119.592 92.0971C119.447 92.2428 119.338 92.5706 119.247 92.8437C118.974 93.7904 118.956 94.1545 119.393 94.0635Z" fill="#333333"/>
    </g>
    </g>
    </g>
    <path id="Vector_24" d="M191.819 36.8761C196.218 43.995 200.072 51.7692 200.545 60.1262C200.836 65.2059 199.963 70.7772 202.835 74.9648C203.217 75.511 203.672 76.0755 203.726 76.7309C203.781 77.2953 203.508 77.8597 203.144 78.2967C201.254 80.5179 197.327 79.2981 195.818 76.8037C194.309 74.3094 194.418 71.2142 194.346 68.3011C194.127 59.1613 191.546 50.1125 186.947 42.2107C185.71 40.0987 183.656 36.4209 185.62 34.0358C187.765 31.4322 190.619 34.9644 191.819 36.8761Z" fill="#EBEFEB"/>
    </g>
    </g>
    <g id="Group_10">
    <g id="SVGID 211">
    <g id="Group_11">
    <path id="Vector_25" d="M24.6683 200.938C28.1587 201.048 31.6673 200.993 35.1577 200.92C44.9018 200.738 54.6641 200.538 64.4082 200.356C65.9171 200.319 67.8805 199.992 67.9896 198.808C68.0805 197.752 66.5534 197.078 65.2445 196.769C60.5724 195.64 55.664 195.422 50.8283 195.24C43.702 194.967 36.5576 194.748 29.4313 194.566C24.9773 194.457 20.3962 194.384 16.2513 195.549C13.9789 196.186 10.6339 198.899 14.2334 200.21C15.2333 200.574 17.2512 200.41 18.3238 200.501C20.4144 200.702 22.5413 200.865 24.6683 200.938Z" fill="url(#paint2_linear_53_257)"/>
    </g>
    </g>
    <path id="Vector_26" opacity="0.22" d="M24.6683 200.938C28.1587 201.048 31.6673 200.993 35.1577 200.92C44.9018 200.738 54.6641 200.538 64.4082 200.356C65.9171 200.319 67.8805 199.992 67.9896 198.808C68.0805 197.752 66.5534 197.078 65.2445 196.769C60.5724 195.64 55.664 195.422 50.8283 195.24C43.702 194.967 36.5576 194.748 29.4313 194.566C24.9773 194.457 20.3962 194.384 16.2513 195.549C13.9789 196.186 10.6339 198.899 14.2334 200.21C15.2333 200.574 17.2512 200.41 18.3238 200.501C20.4144 200.702 22.5413 200.865 24.6683 200.938Z" fill="url(#paint3_linear_53_257)"/>
    <g id="Group_12">
    <path id="Vector_27" d="M47.5559 45.1421C49.0466 48.2008 49.8648 51.5326 50.9191 54.7735C52.3917 59.2524 54.3732 63.6403 57.3728 67.2816C60.3542 70.923 64.4263 73.8179 69.0438 74.801C69.6983 74.9467 70.3891 75.0377 70.9708 75.3654C72.0616 75.9845 72.6252 77.2954 72.5888 78.5516C61.7721 78.0236 51.2827 72.6344 44.5382 64.15C41.7204 60.5997 39.5571 56.576 37.6119 52.4794C36.3757 49.8759 35.194 47.072 35.5394 44.2135C35.8303 41.7738 38.1936 38.4055 40.975 38.4601C43.9564 38.5147 46.447 42.8662 47.5559 45.1421Z" fill="#666666"/>
    <path id="Vector_28" d="M23.8319 147.119C24.3227 133.463 23.3047 119.535 23.3956 105.789C23.0684 101.019 23.5956 96.1758 24.9045 91.6969C24.9772 91.4238 25.0681 91.1325 25.2317 90.914C25.7408 90.2586 26.5952 90.6045 27.2678 90.9505C33.6851 94.3187 41.2658 93.5176 47.1195 88.7656C48.283 91.0051 48.6103 93.7543 48.883 96.4125C49.3375 100.709 49.8465 104.988 49.9737 109.303V109.321C49.9919 110.25 50.0101 111.178 49.9919 112.107C49.9192 117.478 49.1011 122.776 48.4648 128.074C48.0467 131.534 47.6832 135.011 47.6468 138.507C47.6105 141.365 47.9376 143.987 47.4286 146.791C46.1924 153.691 46.1924 161.229 45.6652 168.293C45.1017 175.849 44.5563 183.405 44.0836 190.979C44.0655 191.288 44.0472 191.58 44.029 191.889C43.7382 191.999 39.157 193.328 39.157 191.817C38.7934 177.124 38.4299 162.431 38.0481 147.738C37.9027 141.547 38.2481 120.664 37.0119 114.765C36.5029 114.838 35.9939 114.892 35.4849 114.965C32.7034 134.41 29.3948 168.475 26.5952 187.92C26.3407 189.632 26.0497 191.471 25.1589 192.581C24.2682 193.692 22.6139 193.382 22.3594 191.671C23.2138 176.832 23.3047 161.975 23.8319 147.119Z" fill="#272826"/>
    <path id="Vector_29" d="M37.1205 191.762C37.175 191.598 37.2114 191.416 37.266 191.252C37.8295 189.031 38.1203 186.737 38.1203 184.461C38.1203 183.423 38.0659 182.367 38.3022 181.348C39.6293 181.366 43.3378 181.129 44.6649 181.147C44.774 181.147 44.9013 181.147 44.9922 181.22C45.083 181.293 45.1194 181.421 45.1376 181.548C45.7194 184.698 43.7559 188.194 44.4831 191.307C44.7739 192.563 45.9374 193.018 47.01 193.656C47.9372 194.22 49.7733 195.586 50.8822 195.586C51.5185 195.84 52.1911 196.095 52.6638 196.605C53.1364 197.115 53.3182 197.952 52.8819 198.48C52.5001 198.936 51.8094 198.99 51.2094 199.008C46.5919 199.063 41.9743 198.663 37.4295 197.843C37.1568 197.789 36.866 197.734 36.666 197.534C36.5024 197.37 36.4297 197.151 36.3752 196.951C35.848 194.93 36.6115 193.528 37.1205 191.762Z" fill="#494949"/>
    <path id="Vector_30" d="M20.3046 192.982C20.45 192.49 20.7773 192.072 20.941 191.598C21.1227 191.107 21.0318 190.488 21.0318 189.96C21.0318 187.574 21.0318 185.171 21.0136 182.786C21.0136 182.058 21.0864 181.22 21.7045 180.838C22.1226 180.583 22.6497 180.656 23.1406 180.747C24.5404 180.984 25.9402 181.22 27.34 181.475C27.7036 181.53 28.1218 181.621 28.3217 181.93C28.5217 182.24 28.4671 182.64 28.3944 183.005C27.9763 185.299 27.8126 187.647 27.9035 189.996C27.9217 190.67 27.9763 191.343 27.9035 191.999C29.5215 193.382 31.3031 194.566 33.212 195.494C33.7755 195.768 34.3572 196.041 34.7572 196.514C35.1571 196.987 35.2661 197.77 34.8298 198.225C34.4481 198.626 33.8482 198.626 33.3028 198.59C29.158 198.335 25.0313 197.698 21.0136 196.66C20.7773 196.605 20.5228 196.532 20.3592 196.332C20.232 196.186 20.1774 195.986 20.1411 195.786C19.9593 194.875 20.0319 193.892 20.3046 192.982Z" fill="#494949"/>
    <path id="Vector_31" d="M27.9041 37.6409C30.5765 37.8411 33.267 37.3131 35.8667 36.6758C36.5211 36.512 37.2301 36.3482 37.8846 36.5484C38.9208 36.8762 39.3753 37.9686 39.6662 38.9335C44.4473 53.8814 48.3377 69.0841 51.3737 84.4143C56.0094 107.865 58.6635 131.625 59.2634 155.457C45.8471 158.844 31.6491 158.17 17.742 157.497C12.5609 157.242 7.32528 156.987 2.3078 155.767C1.70788 155.621 1.05338 155.439 0.671616 154.984C0.217133 154.474 0.217169 153.746 0.253528 153.072C0.580755 147.082 1.83509 141.183 3.0531 135.302C8.90683 106.918 13.7971 78.3696 18.0692 49.7666C18.5782 46.2891 18.2146 40.7724 19.8689 37.659C21.596 34.3818 24.9409 37.4224 27.9041 37.6409Z" fill="#B1D5B2"/>
    <path id="Vector_32" d="M23.7772 26.8443C23.8499 28.1006 23.9408 29.3751 24.3589 30.5222C25.2861 33.1075 27.613 34.5459 29.7945 35.6929C31.467 36.5668 33.394 37.4225 35.0846 36.585C36.539 35.875 37.3752 34.1453 38.4842 32.8344C39.3204 31.8512 40.3567 31.0866 41.1566 30.0488C42.9563 27.7365 43.3926 24.3865 43.4108 21.2549C43.429 17.304 42.72 12.9707 40.1203 10.4218C38.7569 9.09267 37.0117 8.40078 35.2483 8.00022C33.6122 7.61788 31.8852 7.47226 30.2672 7.98206C28.2675 8.6193 26.5768 10.2579 25.377 12.2425C22.5592 16.9944 23.45 21.4369 23.7772 26.8443Z" fill="#FFC3B1"/>
    <path id="Vector_33" d="M73.8435 73.3264C74.6434 73.0169 75.4614 72.7256 76.3158 72.6892C77.1703 72.671 78.0792 72.9805 78.5701 73.6906C79.0973 74.4917 78.9701 75.6023 78.4247 76.3852C77.8793 77.1681 77.0067 77.6779 76.1159 78.0238C74.6797 78.57 73.0073 78.7339 71.6257 78.042C70.6803 77.5686 69.3168 76.1121 69.9713 74.9833C70.4803 74.0911 72.9527 73.6542 73.8435 73.3264Z" fill="#FFC3B1"/>
    <path id="Vector_34" d="M18.8327 55.6657C18.869 56.7217 18.9418 57.7777 19.2327 58.7791C19.5963 60.0718 20.2871 61.237 21.0324 62.3476C26.8316 70.8684 37.2302 76.021 47.5196 75.4748C47.9923 75.4566 48.5377 75.3656 48.774 74.965C48.9013 74.7465 48.9013 74.4734 48.9013 74.2185C48.8831 73.381 48.8103 72.5435 48.683 71.7241C45.9925 71.3054 43.3202 70.741 40.666 70.0491C36.0303 68.8293 31.031 66.7537 29.1222 62.3658C28.2496 60.3813 28.1405 58.1601 28.0496 55.9934C27.9041 52.789 27.7769 49.5482 28.5223 46.4348C28.8677 44.9965 29.3948 43.5945 29.5221 42.138C29.8675 37.5681 23.5957 35.1102 21.705 39.6073C19.6508 44.5413 18.6872 50.3493 18.8327 55.6657Z" fill="#666666"/>
    <path id="Vector_35" d="M45.6834 15.4831C45.3925 14.1722 45.138 12.8249 44.5563 11.6233C44.3927 11.2773 44.1382 10.9132 43.8655 10.5672C43.9018 10.2941 43.9381 10.0028 43.9199 9.62049C43.8291 7.03511 42.4475 4.48618 40.2478 3.10245C36.5938 0.790182 31.8126 1.79154 27.6132 0.753752C26.5224 0.480649 25.4499 0.0618846 24.3227 0.00726403C21.9049 -0.120184 19.6688 1.44562 18.2872 3.43016C16.9056 5.41471 16.2147 7.78161 15.5057 10.0939C14.4695 13.4075 13.2333 16.794 10.761 19.2155C8.72488 21.2182 5.85254 22.6384 4.96176 25.3512C3.78011 28.938 6.7434 32.7614 6.05258 36.4756C5.61628 38.7879 3.87103 40.5722 2.4894 42.4657C0.289711 45.488 -1.03735 49.7666 1.03508 52.8618C1.78043 53.9906 2.88938 54.8099 3.88924 55.7385C5.12544 56.8855 6.198 58.2328 7.05242 59.6894C7.94321 61.2188 8.61579 62.9848 8.25221 64.7145C7.88862 66.4441 6.14345 67.9553 4.4346 67.5001C6.12527 68.4105 8.27039 68.4104 9.96106 67.5183C11.6517 66.608 12.8516 64.8237 13.0334 62.912C13.1243 61.8924 12.997 60.7636 13.5969 59.9443C14.5604 58.6516 16.8328 58.9247 17.7055 57.5591C18.5053 56.3211 17.5601 54.7553 17.1783 53.317C16.8692 52.1517 16.9783 50.9137 17.1055 49.6938C17.3237 47.6547 17.6146 45.5972 17.9782 43.5763C18.2145 42.2654 18.5054 40.8999 19.3052 39.8257C20.8141 37.7865 23.6864 37.3677 26.2133 37.5862C27.4495 37.6955 28.9039 37.8229 29.6856 36.8579C29.8674 36.6213 29.9946 36.3482 30.0491 36.0568C31.449 38.1506 31.7762 40.9909 31.5217 43.5763C32.8851 41.2458 32.9216 38.2963 32.0853 35.7474C31.2309 33.1802 29.5765 30.9589 27.7041 29.029C26.686 27.973 25.577 26.9899 24.7044 25.7882C23.8318 24.6047 23.2138 23.1664 23.3047 21.6917C23.3592 20.9452 23.5955 20.2533 23.9227 19.5796C24.1591 19.0881 25.1227 18.1595 25.1408 17.6497C25.1408 17.5951 25.1408 17.5587 25.1226 17.5223C25.159 17.5041 25.1953 17.4859 25.2317 17.4859C25.1226 18.5601 25.2862 19.6889 25.6316 20.7267C26.1952 22.4017 27.2132 23.8764 28.3403 25.242C26.8314 22.9115 27.4314 19.6707 29.1766 17.5223C30.9218 15.3739 33.576 14.1722 36.2483 13.4803C37.5027 13.1526 38.6298 12.8249 39.5206 12.2059C39.9569 12.8067 40.5387 13.3711 40.9386 13.808C43.9019 16.9578 44.3563 21.9101 42.5384 25.77C41.3022 28.41 39.0661 30.8315 39.2843 33.7264C40.1205 30.2489 44.3017 28.6831 45.956 25.5151C47.5376 22.4928 46.4287 18.8332 45.6834 15.4831Z" fill="#736357"/>
    <path id="Vector_36" d="M71.7345 88.4562C72.1527 88.4015 72.5889 88.3105 72.8979 88.0374C73.207 87.7643 73.3524 87.3638 73.4615 86.9814C74.1523 84.6509 74.7523 81.2099 75.334 78.2604C75.8612 75.5839 75.8975 73.035 76.6429 70.4132C78.0245 65.4973 78.5699 63.4218 78.6062 59.8168C78.6062 59.6165 78.6063 59.398 78.5154 59.2159C78.3699 58.9428 78.0608 58.8336 77.77 58.7426C76.2793 58.251 74.7341 57.905 73.1889 57.5591C69.6439 56.758 66.0808 55.9751 62.5358 55.174C60.9906 54.8281 59.2272 54.5368 57.9728 55.4835C56.8639 56.3211 56.5548 57.814 56.3366 59.1795C55.664 63.1486 54.9914 67.1177 54.337 71.0868C54.0097 73.0714 53.6642 75.0559 53.337 77.0405C53.0825 78.5698 51.9736 81.5012 52.3372 82.9759C52.7189 84.4871 53.737 85.1972 55.2277 85.4156C56.9729 85.6705 58.6817 86.1621 60.3906 86.6173C63.5901 87.4912 68.335 88.8931 71.7345 88.4562Z" fill="#EAEAEA"/>
    <path id="Vector_37" d="M49.6643 70.5043C50.8642 69.5029 52.3367 68.811 53.8819 68.5379C54.6818 68.3923 55.609 68.3741 56.2452 68.9021C56.8997 69.4483 57.0633 70.3768 57.1178 71.2143C57.1723 71.9426 57.2088 72.6709 57.1906 73.3992C57.1906 73.6177 57.1724 73.8726 57.0269 74.0364C56.8997 74.1639 56.7179 74.2185 56.5542 74.2549C54.2455 74.8011 51.8459 75.0378 49.4644 74.9832C49.0281 74.965 48.5554 74.9286 48.2645 74.6191C48.0645 74.4006 47.9918 74.0911 47.9191 73.818C47.5191 71.9609 48.3009 71.6513 49.6643 70.5043Z" fill="#FFC3B1"/>
    </g>
    <path id="Vector_38" d="M67.9893 74.71C67.3894 72.8165 67.2439 70.6499 67.3893 68.6835C67.4257 68.3012 66.9348 68.1737 66.6985 68.3922C65.1714 69.7577 63.8443 71.3053 62.6626 72.9621C62.2627 72.9986 62.0446 73.3991 62.0991 73.7632C62.0991 73.7632 62.0991 73.7632 62.0991 73.7814C62.0264 73.8907 62.1173 74.0181 62.2446 74.0363C62.3173 74.1274 62.4081 74.2002 62.5536 74.2366C64.1352 74.6371 65.735 75.0741 67.3529 75.3836C67.7165 75.4382 68.1165 75.1287 67.9893 74.71ZM66.5894 69.6303C66.5894 71.1414 66.6985 72.598 66.8803 74.1092C65.6804 73.7268 64.4442 73.3991 63.2262 73.0532C64.2988 71.8697 65.4078 70.7227 66.5894 69.6303Z" fill="white"/>
    </g>
    </g>
    <defs>
    <linearGradient id="paint0_linear_53_257" x1="153.689" y1="196.19" x2="224.465" y2="196.19" gradientUnits="userSpaceOnUse">
    <stop stop-color="#4D4D4D"/>
    <stop offset="1"/>
    </linearGradient>
    <linearGradient id="paint1_linear_53_257" x1="153.689" y1="196.19" x2="224.465" y2="196.19" gradientUnits="userSpaceOnUse">
    <stop/>
    <stop offset="1"/>
    </linearGradient>
    <linearGradient id="paint2_linear_53_257" x1="12.7124" y1="196.842" x2="67.9479" y2="199.558" gradientUnits="userSpaceOnUse">
    <stop stop-color="white"/>
    <stop offset="1"/>
    </linearGradient>
    <linearGradient id="paint3_linear_53_257" x1="12.7124" y1="196.842" x2="67.9479" y2="199.558" gradientUnits="userSpaceOnUse">
    <stop/>
    <stop offset="1"/>
    </linearGradient>
    </defs>
</svg>