<svg width="308" height="303" viewBox="0 0 308 303" fill="none" xmlns="http://www.w3.org/2000/svg">
<path d="M261.978 302.474C261.978 302.574 212.022 302.661 150.42 302.661C88.817 302.661 38.8398 302.574 38.8398 302.474C38.8398 302.373 88.7882 302.287 150.42 302.287C212.051 302.287 261.978 302.38 261.978 302.474Z" fill="#263238"/>
<path d="M213.304 214.404C202.189 206.641 199.671 192.232 200.11 179.275C200.182 177.117 199.945 174.829 200.974 172.937C202.002 171.045 204.405 169.743 206.34 170.65C207.945 171.405 208.642 173.275 209.542 174.822C210.742 176.882 212.5 178.561 214.613 179.664C215.988 180.383 217.693 180.815 219.052 180.067C220.923 179.038 221.138 176.47 221.124 174.311C221.124 170.297 221.1 166.288 221.052 162.283C220.923 160.132 221.142 157.975 221.7 155.894C222.369 153.851 223.858 151.959 225.894 151.384C227.93 150.808 230.469 151.995 230.93 154.096C231.009 154.986 231.03 155.88 230.994 156.772C231.052 157.671 231.469 158.657 232.311 158.93C233.153 159.204 234.03 158.578 234.678 157.945C236.893 155.787 238.404 152.974 239.807 150.197C241.21 147.42 242.584 144.564 244.598 142.197C246.613 139.83 249.397 137.953 252.512 137.773C255.627 137.593 258.871 139.506 259.648 142.528C260.425 145.549 258.663 148.636 256.771 151.089C253.916 154.73 250.55 157.941 246.778 160.621C246.042 161.023 245.454 161.651 245.102 162.412C244.634 163.851 245.994 165.29 247.411 165.743C249.015 166.276 250.756 166.11 252.447 166.311C254.138 166.513 255.936 167.247 256.576 168.829C257.454 171.031 255.612 173.333 253.807 174.844C250.181 177.865 246.064 180.242 241.634 181.872C240.052 182.448 238.39 182.959 237.109 184.066C235.829 185.174 235.066 187.11 235.836 188.627C236.606 190.145 238.584 190.627 240.246 190.318C241.908 190.009 243.383 189.117 244.965 188.52C247.922 187.404 251.735 187.606 253.598 190.16C254.175 191.04 254.541 192.041 254.666 193.086C254.79 194.131 254.671 195.19 254.317 196.181C253.597 198.153 252.489 199.961 251.059 201.498C246.347 207.127 240.225 211.405 233.318 213.893C226.462 216.267 220.11 216.915 213.297 214.418" fill="#4CAF4F"/>
<path d="M256.483 139.55C256.483 139.55 256.418 139.622 256.274 139.751L255.634 140.319C255.073 140.823 254.246 141.557 253.202 142.528C250.245 145.274 247.499 148.239 244.987 151.398C243.383 153.391 241.721 155.65 239.951 158.103C238.181 160.556 236.354 163.204 234.541 166.017C232.608 168.983 230.838 172.052 229.239 175.211C228.405 176.858 227.671 178.577 226.915 180.333L224.685 185.692C221.746 192.443 219.185 199.353 217.016 206.39C215.269 212.147 214.065 218.055 213.419 224.037C213.001 228.073 212.934 232.139 213.218 236.187C213.333 237.626 213.441 238.727 213.542 239.475C213.585 239.835 213.614 240.123 213.642 240.331V240.626C213.611 240.533 213.59 240.436 213.578 240.338C213.542 240.13 213.498 239.849 213.441 239.489C213.311 238.77 213.175 237.633 213.045 236.195C212.698 232.139 212.722 228.059 213.117 224.008C213.723 218.001 214.901 212.065 216.635 206.282C218.786 199.225 221.339 192.298 224.282 185.534L226.57 180.196C227.325 178.448 228.066 176.714 228.908 175.059C230.519 171.891 232.303 168.815 234.253 165.844C236.095 162.966 237.951 160.362 239.699 157.93C241.447 155.499 243.138 153.225 244.735 151.24C247.272 148.089 250.056 145.145 253.059 142.434C254.123 141.478 254.972 140.758 255.548 140.276L256.217 139.737C256.299 139.665 256.388 139.603 256.483 139.55Z" fill="#263238"/>
<path d="M229.002 175.045C228.9 174.749 228.83 174.442 228.793 174.131C228.678 173.534 228.549 172.693 228.398 171.599C228.088 169.441 227.772 166.484 227.434 163.211C227.095 159.938 226.714 156.974 226.398 154.837C226.232 153.772 226.088 152.916 225.988 152.319C225.909 152.013 225.868 151.699 225.865 151.384C225.989 151.672 226.078 151.974 226.131 152.283C226.29 152.873 226.47 153.722 226.671 154.794C227.081 156.952 227.484 159.887 227.822 163.168C228.16 166.448 228.448 169.326 228.671 171.563C228.779 172.57 228.872 173.426 228.944 174.11C229 174.418 229.019 174.732 229.002 175.045Z" fill="#263238"/>
<path d="M256.685 169.88C256.334 169.956 255.978 169.999 255.62 170.009C254.9 170.074 253.879 170.16 252.613 170.304C250.08 170.578 246.598 171.081 242.778 171.801C238.958 172.52 235.527 173.333 233.059 173.959C231.829 174.275 230.836 174.563 230.182 174.757C229.832 174.882 229.47 174.968 229.103 175.016C229.435 174.849 229.782 174.712 230.138 174.606C230.815 174.369 231.793 174.038 233.016 173.685C235.469 172.966 238.901 172.11 242.735 171.376C245.983 170.755 249.261 170.299 252.555 170.009C253.829 169.901 254.857 169.858 255.577 169.844C255.946 169.819 256.317 169.831 256.685 169.88Z" fill="#263238"/>
<path d="M216.988 205.778C216.911 205.674 216.848 205.56 216.801 205.44L216.326 204.44C215.916 203.57 215.362 202.282 214.7 200.706C213.362 197.541 211.657 193.109 209.844 188.189C208.031 183.268 206.362 178.836 205.096 175.635C204.477 174.081 203.967 172.808 203.585 171.858L203.182 170.829C203.127 170.711 203.088 170.585 203.067 170.455C203.144 170.559 203.207 170.673 203.254 170.793L203.729 171.793C204.132 172.664 204.693 173.952 205.355 175.527C206.693 178.693 208.398 183.124 210.211 188.045C212.024 192.966 213.693 197.397 214.959 200.598C215.578 202.152 216.089 203.426 216.463 204.375C216.628 204.785 216.765 205.095 216.873 205.404C216.929 205.523 216.967 205.649 216.988 205.778Z" fill="#263238"/>
<path d="M253.735 193.929C253.62 193.996 253.496 194.046 253.368 194.081L252.303 194.44L248.368 195.714C245.045 196.793 240.455 198.332 235.419 200.03C230.383 201.728 225.772 203.239 222.426 204.246C220.757 204.757 219.398 205.145 218.455 205.404L217.369 205.685C217.243 205.725 217.112 205.751 216.98 205.764C217.096 205.698 217.219 205.647 217.347 205.613L218.412 205.253L222.347 203.98C225.671 202.9 230.261 201.361 235.297 199.663C240.332 197.965 244.937 196.455 248.282 195.447C249.958 194.937 251.311 194.548 252.26 194.289L253.346 194.009C253.473 193.968 253.603 193.942 253.735 193.929Z" fill="#263238"/>
<path d="M238.742 19.4234L235.037 20.7471L233.447 15.9055C230.526 6.97765 221.217 2.23676 212.664 5.25107C204.11 8.26538 199.556 18.0565 202.477 26.9843L204.067 31.8259L200.347 33.1568C198.929 33.7069 197.777 34.7824 197.132 36.1597C196.486 37.537 196.396 39.1103 196.88 40.5523L207.189 72.0551C207.403 72.769 207.758 73.4326 208.234 74.0065C208.709 74.5803 209.295 75.0527 209.957 75.3957C210.619 75.7386 211.342 75.945 212.085 76.0027C212.829 76.0603 213.576 75.968 214.282 75.7313L252.677 61.9978C254.114 61.4487 255.282 60.3637 255.935 58.971C256.589 57.5783 256.677 55.9865 256.18 54.5304L245.864 23.0276C245.645 22.3157 245.284 21.6553 244.804 21.0859C244.323 20.5165 243.733 20.0496 243.068 19.7133C242.404 19.3769 241.678 19.1778 240.935 19.128C240.191 19.0782 239.446 19.1787 238.742 19.4234ZM209.477 24.4592C208.689 22.1378 208.83 19.6018 209.871 17.3823C210.912 15.1629 212.771 13.4322 215.059 12.553C216.189 12.1665 217.385 12.0114 218.576 12.0972C219.768 12.183 220.929 12.5078 221.992 13.0524C223.055 13.5969 223.997 14.3499 224.763 15.2665C225.528 16.1831 226.101 17.2445 226.447 18.3874L228.03 23.229L211.059 29.3008L209.477 24.4592ZM231.059 52.4153L233.692 60.4583C233.74 60.6196 233.725 60.7933 233.648 60.9433C233.572 61.0934 233.441 61.2082 233.282 61.264L229.591 62.5806C229.444 62.6213 229.287 62.6036 229.153 62.5312C229.019 62.4587 228.918 62.3372 228.872 62.1921L226.217 54.1851C224.753 54.1053 223.349 53.5803 222.192 52.6803C221.035 51.7803 220.18 50.5483 219.743 49.1492C219.117 47.2996 219.231 45.2796 220.061 43.5122C220.891 41.7448 222.373 40.3671 224.196 39.6675C225.096 39.3599 226.048 39.2368 226.997 39.3053C227.946 39.3738 228.871 39.6326 229.718 40.0663C230.564 40.5 231.315 41.0996 231.925 41.8295C232.534 42.5595 232.991 43.4047 233.267 44.3148C233.73 45.736 233.769 47.2614 233.377 48.7041C232.986 50.1467 232.183 51.444 231.066 52.4369L231.059 52.4153Z" fill="#4CAF4F"/>
<path d="M234.872 20.6608C234.872 20.7615 228.002 23.3441 219.455 26.416C210.909 29.4879 203.937 31.9554 203.902 31.8835C203.866 31.8116 210.772 29.2073 219.326 26.1282C227.879 23.0492 234.836 20.5672 234.872 20.6608Z" fill="#263238"/>
<path d="M243.03 21.9844C243.061 22.0468 243.088 22.1118 243.109 22.1786C243.166 22.3225 243.231 22.5095 243.317 22.7398C243.504 23.2649 243.763 23.9915 244.087 24.898L246.85 32.9409C248.001 36.3509 249.375 40.394 250.9 44.8831C251.619 47.1348 252.468 49.4801 253.26 51.9476C253.683 53.2192 253.866 54.5586 253.799 55.8972C253.738 56.5933 253.54 57.2706 253.216 57.8899C252.871 58.5072 252.409 59.052 251.857 59.4942C250.745 60.3055 249.512 60.9345 248.202 61.3575L244.497 62.6884L237.483 65.1991L225.606 69.4292L217.584 72.2493L215.426 72.9687L214.85 73.1557C214.789 73.1831 214.723 73.2001 214.656 73.2061C214.656 73.2061 214.714 73.2061 214.836 73.1198L215.397 72.8967L217.555 72.0838L225.534 69.1486L237.389 64.8322L244.389 62.2999L248.094 60.9618C249.367 60.556 250.564 59.9462 251.641 59.1561C252.155 58.7457 252.585 58.2401 252.907 57.6669C253.212 57.0941 253.395 56.4648 253.447 55.818C253.513 54.5283 253.337 53.2375 252.929 52.0124C252.152 49.5664 251.332 47.1996 250.591 44.9478C249.094 40.4515 247.713 36.3941 246.619 32.9841C245.526 29.5741 244.605 26.8332 243.972 24.9052C243.67 23.9627 243.44 23.2289 243.253 22.6966L243.08 22.1211C243.058 22.0775 243.041 22.0316 243.03 21.9844Z" fill="#263238"/>
<path d="M222.771 12.0639C222.771 12.0639 222.39 11.8769 221.685 11.5891C220.68 11.203 219.617 10.989 218.541 10.956C216.946 10.9013 215.359 11.2011 213.894 11.8337C212.112 12.6214 210.588 13.8956 209.498 15.5099C208.4 17.1196 207.811 19.0218 207.807 20.9702C207.822 22.5671 208.065 24.1537 208.527 25.6823C208.901 26.9916 209.289 28.0347 209.548 28.7613C209.701 29.1304 209.826 29.5103 209.922 29.898C209.718 29.5529 209.547 29.1892 209.412 28.8117C209.117 28.0923 208.692 27.0707 208.275 25.7542C207.763 24.2096 207.484 22.5971 207.448 20.9702C207.429 18.9482 208.031 16.9692 209.174 15.3012C210.303 13.628 211.888 12.3144 213.743 11.5172C215.253 10.8811 216.89 10.6005 218.527 10.697C219.626 10.7531 220.706 11.0091 221.714 11.4524C221.983 11.5767 222.243 11.721 222.49 11.8841C222.593 11.929 222.687 11.9897 222.771 12.0639Z" fill="#263238"/>
<path d="M223.102 40.2142C223.217 40.1446 223.337 40.0844 223.462 40.0343C223.822 39.8718 224.195 39.7395 224.577 39.6386C225.183 39.4597 225.809 39.3534 226.44 39.3221C227.299 39.2759 228.158 39.4057 228.965 39.7034C230.807 40.3508 232.498 42.2285 233.332 44.7392C233.732 46.0866 233.732 47.5212 233.332 48.8686C232.888 50.331 232.093 51.6624 231.016 52.7462L231.059 52.552C232.016 55.1778 233.059 58.0267 234.138 60.9978L234.203 61.1777L234.023 61.2424L232.375 61.7892L228.778 62.9906L228.598 63.0481L228.541 62.8683C227.555 59.8899 226.476 57.113 225.663 54.3865L225.822 54.5088C224.415 54.3919 223.074 53.8641 221.966 52.9908C220.963 52.2183 220.14 51.2362 219.556 50.1132C219.028 49.1173 218.766 48.0025 218.793 46.8759C218.826 45.7244 219.114 44.5946 219.635 43.5673C220.156 42.5399 220.898 41.6406 221.807 40.9336C222.182 40.6297 222.602 40.3869 223.052 40.2142C222.645 40.4553 222.252 40.717 221.872 40.9983C220.873 41.8435 220.108 42.9309 219.649 44.1565C219.255 45.0807 219.071 46.0805 219.11 47.0843C219.148 48.0881 219.409 49.0708 219.872 49.9621C220.447 51.0425 221.249 51.9851 222.225 52.7246C223.282 53.5547 224.561 54.0551 225.901 54.1634H226.023L226.059 54.2714C226.85 56.9475 227.937 59.746 228.937 62.7388L228.699 62.6237L232.296 61.4223L233.936 60.8683L233.821 61.1129C232.749 58.1418 231.714 55.2857 230.764 52.6599V52.552L230.85 52.4656C231.896 51.4267 232.676 50.1509 233.124 48.7463C233.505 47.4574 233.505 46.0856 233.124 44.7968C232.339 42.3796 230.721 40.5451 228.965 39.8976C228.188 39.598 227.359 39.4585 226.527 39.4876C225.905 39.5018 225.287 39.5863 224.685 39.7393C223.613 40.0055 223.109 40.2501 223.102 40.2142Z" fill="#263238"/>
<path d="M200.865 247.935L129.003 247.604C124.853 247.582 120.882 245.913 117.962 242.964C115.041 240.015 113.411 236.028 113.428 231.878L114.19 51.7317C114.199 49.6757 114.613 47.6415 115.408 45.7454C116.203 43.8493 117.364 42.1285 118.824 40.6814C120.285 39.2342 122.016 38.0891 123.919 37.3115C125.823 36.5338 127.861 36.139 129.917 36.1494L201.771 36.4803C205.921 36.5012 209.893 38.1684 212.815 41.1157C215.736 44.063 217.369 48.0494 217.353 52.1993L216.591 232.339C216.582 234.395 216.169 236.43 215.374 238.327C214.579 240.224 213.418 241.946 211.958 243.394C210.498 244.842 208.766 245.989 206.863 246.768C204.959 247.547 202.921 247.944 200.865 247.935Z" fill="#455A64"/>
<path d="M201.662 42.6745H187.734C187.28 42.6829 186.832 42.7808 186.415 42.9625C185.998 43.1442 185.622 43.4062 185.306 43.7336C184.991 44.0609 184.743 44.4472 184.577 44.8703C184.411 45.2934 184.33 45.7451 184.339 46.1996V48.7247C184.347 49.1788 184.266 49.6301 184.1 50.0528C183.934 50.4755 183.686 50.8613 183.371 51.1881C183.055 51.5149 182.679 51.7762 182.262 51.9571C181.846 52.1381 181.397 52.2351 180.943 52.2426L153.793 52.1203C152.874 52.0958 152.003 51.7078 151.371 51.0414C150.738 50.3751 150.396 49.4849 150.419 48.5664V46.0413C150.442 45.124 150.101 44.2349 149.47 43.5688C148.839 42.9026 147.969 42.5138 147.052 42.4874H142.153L129.959 42.4299C127.059 42.4126 124.27 43.5453 122.203 45.58C120.136 47.6146 118.959 50.3854 118.93 53.2857L118.211 229.123C118.204 230.562 118.481 231.988 119.026 233.32C119.57 234.652 120.372 235.863 121.385 236.885C122.397 237.907 123.601 238.72 124.928 239.277C126.255 239.833 127.678 240.123 129.117 240.13L200.828 240.461C202.267 240.467 203.694 240.19 205.027 239.646C206.36 239.101 207.572 238.299 208.595 237.285C209.618 236.272 210.431 235.067 210.988 233.739C211.545 232.412 211.835 230.987 211.842 229.547L212.561 53.7102C212.578 50.8017 211.44 48.0054 209.396 45.936C207.352 43.8667 204.571 42.6935 201.662 42.6745Z" fill="white"/>
<path d="M192.016 217.001L138.694 216.771C138.14 216.771 137.694 216.166 137.701 215.433L137.759 201.483C137.759 200.764 138.212 200.145 138.766 200.145L192.088 200.39C192.395 200.443 192.67 200.612 192.855 200.863C193.04 201.114 193.121 201.426 193.081 201.735L193.031 215.67C193.031 216.411 192.57 217.008 192.016 217.001Z" fill="#4CAF4F"/>
<path d="M154.906 210.324C154.611 210.324 154.328 210.277 154.057 210.182C153.789 210.084 153.581 209.96 153.434 209.809L153.598 209.486C153.738 209.622 153.925 209.737 154.158 209.831C154.396 209.922 154.645 209.967 154.906 209.967C155.155 209.967 155.356 209.937 155.511 209.877C155.67 209.812 155.785 209.728 155.856 209.622C155.932 209.516 155.97 209.399 155.97 209.271C155.97 209.116 155.924 208.992 155.834 208.897C155.747 208.803 155.632 208.73 155.489 208.677C155.345 208.62 155.187 208.571 155.013 208.53C154.84 208.488 154.666 208.445 154.492 208.399C154.319 208.35 154.158 208.286 154.011 208.207C153.868 208.128 153.751 208.024 153.66 207.896C153.574 207.764 153.53 207.592 153.53 207.381C153.53 207.184 153.581 207.005 153.683 206.843C153.789 206.677 153.949 206.545 154.164 206.447C154.379 206.345 154.655 206.294 154.99 206.294C155.213 206.294 155.434 206.326 155.653 206.39C155.872 206.45 156.06 206.535 156.219 206.645L156.077 206.979C155.907 206.866 155.726 206.783 155.534 206.73C155.345 206.677 155.162 206.65 154.985 206.65C154.747 206.65 154.551 206.683 154.396 206.747C154.241 206.811 154.126 206.898 154.051 207.007C153.979 207.113 153.943 207.233 153.943 207.369C153.943 207.524 153.987 207.648 154.074 207.743C154.164 207.837 154.281 207.911 154.424 207.964C154.572 208.016 154.732 208.064 154.906 208.105C155.079 208.147 155.251 208.192 155.421 208.241C155.594 208.29 155.753 208.354 155.896 208.433C156.043 208.509 156.16 208.611 156.247 208.739C156.338 208.867 156.383 209.035 156.383 209.243C156.383 209.435 156.33 209.614 156.224 209.78C156.119 209.943 155.956 210.075 155.738 210.177C155.523 210.275 155.245 210.324 154.906 210.324ZM157.295 210.29V206.328H157.714V210.29H157.295ZM159.003 210.29V206.328H159.349L162.082 209.769H161.901V206.328H162.314V210.29H161.969L159.241 206.849H159.422V210.29H159.003ZM165.345 210.324C165.043 210.324 164.764 210.275 164.507 210.177C164.255 210.075 164.034 209.933 163.845 209.752C163.66 209.571 163.515 209.358 163.409 209.113C163.308 208.867 163.257 208.599 163.257 208.309C163.257 208.018 163.308 207.75 163.409 207.505C163.515 207.26 163.662 207.047 163.851 206.866C164.04 206.684 164.26 206.545 164.513 206.447C164.77 206.345 165.049 206.294 165.351 206.294C165.653 206.294 165.928 206.341 166.177 206.435C166.43 206.53 166.645 206.673 166.822 206.866L166.562 207.132C166.396 206.966 166.213 206.847 166.013 206.775C165.813 206.703 165.598 206.667 165.368 206.667C165.123 206.667 164.896 206.709 164.689 206.792C164.485 206.871 164.306 206.986 164.151 207.137C164 207.284 163.881 207.458 163.794 207.658C163.711 207.854 163.67 208.071 163.67 208.309C163.67 208.543 163.711 208.76 163.794 208.96C163.881 209.16 164 209.335 164.151 209.486C164.306 209.633 164.485 209.748 164.689 209.831C164.896 209.911 165.121 209.95 165.362 209.95C165.589 209.95 165.802 209.916 166.002 209.848C166.205 209.78 166.392 209.665 166.562 209.503L166.8 209.82C166.611 209.986 166.39 210.112 166.138 210.199C165.885 210.282 165.621 210.324 165.345 210.324ZM166.398 209.769V208.309H166.8V209.82L166.398 209.769ZM171.063 210.324C170.557 210.324 170.159 210.178 169.868 209.888C169.578 209.597 169.433 209.167 169.433 208.597V206.328H169.851V208.58C169.851 209.048 169.957 209.394 170.168 209.616C170.38 209.839 170.678 209.95 171.063 209.95C171.451 209.95 171.751 209.839 171.963 209.616C172.174 209.394 172.279 209.048 172.279 208.58V206.328H172.687V208.597C172.687 209.167 172.542 209.597 172.251 209.888C171.964 210.178 171.568 210.324 171.063 210.324ZM173.949 210.29V206.328H175.432C175.768 206.328 176.056 206.383 176.298 206.492C176.539 206.598 176.724 206.752 176.853 206.956C176.985 207.156 177.051 207.399 177.051 207.686C177.051 207.965 176.985 208.207 176.853 208.411C176.724 208.611 176.539 208.765 176.298 208.875C176.056 208.984 175.768 209.039 175.432 209.039H174.181L174.368 208.841V210.29H173.949ZM174.368 208.875L174.181 208.671H175.421C175.817 208.671 176.117 208.586 176.321 208.416C176.528 208.243 176.632 207.999 176.632 207.686C176.632 207.369 176.528 207.124 176.321 206.95C176.117 206.777 175.817 206.69 175.421 206.69H174.181L174.368 206.492V208.875Z" fill="#E8E8E3"/>
<path d="M149.329 94.3637L130.826 94.2798L130.811 97.6753L149.314 97.7593L149.329 94.3637Z" fill="#4CAF4F"/>
<path opacity="0.1" d="M149.329 94.3637L130.826 94.2798L130.811 97.6753L149.314 97.7593L149.329 94.3637Z" fill="black"/>
<path d="M203.57 115.212C203.716 115.197 203.858 115.164 203.995 115.111C204.194 115.034 204.367 114.901 204.494 114.729C204.621 114.558 204.698 114.353 204.714 114.14C204.714 112.996 204.714 111.327 204.714 109.184C204.714 108.112 204.714 106.91 204.714 105.587C204.714 105.263 204.714 104.925 204.714 104.587C204.761 104.258 204.69 103.924 204.513 103.644C204.414 103.51 204.285 103.4 204.136 103.324C203.988 103.248 203.823 103.207 203.657 103.205H202.534H192.139L131.968 102.982C131.814 102.98 131.661 103.014 131.524 103.083C131.386 103.152 131.267 103.253 131.176 103.378C131.003 103.659 130.936 103.994 130.989 104.32C130.989 105.04 130.989 105.759 130.989 106.479C130.989 107.917 130.989 109.356 130.989 110.795C130.989 111.514 130.989 112.234 130.989 112.953C130.959 113.288 130.959 113.625 130.989 113.96C131.027 114.104 131.097 114.237 131.195 114.349C131.292 114.462 131.414 114.55 131.55 114.608C131.692 114.664 131.844 114.691 131.997 114.687H135.658L151.636 114.773L178.686 114.939L196.923 115.083L201.88 115.14H203.167C203.462 115.14 203.606 115.14 203.606 115.14H203.167H201.88H196.923H178.686L151.636 115.054L135.658 114.989H131.997C131.795 114.997 131.594 114.963 131.407 114.888C131.217 114.808 131.049 114.685 130.914 114.529C130.779 114.373 130.682 114.188 130.63 113.989C130.588 113.8 130.573 113.607 130.586 113.414V112.881C130.586 112.162 130.586 111.442 130.586 110.723C130.586 109.284 130.586 107.845 130.586 106.407C130.586 105.687 130.586 104.968 130.586 104.248C130.573 104.057 130.573 103.864 130.586 103.673C130.613 103.461 130.695 103.26 130.824 103.09C130.948 102.917 131.112 102.775 131.303 102.679C131.493 102.583 131.704 102.534 131.917 102.536L192.089 102.867L202.484 102.939H203.606C203.804 102.939 203.999 102.987 204.174 103.078C204.349 103.17 204.5 103.302 204.613 103.464C204.816 103.777 204.898 104.153 204.844 104.522C204.844 104.86 204.844 105.198 204.844 105.522C204.844 106.831 204.844 108.032 204.844 109.119C204.844 111.277 204.793 112.932 204.779 114.083C204.761 114.304 204.681 114.516 204.547 114.693C204.413 114.87 204.232 115.005 204.023 115.083C203.887 115.167 203.73 115.212 203.57 115.212Z" fill="#E0E0E0"/>
<path d="M170.226 106.594H136.385V109.766H170.226V106.594Z" fill="#4CAF4F"/>
<path opacity="0.2" d="M170.226 106.594H136.385V109.766H170.226V106.594Z" fill="white"/>
<path d="M149.202 125.341L130.699 125.257L130.684 128.652L149.187 128.736L149.202 125.341Z" fill="#4CAF4F"/>
<path opacity="0.1" d="M149.202 125.341L130.699 125.257L130.684 128.652L149.187 128.736L149.202 125.341Z" fill="black"/>
<path d="M203.101 146.19C203.246 146.172 203.391 146.146 203.533 146.111C203.734 146.047 203.919 145.94 204.075 145.799C204.231 145.657 204.356 145.484 204.439 145.291C204.553 145 204.597 144.687 204.569 144.377C204.569 144.032 204.569 143.658 204.569 143.24C204.569 142.406 204.569 141.456 204.569 140.363V135.794C204.603 135.464 204.53 135.131 204.36 134.845C204.183 134.552 203.904 134.334 203.576 134.233C203.218 134.169 202.853 134.15 202.49 134.176H192.137L132.175 133.953C131.852 133.953 131.541 134.071 131.299 134.284C131.057 134.497 130.9 134.791 130.858 135.111C130.858 135.794 130.858 136.55 130.858 137.269C130.858 138.708 130.858 140.147 130.858 141.586C130.858 142.305 130.858 143.024 130.858 143.744C130.832 144.08 130.846 144.418 130.902 144.751C130.991 145.043 131.176 145.296 131.427 145.47C131.692 145.639 132.005 145.72 132.319 145.701H133.319H135.398L151.318 145.78L178.274 145.945L196.447 146.089L201.389 146.147H196.447H178.274L151.304 146.118L135.383 146.06H132.254C131.865 146.083 131.479 145.98 131.153 145.765C130.826 145.539 130.587 145.206 130.477 144.823C130.413 144.457 130.393 144.085 130.42 143.715C130.42 142.996 130.42 142.276 130.42 141.557C130.42 140.118 130.42 138.679 130.42 137.24C130.42 136.521 130.42 135.802 130.42 135.082C130.472 134.671 130.673 134.293 130.984 134.019C131.295 133.744 131.695 133.593 132.11 133.593L192.073 133.924L202.425 134.003C202.81 133.979 203.197 134.006 203.576 134.082C203.95 134.204 204.265 134.461 204.461 134.802C204.647 135.118 204.728 135.486 204.691 135.852C204.691 136.19 204.691 136.521 204.691 136.852C204.691 138.154 204.691 139.348 204.691 140.449C204.691 141.55 204.691 142.478 204.691 143.327C204.691 143.737 204.691 144.118 204.691 144.47C204.717 144.792 204.665 145.115 204.54 145.413C204.447 145.611 204.312 145.787 204.144 145.929C203.976 146.07 203.78 146.174 203.569 146.233C203.412 146.246 203.253 146.231 203.101 146.19Z" fill="#E0E0E0"/>
<path d="M149.063 157.663L130.561 157.579L130.545 160.974L149.048 161.058L149.063 157.663Z" fill="#4CAF4F"/>
<path opacity="0.1" d="M149.063 157.663L130.561 157.579L130.545 160.974L149.048 161.058L149.063 157.663Z" fill="black"/>
<path d="M202.958 178.498C203.104 178.481 203.248 178.455 203.39 178.419C203.59 178.355 203.774 178.25 203.93 178.11C204.087 177.97 204.211 177.798 204.296 177.606C204.409 177.316 204.453 177.003 204.426 176.692C204.426 176.34 204.426 175.973 204.426 175.549C204.426 174.721 204.426 173.765 204.426 172.671V168.103C204.46 167.772 204.387 167.439 204.217 167.153C204.036 166.865 203.758 166.651 203.433 166.549C203.075 166.482 202.71 166.461 202.347 166.484H191.995L132.032 166.261C131.71 166.262 131.398 166.38 131.156 166.593C130.914 166.806 130.757 167.1 130.716 167.419C130.716 168.139 130.716 168.858 130.716 169.578C130.716 171.016 130.716 172.455 130.716 173.894C130.716 174.613 130.716 175.333 130.716 176.052C130.689 176.386 130.703 176.722 130.759 177.052C130.845 177.346 131.031 177.6 131.284 177.772C131.548 177.944 131.861 178.025 132.176 178.002H135.305L151.226 178.088L178.182 178.254L196.354 178.397L201.296 178.455H196.354H178.182L151.226 178.376L135.305 178.311H132.176C131.786 178.337 131.399 178.234 131.075 178.016C130.748 177.789 130.509 177.456 130.399 177.074C130.335 176.708 130.315 176.336 130.341 175.966C130.341 175.246 130.341 174.527 130.341 173.808C130.341 172.369 130.341 170.93 130.341 169.491C130.341 168.772 130.341 168.052 130.341 167.297C130.392 166.886 130.591 166.508 130.901 166.234C131.211 165.96 131.611 165.808 132.025 165.808L191.987 166.139L202.34 166.218C202.725 166.194 203.112 166.221 203.491 166.297C203.864 166.419 204.18 166.675 204.376 167.016C204.562 167.333 204.642 167.701 204.606 168.067C204.606 168.405 204.606 168.743 204.606 169.067C204.606 170.369 204.606 171.563 204.606 172.664C204.606 173.764 204.606 174.693 204.606 175.541C204.606 175.951 204.606 176.333 204.606 176.685C204.633 177.007 204.581 177.331 204.455 177.628C204.361 177.826 204.226 178.002 204.059 178.144C203.891 178.285 203.695 178.389 203.483 178.448C203.315 178.506 203.135 178.523 202.958 178.498Z" fill="#E0E0E0"/>
<path d="M169.503 138.468L135.662 138.315L135.648 141.487L169.488 141.641L169.503 138.468Z" fill="#4CAF4F"/>
<path opacity="0.2" d="M169.503 138.468L135.662 138.315L135.648 141.487L169.488 141.641L169.503 138.468Z" fill="white"/>
<path d="M138.722 172.628C138.7 172.917 138.595 173.194 138.418 173.424C138.241 173.654 138 173.827 137.726 173.921C137.451 174.015 137.155 174.027 136.874 173.955C136.593 173.882 136.34 173.729 136.145 173.514C135.95 173.299 135.823 173.031 135.779 172.744C135.735 172.458 135.776 172.164 135.897 171.901C136.018 171.637 136.214 171.415 136.461 171.261C136.707 171.108 136.993 171.03 137.283 171.038C137.684 171.06 138.06 171.24 138.329 171.538C138.598 171.835 138.739 172.227 138.722 172.628Z" fill="#4CAF4F"/>
<path d="M143.304 172.65C143.318 172.852 143.291 173.056 143.223 173.248C143.155 173.439 143.048 173.615 142.91 173.764C142.771 173.912 142.603 174.031 142.417 174.112C142.23 174.193 142.029 174.235 141.826 174.235C141.622 174.235 141.421 174.193 141.235 174.112C141.048 174.031 140.881 173.912 140.742 173.764C140.603 173.615 140.497 173.439 140.429 173.248C140.361 173.056 140.333 172.852 140.347 172.65C140.333 172.447 140.361 172.243 140.429 172.052C140.497 171.86 140.603 171.684 140.742 171.536C140.881 171.387 141.048 171.268 141.235 171.187C141.421 171.106 141.622 171.064 141.826 171.064C142.029 171.064 142.23 171.106 142.417 171.187C142.603 171.268 142.771 171.387 142.91 171.536C143.048 171.684 143.155 171.86 143.223 172.052C143.291 172.243 143.318 172.447 143.304 172.65Z" fill="#4CAF4F"/>
<path d="M147.896 172.671C147.874 172.96 147.769 173.237 147.592 173.467C147.414 173.697 147.174 173.87 146.899 173.964C146.625 174.058 146.329 174.07 146.048 173.998C145.767 173.925 145.513 173.772 145.319 173.557C145.124 173.342 144.997 173.074 144.953 172.787C144.909 172.501 144.95 172.207 145.071 171.944C145.192 171.68 145.388 171.458 145.634 171.304C145.881 171.151 146.167 171.073 146.457 171.081C146.857 171.105 147.232 171.285 147.501 171.582C147.77 171.88 147.911 172.27 147.896 172.671Z" fill="#4CAF4F"/>
<path d="M152.478 172.693C152.456 172.982 152.351 173.259 152.174 173.489C151.996 173.719 151.756 173.891 151.481 173.986C151.207 174.08 150.911 174.092 150.63 174.019C150.349 173.947 150.095 173.794 149.901 173.579C149.706 173.364 149.579 173.096 149.535 172.809C149.491 172.522 149.532 172.229 149.653 171.965C149.774 171.702 149.97 171.479 150.216 171.326C150.463 171.173 150.749 171.095 151.039 171.103C151.439 171.127 151.814 171.307 152.083 171.604C152.352 171.901 152.493 172.292 152.478 172.693Z" fill="#4CAF4F"/>
<path d="M157.06 172.707C157.04 172.997 156.936 173.274 156.759 173.505C156.583 173.736 156.343 173.91 156.068 174.005C155.794 174.101 155.498 174.114 155.216 174.042C154.935 173.97 154.68 173.818 154.485 173.603C154.29 173.388 154.162 173.12 154.117 172.833C154.073 172.546 154.113 172.252 154.234 171.988C154.356 171.724 154.552 171.501 154.798 171.348C155.045 171.194 155.331 171.117 155.621 171.124C156.02 171.148 156.394 171.327 156.663 171.623C156.931 171.919 157.074 172.308 157.06 172.707Z" fill="#4CAF4F"/>
<path d="M161.65 172.729C161.63 173.017 161.527 173.293 161.352 173.524C161.178 173.754 160.939 173.928 160.667 174.025C160.395 174.121 160.1 174.136 159.819 174.068C159.539 173.999 159.284 173.85 159.087 173.638C158.89 173.427 158.759 173.162 158.711 172.878C158.662 172.593 158.698 172.3 158.813 172.035C158.929 171.77 159.119 171.545 159.361 171.387C159.603 171.229 159.886 171.145 160.175 171.146C160.58 171.161 160.963 171.336 161.24 171.633C161.516 171.929 161.664 172.323 161.65 172.729Z" fill="#4CAF4F"/>
<path d="M166.232 172.75C166.246 172.953 166.218 173.157 166.15 173.348C166.082 173.54 165.976 173.715 165.837 173.864C165.699 174.013 165.531 174.131 165.344 174.212C165.158 174.294 164.957 174.335 164.753 174.335C164.55 174.335 164.349 174.294 164.163 174.212C163.976 174.131 163.808 174.013 163.67 173.864C163.531 173.715 163.424 173.54 163.357 173.348C163.289 173.157 163.261 172.953 163.275 172.75C163.261 172.547 163.289 172.344 163.357 172.152C163.424 171.961 163.531 171.785 163.67 171.636C163.808 171.488 163.976 171.369 164.163 171.288C164.349 171.207 164.55 171.165 164.753 171.165C164.957 171.165 165.158 171.207 165.344 171.288C165.531 171.369 165.699 171.488 165.837 171.636C165.976 171.785 166.082 171.961 166.15 172.152C166.218 172.344 166.246 172.547 166.232 172.75Z" fill="#4CAF4F"/>
<path d="M170.815 172.772C170.795 173.06 170.692 173.336 170.517 173.567C170.343 173.797 170.104 173.971 169.832 174.068C169.56 174.164 169.265 174.179 168.984 174.111C168.704 174.042 168.449 173.893 168.252 173.681C168.055 173.47 167.924 173.206 167.876 172.921C167.827 172.636 167.863 172.343 167.978 172.078C168.094 171.813 168.284 171.588 168.526 171.43C168.768 171.272 169.051 171.188 169.34 171.189C169.745 171.204 170.128 171.379 170.405 171.676C170.681 171.973 170.829 172.367 170.815 172.772Z" fill="#4CAF4F"/>
<path d="M175.398 172.793C175.378 173.083 175.274 173.361 175.097 173.592C174.921 173.823 174.681 173.996 174.406 174.092C174.132 174.187 173.836 174.2 173.554 174.128C173.273 174.057 173.018 173.904 172.823 173.689C172.627 173.474 172.5 173.206 172.455 172.919C172.41 172.632 172.451 172.339 172.572 172.075C172.693 171.81 172.889 171.588 173.136 171.434C173.383 171.281 173.669 171.203 173.959 171.211C174.358 171.235 174.732 171.414 175 171.71C175.269 172.005 175.412 172.394 175.398 172.793Z" fill="#4CAF4F"/>
<g opacity="0.2">
<path d="M138.722 172.628C138.7 172.917 138.595 173.194 138.418 173.424C138.241 173.654 138 173.827 137.726 173.921C137.451 174.015 137.155 174.027 136.874 173.955C136.593 173.882 136.34 173.729 136.145 173.514C135.95 173.299 135.823 173.031 135.779 172.744C135.735 172.458 135.776 172.164 135.897 171.901C136.018 171.637 136.214 171.415 136.461 171.261C136.707 171.108 136.993 171.03 137.283 171.038C137.684 171.06 138.06 171.24 138.329 171.538C138.598 171.835 138.739 172.227 138.722 172.628Z" fill="white"/>
<path d="M143.304 172.65C143.318 172.852 143.291 173.056 143.223 173.248C143.155 173.439 143.048 173.615 142.91 173.764C142.771 173.912 142.603 174.031 142.417 174.112C142.23 174.193 142.029 174.235 141.826 174.235C141.622 174.235 141.421 174.193 141.235 174.112C141.048 174.031 140.881 173.912 140.742 173.764C140.603 173.615 140.497 173.439 140.429 173.248C140.361 173.056 140.333 172.852 140.347 172.65C140.333 172.447 140.361 172.243 140.429 172.052C140.497 171.86 140.603 171.684 140.742 171.536C140.881 171.387 141.048 171.268 141.235 171.187C141.421 171.106 141.622 171.064 141.826 171.064C142.029 171.064 142.23 171.106 142.417 171.187C142.603 171.268 142.771 171.387 142.91 171.536C143.048 171.684 143.155 171.86 143.223 172.052C143.291 172.243 143.318 172.447 143.304 172.65Z" fill="white"/>
<path d="M147.894 172.671C147.872 172.961 147.767 173.237 147.59 173.467C147.412 173.697 147.172 173.87 146.897 173.964C146.623 174.059 146.327 174.07 146.046 173.998C145.765 173.926 145.511 173.772 145.317 173.557C145.122 173.342 144.995 173.074 144.951 172.788C144.907 172.501 144.948 172.207 145.069 171.944C145.19 171.68 145.386 171.458 145.632 171.305C145.879 171.151 146.165 171.074 146.455 171.081C146.855 171.105 147.23 171.285 147.499 171.583C147.768 171.88 147.909 172.271 147.894 172.671Z" fill="white"/>
<path d="M152.478 172.693C152.456 172.982 152.351 173.259 152.174 173.489C151.996 173.719 151.756 173.891 151.481 173.986C151.207 174.08 150.911 174.092 150.63 174.019C150.349 173.947 150.095 173.794 149.901 173.579C149.706 173.364 149.579 173.096 149.535 172.809C149.491 172.522 149.532 172.229 149.653 171.965C149.774 171.702 149.97 171.479 150.216 171.326C150.463 171.173 150.749 171.095 151.039 171.103C151.439 171.127 151.814 171.307 152.083 171.604C152.352 171.901 152.493 172.292 152.478 172.693Z" fill="white"/>
<path d="M157.06 172.707C157.04 172.997 156.936 173.275 156.759 173.506C156.583 173.736 156.343 173.91 156.068 174.006C155.794 174.101 155.498 174.114 155.216 174.042C154.935 173.971 154.68 173.818 154.485 173.603C154.29 173.388 154.162 173.12 154.117 172.833C154.073 172.546 154.113 172.252 154.234 171.988C154.356 171.724 154.552 171.502 154.798 171.348C155.045 171.195 155.331 171.117 155.621 171.125C156.02 171.149 156.394 171.328 156.663 171.623C156.931 171.919 157.074 172.308 157.06 172.707Z" fill="white"/>
<path d="M161.65 172.729C161.63 173.017 161.527 173.293 161.352 173.524C161.178 173.754 160.939 173.928 160.667 174.025C160.395 174.121 160.1 174.136 159.819 174.068C159.539 173.999 159.284 173.85 159.087 173.638C158.89 173.427 158.759 173.162 158.711 172.878C158.662 172.593 158.698 172.3 158.813 172.035C158.929 171.77 159.119 171.545 159.361 171.387C159.603 171.229 159.886 171.145 160.175 171.146C160.58 171.161 160.963 171.336 161.24 171.633C161.516 171.929 161.664 172.323 161.65 172.729Z" fill="white"/>
<path d="M166.232 172.75C166.246 172.953 166.218 173.157 166.15 173.348C166.082 173.54 165.976 173.715 165.837 173.864C165.699 174.013 165.531 174.131 165.344 174.212C165.158 174.294 164.957 174.335 164.753 174.335C164.55 174.335 164.349 174.294 164.163 174.212C163.976 174.131 163.808 174.013 163.67 173.864C163.531 173.715 163.424 173.54 163.357 173.348C163.289 173.157 163.261 172.953 163.275 172.75C163.261 172.547 163.289 172.344 163.357 172.152C163.424 171.961 163.531 171.785 163.67 171.636C163.808 171.488 163.976 171.369 164.163 171.288C164.349 171.207 164.55 171.165 164.753 171.165C164.957 171.165 165.158 171.207 165.344 171.288C165.531 171.369 165.699 171.488 165.837 171.636C165.976 171.785 166.082 171.961 166.15 172.152C166.218 172.344 166.246 172.547 166.232 172.75Z" fill="white"/>
<path d="M170.814 172.772C170.794 173.06 170.691 173.336 170.516 173.567C170.342 173.797 170.104 173.971 169.831 174.068C169.559 174.164 169.264 174.179 168.983 174.111C168.703 174.042 168.448 173.893 168.251 173.681C168.054 173.47 167.923 173.206 167.875 172.921C167.826 172.636 167.862 172.343 167.977 172.078C168.093 171.813 168.283 171.588 168.525 171.43C168.767 171.272 169.05 171.188 169.339 171.189C169.744 171.204 170.127 171.379 170.404 171.676C170.68 171.973 170.828 172.367 170.814 172.772Z" fill="white"/>
<path d="M175.397 172.793C175.377 173.083 175.273 173.361 175.096 173.592C174.92 173.823 174.68 173.996 174.405 174.092C174.131 174.187 173.835 174.2 173.553 174.128C173.272 174.057 173.017 173.904 172.822 173.689C172.627 173.474 172.499 173.206 172.454 172.919C172.41 172.632 172.45 172.339 172.571 172.075C172.692 171.81 172.888 171.588 173.135 171.434C173.382 171.281 173.668 171.203 173.958 171.211C174.357 171.235 174.731 171.414 174.999 171.71C175.268 172.005 175.411 172.394 175.397 172.793Z" fill="white"/>
</g>
<path d="M168.887 68.9398C169.387 68.7198 169.811 68.3576 170.106 67.8984C170.402 67.4392 170.556 66.9032 170.549 66.3572C170.567 66.0022 170.514 65.6472 170.391 65.3137C170.268 64.9802 170.078 64.6753 169.833 64.4175C169.589 64.1596 169.294 63.9543 168.967 63.814C168.641 63.6737 168.289 63.6013 167.934 63.6013C167.578 63.6013 167.227 63.6737 166.9 63.814C166.573 63.9543 166.279 64.1596 166.034 64.4175C165.79 64.6753 165.6 64.9802 165.477 65.3137C165.354 65.6472 165.3 66.0022 165.319 66.3572C165.308 66.9087 165.46 67.451 165.757 67.9158C166.055 68.3806 166.483 68.7469 166.988 68.9686C162.959 69.5729 163.139 73.9469 163.139 73.9469L172.664 73.9901C172.664 73.9901 172.887 69.5369 168.887 68.9398Z" fill="#4CAF4F"/>
<path opacity="0.1" d="M168.887 68.9398C169.387 68.7198 169.811 68.3576 170.106 67.8984C170.402 67.4392 170.556 66.9032 170.549 66.3572C170.567 66.0022 170.514 65.6472 170.391 65.3137C170.268 64.9802 170.078 64.6753 169.833 64.4175C169.589 64.1596 169.294 63.9543 168.967 63.814C168.641 63.6737 168.289 63.6013 167.934 63.6013C167.578 63.6013 167.227 63.6737 166.9 63.814C166.573 63.9543 166.279 64.1596 166.034 64.4175C165.79 64.6753 165.6 64.9802 165.477 65.3137C165.354 65.6472 165.3 66.0022 165.319 66.3572C165.308 66.9087 165.46 67.451 165.757 67.9158C166.055 68.3806 166.483 68.7469 166.988 68.9686C162.959 69.5729 163.139 73.9469 163.139 73.9469L172.664 73.9901C172.664 73.9901 172.887 69.5369 168.887 68.9398Z" fill="black"/>
<path d="M184.364 76.8113L150.416 76.6572L150.398 80.7146L184.346 80.8687L184.364 76.8113Z" fill="#4CAF4F"/>
<path opacity="0.2" d="M184.364 76.8113L150.416 76.6572L150.398 80.7146L184.346 80.8687L184.364 76.8113Z" fill="white"/>
<path d="M59.5595 97.8384H59.2214L58.243 97.9104C57.7135 97.9422 57.187 98.0119 56.6675 98.119C56.331 98.1663 55.9973 98.2311 55.6676 98.3132L54.5525 98.6226C52.6546 99.2049 50.8639 100.092 49.2504 101.248C47.1188 102.796 45.3388 104.777 44.0276 107.061C43.2569 108.378 42.6436 109.781 42.2003 111.241C41.7344 112.828 41.4662 114.466 41.4017 116.119C41.3589 116.987 41.3733 117.857 41.4449 118.723C41.4449 119.162 41.5672 119.6 41.6247 120.047C41.6732 120.496 41.7573 120.941 41.8765 121.377C42.5234 124.264 43.836 126.96 45.7096 129.249C47.5832 131.539 49.9659 133.359 52.6676 134.564C54.623 135.408 56.7189 135.879 58.8473 135.953C61.0456 136.073 63.2461 135.758 65.322 135.025L65.9551 134.787H66.0414L66.1133 134.83L75.185 139.434L74.9189 139.665C73.9477 136.658 73.0124 133.744 72.106 130.946V130.838L72.1851 130.758C74.3858 128.542 76.0194 125.827 76.9476 122.845C77.7882 120.118 78.0336 117.243 77.667 114.414C77.3409 111.899 76.5324 109.471 75.2858 107.263C74.2112 105.366 72.8249 103.663 71.1851 102.227C69.8323 101.09 68.3349 100.137 66.732 99.3923C65.5192 98.8693 64.2561 98.4715 62.9623 98.2053L61.5235 97.9679L60.4804 97.8888L59.8473 97.8456H59.6315C59.7032 97.8377 59.7756 97.8377 59.8473 97.8456H60.4876L61.5307 97.8888L62.9695 98.0974C64.2794 98.3441 65.5597 98.7275 66.7896 99.2413C68.42 99.9767 69.9444 100.928 71.3218 102.069C72.9918 103.499 74.4074 105.201 75.5088 107.104C76.7908 109.336 77.6241 111.797 77.962 114.349C78.3589 117.222 78.1307 120.147 77.2929 122.924C76.3587 125.969 74.6998 128.741 72.4585 131.003L72.5017 130.816C73.4081 133.615 74.3505 136.528 75.3289 139.528L75.4656 139.967L75.0555 139.758L65.9838 135.161H66.1421L65.4946 135.399C63.3788 136.143 61.1376 136.466 58.8977 136.348C56.7234 136.265 54.5837 135.778 52.5885 134.909C48.7826 133.279 45.6162 130.447 43.5743 126.845C42.6347 125.181 41.9485 123.387 41.5384 121.521C41.4261 121.074 41.342 120.62 41.2866 120.162C41.2291 119.708 41.1355 119.262 41.114 118.816C40.9193 116.257 41.1898 113.683 41.9125 111.219C42.3669 109.739 42.9973 108.319 43.7902 106.989C45.1327 104.684 46.9497 102.69 49.121 101.141C50.7609 99.9808 52.5817 99.1008 54.5093 98.5363L55.6388 98.2485C55.9712 98.1714 56.3074 98.1114 56.6459 98.0686C57.1708 97.9714 57.7023 97.9137 58.2358 97.896L59.2214 97.86C59.3335 97.8449 59.4465 97.8377 59.5595 97.8384Z" fill="#4CAF4F"/>
<path d="M63.6611 114.615H62.3302L59.4526 110.572V107.917C59.4526 107.917 57.3951 107.788 57.6397 111.263C57.8843 114.737 57.6397 113.852 57.6397 113.852C57.6397 113.852 53.2729 113.852 52.9132 114.248C52.5535 114.644 52.5319 118.86 52.4815 121.212C52.454 121.779 52.6167 122.339 52.9438 122.803C53.271 123.267 53.7438 123.609 54.2872 123.773C54.4395 123.815 54.5968 123.837 54.7548 123.838C55.8483 123.838 61.4094 122.953 61.4094 122.953H63.7043L63.6611 114.615Z" fill="#4CAF4F"/>
<path d="M67.4665 113.903L66.6464 122.996H64.373V114.09L67.4665 113.903Z" fill="#4CAF4F"/>
<path d="M94.581 299.028V292.877L83.5525 292.798L83.459 302.1L84.1424 302.15C87.1855 302.344 99.624 302.632 101.667 301.999C103.94 301.294 94.581 299.028 94.581 299.028Z" fill="#4CAF4F"/>
<path d="M101.925 301.423C101.925 301.524 97.7959 301.61 92.7097 301.61C87.6235 301.61 83.4941 301.524 83.4941 301.423C83.4941 301.323 87.6235 301.236 92.7097 301.236C97.7959 301.236 101.925 301.323 101.925 301.423Z" fill="#263238"/>
<path d="M94.7743 300.287C94.6808 300.236 94.7743 299.912 94.9973 299.567C95.2203 299.222 95.5225 299.078 95.5944 299.15C95.6664 299.222 95.5153 299.495 95.2995 299.79C95.0836 300.085 94.8678 300.337 94.7743 300.287Z" fill="#263238"/>
<path d="M95.4795 300.689C95.3788 300.689 95.4292 300.287 95.645 299.905C95.8608 299.524 96.1486 299.294 96.2277 299.351C96.3068 299.409 96.1773 299.733 95.9759 300.071C95.7745 300.409 95.573 300.725 95.4795 300.689Z" fill="#263238"/>
<path d="M86.818 301.395C86.7749 301.395 86.6094 301.265 86.372 300.992C86.0822 300.64 85.7594 300.317 85.408 300.028C85.0624 299.752 84.6508 299.571 84.2138 299.503C83.8756 299.459 83.6598 299.503 83.6382 299.459C83.6167 299.416 83.8253 299.265 84.221 299.236C84.7431 299.225 85.2525 299.398 85.6598 299.726C86.0413 300.037 86.3631 300.414 86.6094 300.841C86.7749 301.157 86.8612 301.366 86.818 301.395Z" fill="#263238"/>
<path d="M94.8115 299.128C94.8618 299.215 94.6748 299.431 94.3582 299.546C94.0417 299.661 93.7611 299.618 93.7468 299.546C93.7324 299.474 93.9554 299.323 94.2288 299.222C94.5021 299.121 94.7539 299.042 94.8115 299.128Z" fill="#263238"/>
<path d="M94.6383 298.531C94.6383 298.639 94.3505 298.726 93.9764 298.733C93.6023 298.74 93.3074 298.654 93.3146 298.553C93.3218 298.452 93.6167 298.359 93.9764 298.351C94.3361 298.344 94.6239 298.431 94.6383 298.531Z" fill="#263238"/>
<path d="M121.737 299.028V292.877L110.709 292.798L110.615 302.006L111.299 302.056C114.342 302.251 126.787 302.632 128.823 301.999C131.097 301.294 121.737 299.028 121.737 299.028Z" fill="#4CAF4F"/>
<path d="M129.084 301.438C129.084 301.539 124.962 301.625 119.869 301.625C114.775 301.625 110.66 301.539 110.66 301.438C110.66 301.337 114.782 301.251 119.869 301.251C124.955 301.251 129.084 301.337 129.084 301.438Z" fill="#263238"/>
<path d="M121.933 300.287C121.847 300.236 121.933 299.912 122.156 299.567C122.379 299.222 122.682 299.078 122.753 299.15C122.825 299.222 122.674 299.495 122.459 299.79C122.243 300.085 122.027 300.337 121.933 300.287Z" fill="#263238"/>
<path d="M122.638 300.689C122.545 300.689 122.588 300.287 122.811 299.905C123.034 299.524 123.314 299.294 123.394 299.351C123.473 299.409 123.336 299.733 123.135 300.071C122.933 300.409 122.739 300.725 122.638 300.689Z" fill="#263238"/>
<path d="M113.976 301.395C113.933 301.395 113.775 301.265 113.53 300.992C113.24 300.64 112.918 300.317 112.566 300.028C112.221 299.752 111.809 299.571 111.372 299.503C111.041 299.459 110.818 299.503 110.796 299.459C110.775 299.416 110.983 299.265 111.379 299.236C111.901 299.225 112.411 299.398 112.818 299.726C113.202 300.035 113.524 300.413 113.768 300.841C113.933 301.157 114.019 301.366 113.976 301.395Z" fill="#263238"/>
<path d="M121.968 299.128C122.018 299.215 121.831 299.431 121.514 299.546C121.198 299.661 120.917 299.618 120.903 299.546C120.889 299.474 121.112 299.323 121.385 299.222C121.658 299.121 121.91 299.042 121.968 299.128Z" fill="#263238"/>
<path d="M121.811 298.531C121.811 298.639 121.523 298.726 121.149 298.733C120.775 298.74 120.487 298.654 120.494 298.553C120.501 298.452 120.789 298.359 121.149 298.351C121.509 298.344 121.811 298.431 121.811 298.531Z" fill="#263238"/>
<path d="M162.37 116.37C162.083 116.075 161.37 116.219 161.37 116.219C161.442 115.805 161.442 115.382 161.37 114.968C161.241 114.565 160.334 114.644 160.334 114.644C160.293 114.305 160.293 113.962 160.334 113.622C160.342 113.547 160.325 113.472 160.288 113.406C160.251 113.34 160.194 113.288 160.126 113.255C159.697 113.081 159.236 112.997 158.773 113.011C158.219 112.615 160.464 109.471 161.298 108.464C162.133 107.457 161.982 106.673 161.241 106.673C160.73 106.673 158.111 109.694 157.306 110.709C156.5 111.723 154.363 114.543 154.291 112.291C154.219 110.04 153.313 108.342 152.745 108.054C152.176 107.766 151.572 108.443 151.881 109.068C152.153 109.78 152.323 110.526 152.385 111.284C152.463 111.889 152.436 112.502 152.306 113.097C152.067 114.205 151.743 115.292 151.335 116.349H151.277C151.277 116.349 135.58 131.406 134.443 132.478C133.429 133.442 113.026 131.334 108.933 130.902C107.542 130.699 106.137 130.603 104.731 130.615C102.954 130.694 102.638 130.946 100.868 130.967C96.3989 131.017 91.9399 131.409 87.5304 132.14C85.5338 132.479 83.6688 133.361 82.1388 134.688C80.6089 136.015 79.4727 137.736 78.8544 139.665C74.7322 152.542 65.3943 183.023 63.7469 200.145C62.502 202.403 61.3781 204.725 60.38 207.102C59.2218 210.253 59.5024 210.361 59.8908 210.433C60.9412 210.627 62.1354 204.973 62.5814 206.339C63.0275 207.706 60.3153 213.08 61.416 213.238C62.8548 213.44 63.9987 207.483 64.1353 207.008C64.272 206.534 64.9842 206.685 64.8548 207.131C64.6461 207.764 62.6246 214.476 64.0346 214.692C64.8116 214.807 64.8979 213.39 64.8979 213.39C64.8979 213.39 66.3367 206.965 66.9914 207.095C67.6461 207.224 66.9482 211.016 66.6173 212.282C66.2864 213.548 66.7468 214.188 67.423 213.879C67.8834 213.663 68.9841 209.814 69.2863 208.562C69.5884 207.311 70.3438 203.843 71.3582 205.85C72.3725 207.857 73.9121 209.023 74.5452 209.052C74.6878 209.035 74.8223 208.976 74.9312 208.883C75.0402 208.789 75.1187 208.665 75.1566 208.527C75.1945 208.388 75.1902 208.242 75.144 208.106C75.0978 207.97 75.012 207.851 74.8977 207.764C74.3531 207.232 73.8858 206.627 73.5092 205.965C73.1736 205.45 72.9302 204.88 72.7898 204.282C72.4999 203.089 72.3312 201.869 72.2862 200.642L72.1711 199.922C73.7826 191.944 78.4228 168.527 85.1204 153.571L87.8686 159.225L89.0628 163.412L81.7392 181.491L112.976 181.081L108.314 163.139L113.976 144.434C120.098 144.571 135.817 144.801 138.436 143.614C141.73 142.176 158.773 120.651 158.773 120.651C159.884 119.788 160.948 118.866 161.96 117.888C161.96 117.888 162.996 117.018 162.37 116.37Z" fill="#FFBE9D"/>
<path d="M80.365 168.132C81.2715 165.038 85.9261 149.744 85.9261 149.744C85.9261 149.744 88.2138 162.211 87.6095 163.715C87.0536 165.002 86.3969 166.243 85.6455 167.427C80.365 175.463 81.0557 179.484 81.0557 179.484L112.961 178.513C113.033 174.053 110.393 163.679 109.846 162.024C109.3 160.369 111.12 154.952 111.12 154.952C111.12 154.952 114.717 151.291 114.587 149.406C114.519 147.713 114.31 146.028 113.961 144.37L133.385 145.089L132.774 131.924L104.875 129.133C103.904 131.874 95.1201 130.528 95.1201 130.528C85.6383 130.845 85.0484 132.586 81.106 135.651C77.1637 138.715 70.6387 165.017 70.6387 165.017L80.365 168.132Z" fill="#4CAF4F"/>
<path d="M99.2273 165.017C98.6744 165.115 98.1113 165.144 97.5511 165.103C96.508 165.103 95.0763 165.031 93.5008 164.873C91.9253 164.714 90.5009 164.491 89.4866 164.29C88.9273 164.218 88.3788 164.078 87.8535 163.873C88.416 163.873 88.9772 163.926 89.5297 164.031C90.5513 164.161 91.9685 164.34 93.5368 164.499C95.1051 164.657 96.5295 164.765 97.5583 164.837C98.1191 164.844 98.6779 164.904 99.2273 165.017Z" fill="#263238"/>
<path d="M101.415 162.304C100.862 162.575 100.277 162.776 99.6744 162.902C96.8043 163.656 93.8431 164.007 90.8761 163.945C90.2622 163.965 89.6482 163.907 89.0488 163.772C89.6548 163.695 90.2655 163.664 90.8761 163.679C92.0056 163.643 93.5595 163.563 95.2717 163.362C96.9839 163.161 98.509 162.873 99.5881 162.643C100.188 162.483 100.798 162.369 101.415 162.304Z" fill="#263238"/>
<path d="M112.148 150.204C112.134 150.753 112.059 151.298 111.925 151.83C111.738 152.83 111.45 154.197 111.083 155.693C110.717 157.19 110.364 158.571 110.047 159.506C109.92 160.041 109.732 160.56 109.486 161.053C109.526 160.506 109.628 159.965 109.788 159.441C110.062 158.319 110.371 157.024 110.717 155.607C111.062 154.19 111.393 152.895 111.666 151.772C111.764 151.232 111.925 150.706 112.148 150.204Z" fill="#263238"/>
<path d="M80.7023 166.297C79.038 166.04 77.3955 165.658 75.7888 165.153C74.147 164.769 72.5359 164.264 70.9688 163.643C72.6323 163.904 74.2745 164.286 75.8823 164.786C77.5244 165.169 79.1356 165.674 80.7023 166.297Z" fill="#263238"/>
<path d="M114.307 144.211C114.036 144.258 113.758 144.258 113.487 144.211C112.735 144.134 111.998 143.958 111.293 143.686C110.116 143.244 109.044 142.561 108.147 141.68C107.25 140.799 106.548 139.74 106.084 138.571C105.572 137.286 105.353 135.902 105.444 134.521C105.476 133.382 105.817 132.273 106.429 131.313C106.861 130.665 107.504 130.189 108.25 129.967C108.449 129.912 108.654 129.886 108.861 129.888C109.005 129.888 109.077 129.888 109.077 129.888C109.077 129.888 108.775 129.888 108.293 130.082C107.609 130.335 107.029 130.808 106.645 131.428C105.667 132.967 105.393 135.78 106.437 138.406C106.922 139.644 107.682 140.756 108.66 141.658C109.46 142.395 110.383 142.989 111.386 143.413C112.328 143.785 113.307 144.053 114.307 144.211Z" fill="#263238"/>
<path d="M131.075 144.83C130.895 142.624 130.838 140.41 130.903 138.197C130.846 135.987 130.914 133.775 131.104 131.572C131.284 133.775 131.342 135.987 131.277 138.197C131.337 140.41 131.27 142.625 131.075 144.83Z" fill="#263238"/>
<path d="M104.689 129.939C104.768 128.334 104.934 126.521 104.934 126.521C104.934 126.521 108.905 126.083 109.142 121.982C109.38 117.881 109.142 108.421 109.142 108.421L101.948 104.738L93.9629 111.018L95.1931 131.521L102.517 131.989C103.076 132.004 103.62 131.797 104.027 131.413C104.434 131.029 104.672 130.498 104.689 129.939Z" fill="#FFBE9D"/>
<path d="M105.401 118.737C105.401 118.737 105.401 118.816 105.336 118.91C105.283 118.978 105.213 119.032 105.134 119.067C105.055 119.102 104.969 119.117 104.883 119.111C104.422 119.111 103.976 118.579 103.818 117.96C103.743 117.66 103.743 117.347 103.818 117.047C103.833 116.916 103.88 116.791 103.955 116.683C104.031 116.574 104.132 116.487 104.25 116.428C104.347 116.388 104.455 116.388 104.552 116.428C104.624 116.464 104.682 116.522 104.717 116.593C104.768 116.716 104.717 116.795 104.717 116.788C104.717 116.78 104.717 116.716 104.645 116.644C104.608 116.592 104.553 116.556 104.49 116.543C104.428 116.53 104.363 116.54 104.307 116.572C104.219 116.625 104.146 116.7 104.094 116.789C104.043 116.879 104.014 116.979 104.012 117.083C103.952 117.35 103.952 117.628 104.012 117.896C104.156 118.457 104.545 118.91 104.89 118.953C104.958 118.962 105.026 118.957 105.092 118.939C105.158 118.92 105.219 118.888 105.271 118.845C105.358 118.788 105.386 118.73 105.401 118.737Z" fill="#EB996E"/>
<path d="M111.61 106.205C111.056 104.32 109.049 103.385 107.221 102.867C104.437 102.076 101.43 101.731 98.7108 102.731C95.9915 103.731 92.7254 105.486 92.7254 108.486C91.1211 108.356 90.2002 109.759 89.5672 111.5C89.1624 112.561 88.9199 113.676 88.8478 114.809C88.6463 118.737 87.5456 124.162 84.9989 127.039C83.5601 128.644 81.5674 129.751 80.7472 131.751C80.0278 133.485 80.4019 135.543 79.7329 137.298C79.1358 138.845 77.8193 139.945 76.8553 141.291C75.8731 142.817 75.2951 144.568 75.1756 146.379C75.056 148.189 75.3989 150.001 76.1718 151.643C76.9503 153.243 78.0464 154.668 79.3933 155.83C80.7402 156.993 82.3097 157.869 84.0062 158.405C87.3665 159.428 90.9499 159.463 94.3296 158.506C96.8661 157.9 99.2322 156.726 101.25 155.075C103.315 153.388 104.734 151.04 105.265 148.427C105.775 145.492 104.955 142.507 104.344 139.586C102.43 130.356 102.977 129.874 105.394 121.306C105.452 121.155 105.48 120.996 105.524 120.845C105.567 120.694 105.588 120.622 105.617 120.507C105.686 120.168 105.722 119.824 105.725 119.478C105.372 119.61 104.989 119.637 104.62 119.558C104.252 119.479 103.914 119.297 103.646 119.032C103.377 118.75 103.19 118.401 103.104 118.021C103.018 117.641 103.036 117.244 103.157 116.874C103.326 116.469 103.579 116.104 103.899 115.803C104.219 115.502 104.598 115.271 105.013 115.126C105.811 114.795 106.667 114.622 107.452 114.255C109.113 113.464 110.264 111.824 111.049 110.104C111.693 108.913 111.892 107.53 111.61 106.205Z" fill="#263238"/>
<path d="M105.688 118.932C105.84 119.156 105.965 119.398 106.062 119.651C106.277 120.104 106.565 120.745 106.882 121.486L106.939 121.622H106.788L106.069 121.687C105.572 121.687 105.155 121.78 104.666 121.773C104.623 121.764 104.584 121.744 104.551 121.715C104.519 121.686 104.494 121.649 104.479 121.608C104.458 121.542 104.458 121.472 104.479 121.406C104.496 121.309 104.517 121.213 104.544 121.119L104.673 120.608C104.738 120.267 104.84 119.934 104.975 119.615C104.962 119.962 104.911 120.307 104.824 120.644L104.724 121.155C104.688 121.327 104.623 121.593 104.724 121.572C105.083 121.572 105.594 121.493 106.069 121.464L106.788 121.399L106.695 121.557C106.385 120.838 106.126 120.162 105.975 119.694C105.843 119.455 105.746 119.198 105.688 118.932Z" fill="#4CAF4F"/>
<path d="M81.0555 179.484L112.961 178.513L126.846 232.713L124.292 294.884H107.422L109.486 234.036L97.1487 196.304L99.0479 297.294L81.998 297.546L80.2066 202.62C80.1275 199.98 79.2642 194.03 79.588 191.412L81.0555 179.484Z" fill="#263238"/>
<path d="M101.393 197.074C100.871 197.106 100.346 197.075 99.8317 196.98C98.8677 196.865 97.5512 196.663 96.1052 196.376C94.6592 196.088 93.3643 195.757 92.429 195.491C91.9291 195.381 91.4455 195.207 90.9902 194.973C90.9902 194.865 93.3355 195.426 96.2131 196.009C99.0907 196.592 101.407 196.966 101.393 197.074Z" fill="#455A64"/>
<path d="M124.12 291.474C124.12 291.575 120.3 291.661 115.588 291.661C110.876 291.661 107.049 291.575 107.049 291.474C107.049 291.373 110.869 291.287 115.588 291.287C120.307 291.287 124.12 291.366 124.12 291.474Z" fill="#455A64"/>
<path d="M98.898 294.668C98.898 294.776 95.1859 294.855 90.6105 294.855C86.035 294.855 82.3301 294.776 82.3301 294.668C82.3301 294.56 86.0422 294.481 90.6105 294.481C95.1787 294.481 98.898 294.567 98.898 294.668Z" fill="#455A64"/>
<path d="M96.6953 294.409C96.5946 294.409 96.1485 272.345 95.6953 245.13C95.2421 217.915 94.9759 195.836 95.0694 195.836C95.1629 195.836 95.6234 217.893 96.0694 245.123C96.5154 272.352 96.8032 294.409 96.6953 294.409Z" fill="#455A64"/>
<path d="M121.853 291.474C121.845 291.376 121.845 291.277 121.853 291.179V290.316C121.853 289.539 121.91 288.424 121.954 287.006C122.054 284.129 122.198 279.949 122.378 274.827C122.767 264.525 123.313 250.324 123.91 234.648C123.91 234.497 123.91 234.353 123.91 234.224V234.274C120.134 219.166 116.716 205.454 114.234 195.534L111.357 183.8C111.026 182.426 110.774 181.354 110.594 180.606C110.508 180.254 110.45 179.98 110.4 179.772C110.372 179.678 110.355 179.581 110.35 179.484C110.387 179.575 110.416 179.668 110.436 179.764C110.493 179.966 110.565 180.239 110.666 180.585C110.86 181.304 111.141 182.397 111.501 183.764C112.22 186.541 113.234 190.541 114.501 195.469C117.004 205.383 120.457 219.058 124.285 234.188V234.238C124.285 234.367 124.285 234.518 124.285 234.662C123.644 250.338 123.062 264.532 122.637 274.834C122.414 279.963 122.227 284.114 122.098 287.006C122.026 288.445 121.968 289.539 121.932 290.316C121.932 290.683 121.889 290.97 121.882 291.179C121.883 291.278 121.873 291.377 121.853 291.474Z" fill="#455A64"/>
<path d="M116.349 232.958C115.137 233.356 113.889 233.633 112.623 233.785C111.069 234.051 109.745 234.238 109.148 234.267V234.123C109.342 234.181 109.443 234.216 109.443 234.245C109.443 234.274 109.321 234.245 109.119 234.245H108.688L109.119 234.116C109.68 233.95 111.004 233.677 112.558 233.396C113.804 233.126 115.074 232.979 116.349 232.958Z" fill="#455A64"/>
<path d="M116.054 235.022C114.932 235.074 113.808 235.023 112.695 234.871C111.571 234.848 110.452 234.725 109.35 234.504C111.598 234.321 113.861 234.496 116.054 235.022Z" fill="#455A64"/>
<path opacity="0.2" d="M80.9199 180.628C81.2978 181.113 81.7737 181.513 82.3167 181.802C82.8596 182.091 83.4574 182.262 84.0709 182.304C85.3559 182.456 86.6557 182.432 87.9341 182.232C96.1713 181.318 104.898 180.477 112.962 178.513C102.524 179.095 91.4952 178.901 81.0566 179.484L80.9487 180.376" fill="black"/>
<g opacity="0.2">
<path d="M91.6738 195.34L97.5586 218.174L97.1485 196.304L91.6738 195.34Z" fill="black"/>
</g>
</svg>
