<svg width="377" height="115" viewBox="0 0 377 115" fill="none" xmlns="http://www.w3.org/2000/svg">
<g clip-path="url(#clip0_15_1279)">
<g clip-path="url(#clip1_15_1279)">
<path d="M33.1095 32.0406L33.1095 32.0406C33.2408 31.9496 33.3526 31.8334 33.4386 31.6988L33.7319 31.8861L33.4386 31.6988C33.5245 31.5642 33.5829 31.4138 33.6102 31.2565C33.6375 31.0991 33.6333 30.9379 33.5977 30.7822L33.9371 30.7048L33.5977 30.7822C33.5622 30.6265 33.4961 30.4794 33.4032 30.3495L33.4017 30.3473C32.0946 28.4894 30.3136 27.0155 28.244 26.0789L27.7393 25.8505L28.1641 25.4949C29.4239 24.4404 30.3281 23.0233 30.7536 21.4365C31.1791 19.8497 31.1052 18.1703 30.5421 16.627C29.9789 15.0836 28.9537 13.7514 27.6062 12.8116C26.2586 11.8718 24.6542 11.3702 23.0114 11.3749L23.0098 11.3749C22.2787 11.3737 21.5509 11.4747 20.8478 11.6749L20.8415 11.6766L20.8415 11.6766C20.6853 11.7179 20.5389 11.7899 20.4108 11.8884C20.2827 11.9868 20.1755 12.1098 20.0954 12.2501C20.0152 12.3904 19.9638 12.5452 19.9441 12.7055C19.9244 12.8659 19.9368 13.0286 19.9806 13.1841C20.0243 13.3396 20.0986 13.4849 20.199 13.6114L19.9264 13.8278L20.199 13.6114C20.2995 13.738 20.4241 13.8433 20.5656 13.9212L20.3977 14.2261L20.5656 13.9212C20.7071 13.9992 20.8627 14.0481 21.0234 14.0654C21.184 14.0826 21.3465 14.0676 21.5013 14.0215L21.5053 14.0203L21.5053 14.0203C21.995 13.8806 22.5018 13.8102 23.011 13.8112M33.1095 32.0406L23.0103 14.1592M33.1095 32.0406L33.1055 32.0435C32.9023 32.1887 32.6586 32.2664 32.4089 32.2657C32.2136 32.2645 32.0213 32.2169 31.848 32.1267C31.6748 32.0366 31.5256 31.9065 31.4125 31.7473M33.1095 32.0406L31.1283 31.9481M23.011 13.8112L23.0103 14.1592M23.011 13.8112C23.0108 13.8112 23.0106 13.8112 23.0103 13.8112V14.1592M23.011 13.8112C24.4876 13.8113 25.9038 14.398 26.9479 15.4422C27.9922 16.4865 28.5789 17.9029 28.5789 19.3797C28.5789 20.8566 27.9922 22.273 26.9479 23.3173C25.9036 24.3616 24.4872 24.9483 23.0103 24.9483C22.6873 24.9483 22.3775 25.0766 22.149 25.3051C21.9206 25.5335 21.7922 25.8433 21.7922 26.1664C21.7922 26.4895 21.9206 26.7993 22.149 27.0277C22.3775 27.2562 22.6873 27.3845 23.0103 27.3845H23.0107C24.6582 27.3863 26.2811 27.7835 27.7431 28.5428C29.2051 29.3019 30.4635 30.4009 31.4125 31.7473M23.0103 14.1592C24.3949 14.1592 25.7228 14.7092 26.7018 15.6883C27.6809 16.6673 28.2309 17.9952 28.2309 19.3797C28.2309 20.7643 27.6809 22.0922 26.7018 23.0712C25.7228 24.0502 24.3949 24.6002 23.0103 24.6002C22.595 24.6002 22.1966 24.7653 21.9029 25.059C21.6092 25.3527 21.4442 25.751 21.4442 26.1664C21.4442 26.5818 21.6092 26.9801 21.9029 27.2738C22.1966 27.5676 22.595 27.7326 23.0103 27.7326C24.6021 27.7343 26.1701 28.1181 27.5827 28.8516C28.9953 29.5852 30.2112 30.6471 31.1283 31.9481M31.4125 31.7473C31.4124 31.7472 31.4123 31.747 31.4121 31.7468L31.1283 31.9481M31.4125 31.7473C31.4126 31.7474 31.4127 31.7475 31.4127 31.7476L31.1283 31.9481M17.5266 25.4955L17.1039 25.8511L17.6072 26.0789C19.6768 27.0155 21.4578 28.4894 22.7649 30.3473L22.7698 30.3544L22.7752 30.3612C22.8767 30.4913 22.9507 30.6406 22.9928 30.8002C23.0349 30.9598 23.0441 31.1262 23.0199 31.2895C22.9956 31.4527 22.9385 31.6093 22.8519 31.7498C22.7654 31.8903 22.6511 32.0117 22.5162 32.1067C22.3813 32.2017 22.2284 32.2683 22.067 32.3025C21.9055 32.3366 21.7388 32.3376 21.577 32.3054C21.4151 32.2731 21.2615 32.2084 21.1255 32.115C20.9894 32.0216 20.8738 31.9015 20.7856 31.762L20.7811 31.755L20.7763 31.7481C19.8291 30.3991 18.5711 29.298 17.1085 28.5378C15.646 27.7776 14.0219 27.3807 12.3735 27.3807C10.7252 27.3807 9.10112 27.7776 7.63855 28.5378C6.17598 29.298 4.91794 30.3991 3.97078 31.7481L3.97001 31.7493C3.85867 31.9092 3.71021 32.0397 3.53737 32.1296C3.36452 32.2196 3.17244 32.2663 2.9776 32.2657L2.97546 32.2657C2.72557 32.2665 2.48174 32.1888 2.27844 32.0435L2.27677 32.0423C2.01325 31.8563 1.83427 31.5733 1.77909 31.2555C1.72392 30.9378 1.79697 30.6112 1.98222 30.3473C3.28932 28.4894 5.07027 27.0155 7.13989 26.0789L7.6432 25.8511L7.22045 25.4955C5.96402 24.4385 5.063 23.0208 4.63954 21.4344C4.21609 19.8481 4.29068 18.1699 4.85321 16.6274C5.41573 15.0849 6.43898 13.7527 7.78423 12.8113C9.12948 11.87 10.7317 11.3651 12.3735 11.3651C14.0154 11.3651 15.6176 11.87 16.9628 12.8113C18.3081 13.7527 19.3313 15.0849 19.8939 16.6274C20.4564 18.1699 20.531 19.8481 20.1075 21.4344C19.6841 23.0208 18.7831 24.4385 17.5266 25.4955ZM7.74345 16.286C7.13157 17.2017 6.80498 18.2784 6.80498 19.3797C6.80498 20.8566 7.39167 22.273 8.43597 23.3173C9.48028 24.3616 10.8967 24.9483 12.3735 24.9483C13.4749 24.9483 14.5515 24.6217 15.4673 24.0098C16.383 23.3979 17.0967 22.5282 17.5182 21.5107C17.9397 20.4932 18.05 19.3735 17.8351 18.2934C17.6202 17.2132 17.0899 16.2209 16.3111 15.4422C15.5323 14.6634 14.5401 14.133 13.4599 13.9182C12.3797 13.7033 11.2601 13.8136 10.2425 14.235C9.22502 14.6565 8.35533 15.3703 7.74345 16.286Z" fill="#4CAF4F" stroke="#4CAF4F" stroke-width="0.696069"/>
<g clip-path="url(#clip2_15_1279)">
<path d="M52.7532 6.31548V20.49H49.7563V9.16008H49.6732L46.4272 11.1949V8.53717L49.9362 6.31548H52.7532ZM55.9075 17.9984V15.6383L61.825 6.31548H63.8599V9.58227H62.6556L58.9251 15.486V15.5967H67.3343V17.9984H55.9075ZM62.7109 20.49V17.2786L62.7663 16.2335V6.31548H65.5763V20.49H62.7109ZM75.3074 6.31548V20.49H72.3106V9.16008H72.2275L68.9815 11.1949V8.53717L72.4905 6.31548H75.3074Z" fill="#4D4D4D"/>
<path d="M48.9178 38.49H46.4183V30.3903H49.0286C49.8143 30.3903 50.4866 30.5524 51.0456 30.8767C51.6046 31.1984 52.033 31.6611 52.331 32.2649C52.6289 32.8661 52.7779 33.5859 52.7779 34.4243C52.7779 35.268 52.6276 35.9944 52.327 36.6035C52.0264 37.2099 51.5888 37.6766 51.014 38.0035C50.4392 38.3278 49.7405 38.49 48.9178 38.49ZM47.3992 37.6199H48.8546C49.5243 37.6199 50.0793 37.4907 50.5196 37.2323C50.9599 36.9739 51.2882 36.6061 51.5044 36.1289C51.7206 35.6517 51.8287 35.0835 51.8287 34.4243C51.8287 33.7704 51.7219 33.2075 51.5083 32.7356C51.2948 32.261 50.9757 31.8971 50.5512 31.644C50.1267 31.3882 49.5981 31.2604 48.9653 31.2604H47.3992V37.6199ZM54.2966 38.49V32.4152H55.2299V38.49H54.2966ZM54.7712 31.4027C54.5892 31.4027 54.4324 31.3408 54.3005 31.2169C54.1713 31.0929 54.1067 30.944 54.1067 30.7699C54.1067 30.5959 54.1713 30.447 54.3005 30.323C54.4324 30.1991 54.5892 30.1372 54.7712 30.1372C54.9531 30.1372 55.1086 30.1991 55.2378 30.323C55.3697 30.447 55.4356 30.5959 55.4356 30.7699C55.4356 30.944 55.3697 31.0929 55.2378 31.2169C55.1086 31.3408 54.9531 31.4027 54.7712 31.4027ZM61.2424 33.7757L60.404 34.013C60.3513 33.8733 60.2735 33.7375 60.1706 33.6056C60.0704 33.4712 59.9333 33.3604 59.7593 33.2734C59.5853 33.1864 59.3625 33.1429 59.0909 33.1429C58.7192 33.1429 58.4094 33.2286 58.1615 33.4C57.9163 33.5687 57.7937 33.7836 57.7937 34.0446C57.7937 34.2767 57.8781 34.4599 58.0468 34.5944C58.2156 34.7288 58.4792 34.8409 58.8378 34.9305L59.7396 35.152C60.2827 35.2839 60.6874 35.4856 60.9537 35.7571C61.22 36.0261 61.3532 36.3728 61.3532 36.7973C61.3532 37.1453 61.253 37.4564 61.0526 37.7306C60.8548 38.0049 60.578 38.2211 60.2221 38.3793C59.8661 38.5374 59.4522 38.6165 58.9802 38.6165C58.3606 38.6165 57.8478 38.4821 57.4417 38.2131C57.0357 37.9442 56.7786 37.5514 56.6705 37.0346L57.5564 36.8131C57.6408 37.14 57.8003 37.3852 58.035 37.5487C58.2723 37.7122 58.5821 37.7939 58.9644 37.7939C59.3994 37.7939 59.7448 37.7016 60.0006 37.5171C60.259 37.3299 60.3882 37.1058 60.3882 36.8447C60.3882 36.6338 60.3143 36.4572 60.1667 36.3148C60.019 36.1698 59.7923 36.0617 59.4864 35.9905L58.474 35.7532C57.9176 35.6213 57.509 35.417 57.2479 35.1402C56.9896 34.8607 56.8604 34.5113 56.8604 34.0921C56.8604 33.7493 56.9566 33.4461 57.1491 33.1825C57.3442 32.9188 57.6092 32.7118 57.944 32.5615C58.2815 32.4112 58.6638 32.3361 59.0909 32.3361C59.6921 32.3361 60.164 32.4679 60.5068 32.7316C60.8522 32.9953 61.0974 33.3433 61.2424 33.7757ZM64.5458 38.6324C64.1608 38.6324 63.8115 38.5599 63.4977 38.4148C63.184 38.2672 62.9348 38.0549 62.7503 37.7781C62.5657 37.4986 62.4734 37.1611 62.4734 36.7656C62.4734 36.4176 62.542 36.1355 62.6791 35.9193C62.8162 35.7004 62.9994 35.5291 63.2288 35.4051C63.4582 35.2812 63.7113 35.1889 63.9881 35.1283C64.2676 35.065 64.5484 35.0149 64.8306 34.978C65.1997 34.9305 65.4989 34.8949 65.7283 34.8712C65.9603 34.8449 66.1291 34.8013 66.2346 34.7407C66.3427 34.6801 66.3967 34.5746 66.3967 34.4243V34.3927C66.3967 34.0025 66.2899 33.6992 66.0764 33.483C65.8654 33.2668 65.5451 33.1587 65.1153 33.1587C64.6697 33.1587 64.3204 33.2563 64.0672 33.4514C63.8141 33.6465 63.6362 33.8548 63.5333 34.0763L62.6474 33.7599C62.8056 33.3908 63.0166 33.1034 63.2802 32.8977C63.5465 32.6894 63.8365 32.5444 64.1503 32.4627C64.4667 32.3783 64.7778 32.3361 65.0837 32.3361C65.2788 32.3361 65.5029 32.3598 65.756 32.4073C66.0118 32.4521 66.2583 32.5457 66.4956 32.6881C66.7355 32.8305 66.9346 33.0454 67.0928 33.3327C67.251 33.6201 67.3301 34.0051 67.3301 34.4876V38.49H66.3967V37.6674H66.3492C66.286 37.7992 66.1805 37.9403 66.0329 38.0905C65.8852 38.2408 65.6888 38.3687 65.4436 38.4742C65.1984 38.5796 64.8991 38.6324 64.5458 38.6324ZM64.6882 37.7939C65.0573 37.7939 65.3684 37.7214 65.6215 37.5764C65.8773 37.4314 66.0698 37.2442 66.199 37.0148C66.3308 36.7854 66.3967 36.5442 66.3967 36.291V35.4368C66.3572 35.4842 66.2701 35.5277 66.1357 35.5673C66.0038 35.6042 65.8509 35.6372 65.6769 35.6662C65.5055 35.6925 65.3381 35.7163 65.1746 35.7374C65.0138 35.7558 64.8833 35.7716 64.7831 35.7848C64.5405 35.8165 64.3138 35.8679 64.1028 35.9391C63.8945 36.0076 63.7258 36.1118 63.5966 36.2515C63.4701 36.3886 63.4068 36.5758 63.4068 36.8131C63.4068 37.1374 63.5267 37.3826 63.7667 37.5487C64.0092 37.7122 64.3164 37.7939 64.6882 37.7939ZM69.1602 38.49V30.3903H70.0936V33.3802H70.1727C70.2412 33.2747 70.3362 33.1403 70.4574 32.9768C70.5814 32.8107 70.758 32.663 70.9874 32.5339C71.2194 32.402 71.5332 32.3361 71.9287 32.3361C72.4402 32.3361 72.891 32.464 73.2813 32.7197C73.6715 32.9755 73.976 33.338 74.1949 33.8073C74.4137 34.2767 74.5231 34.8304 74.5231 35.4684C74.5231 36.1118 74.4137 36.6694 74.1949 37.1414C73.976 37.6107 73.6728 37.9745 73.2852 38.2329C72.8976 38.4887 72.4507 38.6165 71.9445 38.6165C71.5543 38.6165 71.2418 38.552 71.0072 38.4228C70.7725 38.2909 70.5919 38.142 70.4654 37.9758C70.3388 37.8071 70.2412 37.6674 70.1727 37.5566H70.0619V38.49H69.1602ZM70.0778 35.4526C70.0778 35.9114 70.145 36.3161 70.2795 36.6668C70.4139 37.0148 70.6104 37.2877 70.8688 37.4854C71.1271 37.6805 71.4435 37.7781 71.8179 37.7781C72.2082 37.7781 72.5338 37.6753 72.7948 37.4696C73.0585 37.2613 73.2562 36.9818 73.3881 36.6312C73.5225 36.2779 73.5898 35.885 73.5898 35.4526C73.5898 35.0255 73.5238 34.6405 73.392 34.2978C73.2628 33.9524 73.0664 33.6795 72.8027 33.4791C72.5417 33.2761 72.2134 33.1746 71.8179 33.1746C71.4383 33.1746 71.1192 33.2708 70.8608 33.4633C70.6025 33.6531 70.4073 33.9194 70.2755 34.2622C70.1437 34.6023 70.0778 34.9991 70.0778 35.4526ZM76.8842 30.3903V38.49H75.9509V30.3903H76.8842ZM81.1407 38.6165C80.5554 38.6165 80.0505 38.4874 79.626 38.229C79.2041 37.9679 78.8785 37.6041 78.6491 37.1374C78.4224 36.6681 78.309 36.1223 78.309 35.5001C78.309 34.8778 78.4224 34.3294 78.6491 33.8548C78.8785 33.3776 79.1975 33.0058 79.6062 32.7395C80.0175 32.4706 80.4974 32.3361 81.0458 32.3361C81.3622 32.3361 81.6746 32.3888 81.9831 32.4943C82.2916 32.5998 82.5724 32.7711 82.8255 33.0084C83.0786 33.2431 83.2803 33.5542 83.4306 33.9418C83.5809 34.3294 83.6561 34.8066 83.6561 35.3735V35.769H78.9734V34.9622H82.7069C82.7069 34.6194 82.6383 34.3136 82.5012 34.0446C82.3668 33.7757 82.1743 33.5635 81.9238 33.4079C81.676 33.2523 81.3833 33.1746 81.0458 33.1746C80.674 33.1746 80.3524 33.2668 80.0808 33.4514C79.8119 33.6333 79.6049 33.8706 79.4599 34.1633C79.3149 34.456 79.2424 34.7697 79.2424 35.1046V35.6424C79.2424 36.1012 79.3215 36.4901 79.4796 36.8091C79.6405 37.1255 79.8633 37.3668 80.148 37.5329C80.4328 37.6964 80.7637 37.7781 81.1407 37.7781C81.3859 37.7781 81.6074 37.7438 81.8052 37.6753C82.0055 37.6041 82.1782 37.4986 82.3233 37.3589C82.4683 37.2165 82.5803 37.0398 82.6594 36.8289L83.5611 37.082C83.4662 37.3879 83.3067 37.6568 83.0826 37.8888C82.8585 38.1182 82.5816 38.2975 82.2521 38.4267C81.9225 38.5533 81.552 38.6165 81.1407 38.6165ZM87.3698 38.6165C86.8635 38.6165 86.4166 38.4887 86.029 38.2329C85.6414 37.9745 85.3382 37.6107 85.1194 37.1414C84.9006 36.6694 84.7911 36.1118 84.7911 35.4684C84.7911 34.8304 84.9006 34.2767 85.1194 33.8073C85.3382 33.338 85.6428 32.9755 86.033 32.7197C86.4232 32.464 86.8741 32.3361 87.3856 32.3361C87.7811 32.3361 88.0935 32.402 88.3229 32.5339C88.5549 32.663 88.7316 32.8107 88.8529 32.9768C88.9768 33.1403 89.073 33.2747 89.1416 33.3802H89.2207V30.3903H90.154V38.49H89.2523V37.5566H89.1416C89.073 37.6674 88.9755 37.8071 88.8489 37.9758C88.7223 38.142 88.5417 38.2909 88.3071 38.4228C88.0724 38.552 87.76 38.6165 87.3698 38.6165ZM87.4963 37.7781C87.8707 37.7781 88.1871 37.6805 88.4455 37.4854C88.7039 37.2877 88.9003 37.0148 89.0348 36.6668C89.1693 36.3161 89.2365 35.9114 89.2365 35.4526C89.2365 34.9991 89.1706 34.6023 89.0387 34.2622C88.9069 33.9194 88.7118 33.6531 88.4534 33.4633C88.195 33.2708 87.876 33.1746 87.4963 33.1746C87.1008 33.1746 86.7712 33.2761 86.5076 33.4791C86.2466 33.6795 86.0501 33.9524 85.9183 34.2978C85.7891 34.6405 85.7245 35.0255 85.7245 35.4526C85.7245 35.885 85.7904 36.2779 85.9222 36.6312C86.0567 36.9818 86.2545 37.2613 86.5155 37.4696C86.7792 37.6753 87.1061 37.7781 87.4963 37.7781ZM95.252 30.3903H96.4226L99.1753 37.1137H99.2702L102.023 30.3903H103.193V38.49H102.276V32.3361H102.197L99.6657 38.49H98.7798L96.2486 32.3361H96.1695V38.49H95.252V30.3903ZM107.58 38.6165C106.995 38.6165 106.49 38.4874 106.066 38.229C105.644 37.9679 105.318 37.6041 105.089 37.1374C104.862 36.6681 104.749 36.1223 104.749 35.5001C104.749 34.8778 104.862 34.3294 105.089 33.8548C105.318 33.3776 105.637 33.0058 106.046 32.7395C106.457 32.4706 106.937 32.3361 107.486 32.3361C107.802 32.3361 108.114 32.3888 108.423 32.4943C108.731 32.5998 109.012 32.7711 109.265 33.0084C109.518 33.2431 109.72 33.5542 109.87 33.9418C110.021 34.3294 110.096 34.8066 110.096 35.3735V35.769H105.413V34.9622H109.147C109.147 34.6194 109.078 34.3136 108.941 34.0446C108.807 33.7757 108.614 33.5635 108.364 33.4079C108.116 33.2523 107.823 33.1746 107.486 33.1746C107.114 33.1746 106.792 33.2668 106.521 33.4514C106.252 33.6333 106.045 33.8706 105.9 34.1633C105.755 34.456 105.682 34.7697 105.682 35.1046V35.6424C105.682 36.1012 105.761 36.4901 105.919 36.8091C106.08 37.1255 106.303 37.3668 106.588 37.5329C106.873 37.6964 107.203 37.7781 107.58 37.7781C107.826 37.7781 108.047 37.7438 108.245 37.6753C108.445 37.6041 108.618 37.4986 108.763 37.3589C108.908 37.2165 109.02 37.0398 109.099 36.8289L110.001 37.082C109.906 37.3879 109.746 37.6568 109.522 37.8888C109.298 38.1182 109.021 38.2975 108.692 38.4267C108.362 38.5533 107.992 38.6165 107.58 38.6165ZM111.516 38.49V32.4152H112.417V33.3644H112.496C112.623 33.0401 112.827 32.7883 113.109 32.609C113.392 32.4271 113.73 32.3361 114.126 32.3361C114.527 32.3361 114.86 32.4271 115.127 32.609C115.395 32.7883 115.605 33.0401 115.755 33.3644H115.819C115.974 33.0506 116.208 32.8015 116.519 32.6169C116.83 32.4297 117.203 32.3361 117.638 32.3361C118.181 32.3361 118.625 32.5062 118.971 32.8463C119.316 33.1838 119.489 33.7098 119.489 34.4243V38.49H118.555V34.4243C118.555 33.9761 118.433 33.6557 118.188 33.4633C117.942 33.2708 117.654 33.1746 117.322 33.1746C116.894 33.1746 116.563 33.3037 116.329 33.5621C116.094 33.8179 115.977 34.1422 115.977 34.535V38.49H115.028V34.3294C115.028 33.984 114.916 33.7058 114.691 33.4949C114.467 33.2813 114.179 33.1746 113.825 33.1746C113.583 33.1746 113.356 33.2391 113.145 33.3683C112.937 33.4975 112.768 33.6768 112.639 33.9062C112.512 34.133 112.449 34.3953 112.449 34.6932V38.49H111.516ZM121.322 38.49V30.3903H122.255V33.3802H122.334C122.403 33.2747 122.498 33.1403 122.619 32.9768C122.743 32.8107 122.92 32.663 123.149 32.5339C123.381 32.402 123.695 32.3361 124.09 32.3361C124.602 32.3361 125.053 32.464 125.443 32.7197C125.833 32.9755 126.138 33.338 126.357 33.8073C126.575 34.2767 126.685 34.8304 126.685 35.4684C126.685 36.1118 126.575 36.6694 126.357 37.1414C126.138 37.6107 125.835 37.9745 125.447 38.2329C125.059 38.4887 124.612 38.6165 124.106 38.6165C123.716 38.6165 123.404 38.552 123.169 38.4228C122.934 38.2909 122.754 38.142 122.627 37.9758C122.501 37.8071 122.403 37.6674 122.334 37.5566H122.224V38.49H121.322ZM122.239 35.4526C122.239 35.9114 122.307 36.3161 122.441 36.6668C122.576 37.0148 122.772 37.2877 123.03 37.4854C123.289 37.6805 123.605 37.7781 123.98 37.7781C124.37 37.7781 124.695 37.6753 124.957 37.4696C125.22 37.2613 125.418 36.9818 125.55 36.6312C125.684 36.2779 125.751 35.885 125.751 35.4526C125.751 35.0255 125.686 34.6405 125.554 34.2978C125.425 33.9524 125.228 33.6795 124.964 33.4791C124.703 33.2761 124.375 33.1746 123.98 33.1746C123.6 33.1746 123.281 33.2708 123.023 33.4633C122.764 33.6531 122.569 33.9194 122.437 34.2622C122.305 34.6023 122.239 34.9991 122.239 35.4526ZM130.66 38.6165C130.074 38.6165 129.569 38.4874 129.145 38.229C128.723 37.9679 128.397 37.6041 128.168 37.1374C127.941 36.6681 127.828 36.1223 127.828 35.5001C127.828 34.8778 127.941 34.3294 128.168 33.8548C128.397 33.3776 128.716 33.0058 129.125 32.7395C129.536 32.4706 130.016 32.3361 130.565 32.3361C130.881 32.3361 131.193 32.3888 131.502 32.4943C131.81 32.5998 132.091 32.7711 132.344 33.0084C132.597 33.2431 132.799 33.5542 132.949 33.9418C133.1 34.3294 133.175 34.8066 133.175 35.3735V35.769H128.492V34.9622H132.226C132.226 34.6194 132.157 34.3136 132.02 34.0446C131.886 33.7757 131.693 33.5635 131.443 33.4079C131.195 33.2523 130.902 33.1746 130.565 33.1746C130.193 33.1746 129.871 33.2668 129.6 33.4514C129.331 33.6333 129.124 33.8706 128.979 34.1633C128.834 34.456 128.761 34.7697 128.761 35.1046V35.6424C128.761 36.1012 128.84 36.4901 128.998 36.8091C129.159 37.1255 129.382 37.3668 129.667 37.5329C129.952 37.6964 130.283 37.7781 130.66 37.7781C130.905 37.7781 131.126 37.7438 131.324 37.6753C131.524 37.6041 131.697 37.4986 131.842 37.3589C131.987 37.2165 132.099 37.0398 132.178 36.8289L133.08 37.082C132.985 37.3879 132.826 37.6568 132.601 37.8888C132.377 38.1182 132.1 38.2975 131.771 38.4267C131.441 38.5533 131.071 38.6165 130.66 38.6165ZM134.595 38.49V32.4152H135.496V33.3327H135.56C135.67 33.0322 135.871 32.7883 136.161 32.6011C136.451 32.4139 136.778 32.3203 137.142 32.3203C137.21 32.3203 137.296 32.3216 137.399 32.3242C137.502 32.3269 137.579 32.3308 137.632 32.3361V33.2853C137.6 33.2774 137.528 33.2655 137.415 33.2497C137.304 33.2312 137.187 33.222 137.063 33.222C136.767 33.222 136.504 33.284 136.272 33.4079C136.042 33.5292 135.86 33.6979 135.726 33.9141C135.594 34.1277 135.528 34.3716 135.528 34.6458V38.49H134.595ZM143.041 33.7757L142.203 34.013C142.15 33.8733 142.073 33.7375 141.97 33.6056C141.869 33.4712 141.732 33.3604 141.558 33.2734C141.384 33.1864 141.162 33.1429 140.89 33.1429C140.518 33.1429 140.208 33.2286 139.961 33.4C139.715 33.5687 139.593 33.7836 139.593 34.0446C139.593 34.2767 139.677 34.4599 139.846 34.5944C140.015 34.7288 140.278 34.8409 140.637 34.9305L141.539 35.152C142.082 35.2839 142.486 35.4856 142.753 35.7571C143.019 36.0261 143.152 36.3728 143.152 36.7973C143.152 37.1453 143.052 37.4564 142.852 37.7306C142.654 38.0049 142.377 38.2211 142.021 38.3793C141.665 38.5374 141.251 38.6165 140.779 38.6165C140.16 38.6165 139.647 38.4821 139.241 38.2131C138.835 37.9442 138.578 37.5514 138.47 37.0346L139.355 36.8131C139.44 37.14 139.599 37.3852 139.834 37.5487C140.071 37.7122 140.381 37.7939 140.763 37.7939C141.198 37.7939 141.544 37.7016 141.8 37.5171C142.058 37.3299 142.187 37.1058 142.187 36.8447C142.187 36.6338 142.113 36.4572 141.966 36.3148C141.818 36.1698 141.591 36.0617 141.285 35.9905L140.273 35.7532C139.717 35.6213 139.308 35.417 139.047 35.1402C138.789 34.8607 138.659 34.5113 138.659 34.0921C138.659 33.7493 138.756 33.4461 138.948 33.1825C139.143 32.9188 139.408 32.7118 139.743 32.5615C140.081 32.4112 140.463 32.3361 140.89 32.3361C141.491 32.3361 141.963 32.4679 142.306 32.7316C142.651 32.9953 142.896 33.3433 143.041 33.7757Z" fill="#717171"/>
</g>
<mask id="path-4-inside-1_15_1279" fill="white">
<path d="M218.974 21.7427C218.807 21.7427 218.651 21.6966 218.513 21.6225V21.6245C218.513 21.8882 218.411 22.1358 218.225 22.3213C218.039 22.5073 217.791 22.6098 217.528 22.6098C217.358 22.6098 217.2 22.5625 217.06 22.4864C217.046 22.7277 216.95 22.9531 216.778 23.1254C216.592 23.3113 216.344 23.4138 216.081 23.4138C215.557 23.4138 215.132 23.0022 215.101 22.4863C214.939 22.5738 214.756 22.6198 214.567 22.6076C214.052 22.5738 213.649 22.1288 213.649 21.5941V17.1625L213.144 18.0367C212.952 18.3711 212.592 18.5787 212.205 18.5787C212.016 18.5787 211.829 18.5292 211.664 18.4346C211.459 18.3154 211.312 18.124 211.25 17.895C211.189 17.6659 211.221 17.4263 211.34 17.221C211.34 17.221 212.991 14.3621 213.091 14.1865C213.103 14.1601 213.137 14.0835 213.166 14.0182C213.194 13.9559 213.218 13.892 213.241 13.8277C213.739 12.4221 214.971 11.549 216.458 11.549C218.389 11.549 219.96 13.2522 219.96 15.3458L219.96 20.7573C219.96 21.0207 219.857 21.2681 219.672 21.4543C219.486 21.6402 219.238 21.7427 218.974 21.7427L218.974 21.7427ZM216.458 12.0726C215.181 12.0726 214.162 12.7941 213.734 14.0028C213.707 14.0795 213.678 14.1563 213.645 14.231C213.548 14.4477 213.548 14.4477 213.521 14.4788L213.518 14.4757C213.383 14.7301 212.982 15.4236 211.793 17.483C211.744 17.5675 211.731 17.6655 211.756 17.7593C211.781 17.8532 211.842 17.9322 211.926 17.9806C212.186 18.13 212.542 18.0335 212.69 17.7753L213.684 16.055C213.743 15.9525 213.863 15.9021 213.978 15.9333C214.093 15.9639 214.172 16.0677 214.172 16.1862V21.5943C214.172 21.8495 214.365 22.0697 214.601 22.0853C214.738 22.0925 214.865 22.0467 214.961 21.9513C215.048 21.8644 215.096 21.7486 215.096 21.6248V18.0878C215.096 17.9431 215.213 17.8259 215.357 17.8259C215.502 17.8259 215.619 17.943 215.619 18.0878L215.619 22.4287C215.619 22.6832 215.826 22.8904 216.081 22.8904C216.204 22.8904 216.321 22.8425 216.408 22.7556C216.495 22.6685 216.542 22.5524 216.542 22.4287V18.0878C216.542 17.9431 216.66 17.8259 216.804 17.8259C216.949 17.8259 217.066 17.943 217.066 18.0878L217.066 21.5841V21.6248C217.066 21.8791 217.273 22.0862 217.528 22.0862C217.651 22.0862 217.767 22.0382 217.855 21.9509C217.942 21.8642 217.99 21.7484 217.99 21.6246V18.0876C217.99 17.943 218.107 17.8257 218.251 17.8257C218.396 17.8257 218.513 17.9428 218.513 18.0876L218.513 20.7574C218.513 21.0121 218.72 21.2192 218.974 21.2192C219.098 21.2192 219.214 21.1712 219.301 21.0844C219.388 20.9972 219.436 20.8811 219.436 20.7574L219.436 15.3459C219.436 13.5412 218.1 12.0726 216.458 12.0726L216.458 12.0726Z"/>
</mask>
<path d="M218.974 21.7427C218.807 21.7427 218.651 21.6966 218.513 21.6225V21.6245C218.513 21.8882 218.411 22.1358 218.225 22.3213C218.039 22.5073 217.791 22.6098 217.528 22.6098C217.358 22.6098 217.2 22.5625 217.06 22.4864C217.046 22.7277 216.95 22.9531 216.778 23.1254C216.592 23.3113 216.344 23.4138 216.081 23.4138C215.557 23.4138 215.132 23.0022 215.101 22.4863C214.939 22.5738 214.756 22.6198 214.567 22.6076C214.052 22.5738 213.649 22.1288 213.649 21.5941V17.1625L213.144 18.0367C212.952 18.3711 212.592 18.5787 212.205 18.5787C212.016 18.5787 211.829 18.5292 211.664 18.4346C211.459 18.3154 211.312 18.124 211.25 17.895C211.189 17.6659 211.221 17.4263 211.34 17.221C211.34 17.221 212.991 14.3621 213.091 14.1865C213.103 14.1601 213.137 14.0835 213.166 14.0182C213.194 13.9559 213.218 13.892 213.241 13.8277C213.739 12.4221 214.971 11.549 216.458 11.549C218.389 11.549 219.96 13.2522 219.96 15.3458L219.96 20.7573C219.96 21.0207 219.857 21.2681 219.672 21.4543C219.486 21.6402 219.238 21.7427 218.974 21.7427L218.974 21.7427ZM216.458 12.0726C215.181 12.0726 214.162 12.7941 213.734 14.0028C213.707 14.0795 213.678 14.1563 213.645 14.231C213.548 14.4477 213.548 14.4477 213.521 14.4788L213.518 14.4757C213.383 14.7301 212.982 15.4236 211.793 17.483C211.744 17.5675 211.731 17.6655 211.756 17.7593C211.781 17.8532 211.842 17.9322 211.926 17.9806C212.186 18.13 212.542 18.0335 212.69 17.7753L213.684 16.055C213.743 15.9525 213.863 15.9021 213.978 15.9333C214.093 15.9639 214.172 16.0677 214.172 16.1862V21.5943C214.172 21.8495 214.365 22.0697 214.601 22.0853C214.738 22.0925 214.865 22.0467 214.961 21.9513C215.048 21.8644 215.096 21.7486 215.096 21.6248V18.0878C215.096 17.9431 215.213 17.8259 215.357 17.8259C215.502 17.8259 215.619 17.943 215.619 18.0878L215.619 22.4287C215.619 22.6832 215.826 22.8904 216.081 22.8904C216.204 22.8904 216.321 22.8425 216.408 22.7556C216.495 22.6685 216.542 22.5524 216.542 22.4287V18.0878C216.542 17.9431 216.66 17.8259 216.804 17.8259C216.949 17.8259 217.066 17.943 217.066 18.0878L217.066 21.5841V21.6248C217.066 21.8791 217.273 22.0862 217.528 22.0862C217.651 22.0862 217.767 22.0382 217.855 21.9509C217.942 21.8642 217.99 21.7484 217.99 21.6246V18.0876C217.99 17.943 218.107 17.8257 218.251 17.8257C218.396 17.8257 218.513 17.9428 218.513 18.0876L218.513 20.7574C218.513 21.0121 218.72 21.2192 218.974 21.2192C219.098 21.2192 219.214 21.1712 219.301 21.0844C219.388 20.9972 219.436 20.8811 219.436 20.7574L219.436 15.3459C219.436 13.5412 218.1 12.0726 216.458 12.0726L216.458 12.0726Z" fill="#4CAF4F"/>
<path d="M218.974 21.7427V20.8146H222.253L219.461 22.5331L218.974 21.7427ZM218.513 21.6225H217.585V20.0718L218.952 20.8046L218.513 21.6225ZM218.225 22.3213L217.568 21.665L217.569 21.6642L218.225 22.3213ZM217.06 22.4864L216.134 22.4323L216.219 20.9716L217.504 21.6714L217.06 22.4864ZM216.778 23.1254L217.434 23.7813L217.434 23.7816L216.778 23.1254ZM215.101 22.4863L214.66 21.6698L215.941 20.9772L216.028 22.4312L215.101 22.4863ZM214.567 22.6076L214.508 23.5338L214.506 23.5337L214.567 22.6076ZM213.649 17.1625L212.845 16.6985L214.577 13.6981V17.1625H213.649ZM213.144 18.0367L212.339 17.5742L212.34 17.5728L213.144 18.0367ZM211.664 18.4346L211.203 19.2399L211.199 19.2375L211.664 18.4346ZM211.25 17.895L212.147 17.6544L212.147 17.6555L211.25 17.895ZM211.34 17.221L210.536 16.7559L210.805 16.2929H211.34V17.221ZM213.091 14.1865L213.937 14.5698L213.918 14.6099L213.896 14.6482L213.091 14.1865ZM213.166 14.0182L212.318 13.6411L212.318 13.6411L213.166 14.0182ZM213.241 13.8277L214.116 14.1376L214.115 14.1378L213.241 13.8277ZM219.96 15.3458L219.031 15.3458V15.3458H219.96ZM219.96 20.7573L220.888 20.7573V20.7573H219.96ZM219.672 21.4543L220.328 22.1099L220.328 22.1105L219.672 21.4543ZM218.974 21.7427V22.6708H215.695L218.488 20.9523L218.974 21.7427ZM216.458 12.0726V11.1445H217.689L217.351 12.3275L216.458 12.0726ZM213.734 14.0028L214.609 14.3127L214.608 14.3147L213.734 14.0028ZM213.645 14.231L214.493 14.6085L214.493 14.609L213.645 14.231ZM213.521 14.4788L214.22 15.0895L213.613 15.7844L212.915 15.1812L213.521 14.4788ZM213.518 14.4757L212.698 14.0411L213.243 13.0122L214.124 13.7733L213.518 14.4757ZM211.793 17.483L212.597 17.9472L212.596 17.9479L211.793 17.483ZM211.756 17.7593L210.86 18.0006L210.859 17.9977L211.756 17.7593ZM211.926 17.9806L211.463 18.7854L211.462 18.7844L211.926 17.9806ZM212.69 17.7753L211.885 17.3133L211.886 17.3111L212.69 17.7753ZM213.684 16.055L212.88 15.5908L212.881 15.5898L213.684 16.055ZM213.978 15.9333L213.738 16.8298L213.736 16.8291L213.978 15.9333ZM214.601 22.0853L214.552 23.0121L214.54 23.0114L214.601 22.0853ZM214.961 21.9513L215.617 22.6075L215.616 22.6081L214.961 21.9513ZM215.619 18.0878H216.547V18.0878L215.619 18.0878ZM215.619 22.4287H214.691V22.4287L215.619 22.4287ZM216.408 22.7556L217.065 23.4112L217.063 23.4125L216.408 22.7556ZM217.066 18.0878H217.994V18.0878L217.066 18.0878ZM217.066 21.5841H216.138V21.584L217.066 21.5841ZM217.855 21.9509L218.51 22.6078L218.51 22.6084L217.855 21.9509ZM218.513 18.0876H219.441V18.0877L218.513 18.0876ZM218.513 20.7574H217.585V20.7573L218.513 20.7574ZM219.301 21.0844L219.957 21.7407L219.957 21.7413L219.301 21.0844ZM219.436 20.7574H218.508V20.7574L219.436 20.7574ZM219.436 15.3459H220.364V15.3459L219.436 15.3459ZM216.458 12.0726V13.0007H215.228L215.566 11.8176L216.458 12.0726ZM218.974 22.6708C218.633 22.6708 218.328 22.5762 218.074 22.4404L218.952 20.8046C218.964 20.811 218.971 20.8135 218.974 20.8143C218.977 20.815 218.976 20.8146 218.974 20.8146V22.6708ZM219.441 21.6225V21.6245H217.585V21.6225H219.441ZM219.441 21.6245C219.441 22.1335 219.241 22.618 218.88 22.9784L217.569 21.6642C217.576 21.6575 217.579 21.6519 217.581 21.6472C217.583 21.6426 217.585 21.6354 217.585 21.6245H219.441ZM218.881 22.9776C218.521 23.3377 218.037 23.5378 217.528 23.5378V21.6817C217.538 21.6817 217.545 21.6797 217.55 21.6778C217.555 21.6758 217.561 21.6723 217.568 21.665L218.881 22.9776ZM217.528 23.5378C217.182 23.5378 216.873 23.441 216.616 23.3015L217.504 21.6714C217.516 21.6779 217.524 21.6804 217.527 21.6813C217.53 21.682 217.529 21.6817 217.528 21.6817V23.5378ZM217.987 22.5406C217.96 22.9974 217.775 23.4405 217.434 23.7813L216.121 22.4694C216.125 22.466 216.127 22.4629 216.128 22.4591C216.13 22.4549 216.133 22.4464 216.134 22.4323L217.987 22.5406ZM217.434 23.7816C217.074 24.1418 216.59 24.3419 216.081 24.3419V22.4857C216.092 22.4857 216.099 22.4838 216.103 22.4818C216.108 22.4798 216.114 22.4763 216.122 22.4691L217.434 23.7816ZM216.081 24.3419C215.056 24.3419 214.234 23.5377 214.175 22.5413L216.028 22.4312C216.029 22.447 216.035 22.4609 216.047 22.4718C216.052 22.4771 216.058 22.4805 216.063 22.4825C216.067 22.4843 216.072 22.4857 216.081 22.4857V24.3419ZM215.543 23.3027C215.243 23.4648 214.887 23.5582 214.508 23.5338L214.627 21.6814C214.627 21.6814 214.629 21.6816 214.634 21.6805C214.639 21.6793 214.648 21.6764 214.66 21.6698L215.543 23.3027ZM214.506 23.5337C213.476 23.4661 212.721 22.5898 212.721 21.5941H214.577C214.577 21.6255 214.588 21.6497 214.602 21.6654C214.616 21.6808 214.626 21.6814 214.628 21.6815L214.506 23.5337ZM212.721 21.5941V17.1625H214.577V21.5941H212.721ZM214.452 17.6265L213.948 18.5007L212.34 17.5728L212.845 16.6985L214.452 17.6265ZM213.949 18.4992C213.59 19.1232 212.922 19.5068 212.205 19.5068V17.6506C212.262 17.6506 212.314 17.6191 212.339 17.5742L213.949 18.4992ZM212.205 19.5068C211.854 19.5068 211.508 19.4148 211.203 19.2398L212.126 17.6293C212.151 17.6436 212.178 17.6506 212.205 17.6506V19.5068ZM211.199 19.2375C210.782 18.9959 210.479 18.6028 210.354 18.1346L212.147 17.6555C212.146 17.6523 212.144 17.6467 212.139 17.6409C212.135 17.6351 212.131 17.6323 212.13 17.6317L211.199 19.2375ZM210.354 18.1356C210.228 17.6678 210.294 17.1743 210.536 16.7559L212.143 17.6861C212.144 17.6838 212.146 17.6785 212.147 17.671C212.148 17.6635 212.148 17.6575 212.147 17.6544L210.354 18.1356ZM211.34 16.2929C210.884 16.4122 210.544 16.7438 210.541 16.7481C210.54 16.7495 210.539 16.7517 210.538 16.7524C210.538 16.7528 210.538 16.7534 210.538 16.7537C210.538 16.7538 210.537 16.7541 210.537 16.7542C210.537 16.7544 210.537 16.7543 210.538 16.7537C210.538 16.7526 210.539 16.7508 210.541 16.7481C210.544 16.7429 210.549 16.735 210.555 16.7245C210.567 16.7036 210.584 16.6728 210.607 16.6336C210.652 16.5551 210.717 16.4428 210.795 16.3074C210.952 16.0367 211.161 15.6739 211.374 15.3055C211.8 14.5677 212.237 13.811 212.286 13.7248L213.896 14.6482C213.845 14.7376 213.406 15.4982 212.981 16.2337C212.769 16.602 212.559 16.9649 212.403 17.2357C212.325 17.3711 212.26 17.4835 212.214 17.562C212.192 17.6013 212.174 17.6322 212.162 17.6532C212.156 17.6637 212.151 17.6719 212.148 17.6774C212.146 17.6802 212.145 17.6825 212.144 17.6841C212.143 17.6849 212.143 17.6859 212.142 17.6868C212.142 17.6871 212.142 17.6881 212.141 17.6894C212.14 17.6901 212.139 17.6924 212.138 17.6938C212.136 17.6981 211.795 18.0298 211.34 18.1491V16.2929ZM212.246 13.8032C212.256 13.7807 212.289 13.7081 212.318 13.6411L214.014 14.3954C213.986 14.459 213.95 14.5395 213.937 14.5698L212.246 13.8032ZM212.318 13.6411C212.331 13.6121 212.346 13.575 212.366 13.5175L214.115 14.1378C214.09 14.2089 214.057 14.2997 214.014 14.3954L212.318 13.6411ZM212.366 13.5178C212.995 11.7432 214.577 10.6209 216.458 10.6209V12.4771C215.366 12.4771 214.483 13.101 214.116 14.1376L212.366 13.5178ZM216.458 10.6209C218.971 10.6209 220.888 12.8119 220.888 15.3458H219.031C219.031 13.6926 217.807 12.4771 216.458 12.4771V10.6209ZM220.888 15.3458L220.888 20.7573L219.032 20.7573L219.031 15.3458L220.888 15.3458ZM220.888 20.7573C220.888 21.2662 220.688 21.7496 220.328 22.1099L219.015 20.7986C219.022 20.7913 219.026 20.785 219.028 20.7801C219.03 20.7753 219.032 20.7681 219.032 20.7573H220.888ZM220.328 22.1105C219.968 22.4708 219.484 22.6708 218.974 22.6708V20.8146C218.985 20.8146 218.992 20.8127 218.997 20.8107C219.002 20.8087 219.008 20.8052 219.015 20.798L220.328 22.1105ZM218.488 20.9523L218.488 20.9523L219.461 22.5331L219.461 22.5331L218.488 20.9523ZM216.458 13.0007C215.576 13.0007 214.907 13.4727 214.609 14.3127L212.859 13.6928C213.418 12.1156 214.786 11.1445 216.458 11.1445V13.0007ZM214.608 14.3147C214.579 14.3968 214.541 14.5005 214.493 14.6085L212.797 13.8536C212.816 13.8121 212.835 13.7622 212.86 13.6909L214.608 14.3147ZM214.493 14.609C214.45 14.7043 214.415 14.7848 214.387 14.8393C214.37 14.8732 214.343 14.9253 214.303 14.9831C214.263 15.0416 214.223 15.0858 214.22 15.0895L212.822 13.8682C212.824 13.8657 212.824 13.8665 212.823 13.8678C212.821 13.8694 212.818 13.8736 212.813 13.8794C212.808 13.8854 212.802 13.8931 212.795 13.9023C212.788 13.9115 212.781 13.9214 212.774 13.9318C212.759 13.9529 212.748 13.9715 212.74 13.9855C212.732 13.9986 212.728 14.0076 212.727 14.0097C212.726 14.0118 212.726 14.0105 212.73 14.0038C212.733 13.9972 212.737 13.9878 212.743 13.9741C212.749 13.9605 212.757 13.9441 212.766 13.9238C212.775 13.9035 212.785 13.8803 212.797 13.8531L214.493 14.609ZM212.915 15.1812L212.911 15.1781L214.124 13.7733L214.128 13.7764L212.915 15.1812ZM214.338 14.9103C214.192 15.1844 213.778 15.9021 212.597 17.9472L210.989 17.0189C212.187 14.9451 212.573 14.2757 212.698 14.0411L214.338 14.9103ZM212.596 17.9479C212.67 17.8195 212.691 17.6647 212.653 17.521L210.859 17.9977C210.771 17.6664 210.818 17.3154 210.99 17.0182L212.596 17.9479ZM212.652 17.5181C212.614 17.3762 212.52 17.2522 212.39 17.1768L211.462 18.7844C211.163 18.6122 210.948 18.3301 210.86 18.0006L212.652 17.5181ZM212.388 17.1758C212.282 17.1151 212.179 17.1155 212.108 17.1346C212.038 17.1536 211.947 17.2052 211.885 17.3133L213.495 18.2372C213.091 18.942 212.166 19.1891 211.463 18.7853L212.388 17.1758ZM211.886 17.3111L212.88 15.5908L214.487 16.5191L213.494 18.2394L211.886 17.3111ZM212.881 15.5898C213.149 15.127 213.696 14.8954 214.221 15.0374L213.736 16.8291C214.03 16.9089 214.337 16.7779 214.487 16.5201L212.881 15.5898ZM214.218 15.0368C214.739 15.1763 215.1 15.6481 215.1 16.1862H213.244C213.244 16.4874 213.446 16.7516 213.738 16.8298L214.218 15.0368ZM215.1 16.1862V21.5943H213.244V16.1862H215.1ZM215.1 21.5943C215.1 21.4885 215.061 21.3924 214.997 21.3188C214.933 21.2453 214.819 21.1695 214.662 21.1592L214.54 23.0114C213.759 22.9599 213.244 22.2794 213.244 21.5943H215.1ZM214.65 21.1585C214.541 21.1527 214.407 21.1928 214.305 21.2944L215.616 22.6081C215.323 22.9006 214.935 23.0323 214.552 23.0121L214.65 21.1585ZM214.304 21.295C214.216 21.3831 214.167 21.5038 214.167 21.6248H216.024C216.024 21.9934 215.879 22.3456 215.617 22.6075L214.304 21.295ZM214.167 21.6248V18.0878H216.024V21.6248H214.167ZM214.167 18.0878C214.167 17.4306 214.7 16.8978 215.357 16.8978V18.754C215.725 18.754 216.024 18.4557 216.024 18.0878H214.167ZM215.357 16.8978C216.014 16.8978 216.547 17.43 216.547 18.0878H214.691C214.691 18.4559 214.99 18.754 215.357 18.754V16.8978ZM216.547 18.0878L216.547 22.4288L214.691 22.4287L214.691 18.0877L216.547 18.0878ZM216.547 22.4287C216.547 22.1707 216.339 21.9623 216.081 21.9623V23.8185C215.314 23.8185 214.691 23.1958 214.691 22.4287H216.547ZM216.081 21.9623C215.96 21.9623 215.84 22.0109 215.752 22.0987L217.063 23.4125C216.801 23.674 216.449 23.8185 216.081 23.8185V21.9623ZM215.751 22.0999C215.663 22.1878 215.614 22.3079 215.614 22.4287H217.471C217.471 22.7968 217.326 23.1491 217.065 23.4112L215.751 22.0999ZM215.614 22.4287V18.0878H217.471V22.4287H215.614ZM215.614 18.0878C215.614 17.431 216.147 16.8978 216.804 16.8978V18.754C217.172 18.754 217.471 18.4553 217.471 18.0878H215.614ZM216.804 16.8978C217.461 16.8978 217.994 17.43 217.994 18.0878H216.138C216.138 18.4559 216.437 18.754 216.804 18.754V16.8978ZM217.994 18.0878L217.994 21.5841L216.138 21.584L216.138 18.0877L217.994 18.0878ZM217.994 21.5841V21.6248H216.138V21.5841H217.994ZM217.994 21.6248C217.994 21.3661 217.785 21.1581 217.528 21.1581V23.0143C216.761 23.0143 216.138 22.3921 216.138 21.6248H217.994ZM217.528 21.1581C217.405 21.1581 217.285 21.2083 217.2 21.2934L218.51 22.6084C218.249 22.8681 217.898 23.0143 217.528 23.0143V21.1581ZM217.199 21.2941C217.11 21.3827 217.061 21.5037 217.061 21.6246H218.918C218.918 21.9931 218.773 22.3457 218.51 22.6078L217.199 21.2941ZM217.061 21.6246V18.0876H218.918V21.6246H217.061ZM217.061 18.0876C217.061 17.4308 217.594 16.8976 218.251 16.8976V18.7538C218.62 18.7538 218.918 18.4552 218.918 18.0876H217.061ZM218.251 16.8976C218.908 16.8976 219.441 17.4298 219.441 18.0876H217.585C217.585 18.4557 217.884 18.7538 218.251 18.7538V16.8976ZM219.441 18.0877L219.441 20.7575L217.585 20.7573L217.585 18.0875L219.441 18.0877ZM219.441 20.7574C219.441 20.5 219.233 20.2911 218.974 20.2911V22.1473C218.207 22.1473 217.585 21.5242 217.585 20.7574H219.441ZM218.974 20.2911C218.853 20.2911 218.733 20.3404 218.645 20.4275L219.957 21.7413C219.695 22.0019 219.344 22.1473 218.974 22.1473V20.2911ZM218.645 20.4281C218.556 20.5165 218.508 20.6371 218.508 20.7574H220.364C220.364 21.125 220.22 21.4778 219.957 21.7407L218.645 20.4281ZM218.508 20.7574L218.508 15.3459L220.364 15.3459L220.364 20.7574L218.508 20.7574ZM218.508 15.3459C218.508 13.9692 217.507 13.0007 216.458 13.0007V11.1445C218.693 11.1445 220.364 13.1132 220.364 15.3459H218.508ZM215.566 11.8176L215.566 11.8176L217.351 12.3275L217.351 12.3276L215.566 11.8176Z" fill="#4CAF4F" mask="url(#path-4-inside-1_15_1279)"/>
<path d="M210.492 26.7176C210.368 26.7924 210.207 26.7521 210.133 26.6279C210.059 26.504 210.099 26.3431 210.223 26.2686M210.492 26.7176L212.755 23.6731C212.974 23.5417 213.262 23.5936 213.397 23.7886M210.492 26.7176L213.525 24.8981H213.525L213.526 24.898M210.492 26.7176L214.69 25.2763C214.796 25.2127 214.87 25.112 214.9 24.9924M210.223 26.2686L213.256 24.4491C213.362 24.3855 213.437 24.2846 213.467 24.1654M210.223 26.2686L210.253 26.3198L210.357 26.4932L210.358 26.4935L210.405 26.5716L210.461 26.6666L210.462 26.6665L210.462 26.6665L210.462 26.6663M210.223 26.2686L210.254 26.3198M213.467 24.1654C213.499 24.0345 213.474 23.9007 213.397 23.7886M213.467 24.1654L213.541 24.1842L213.534 24.0303C213.529 23.9244 213.498 23.8304 213.446 23.7548L213.446 23.7546L213.397 23.7886M213.467 24.1654L213.541 24.1842L213.549 24.343L213.397 24.4341H213.397L213.287 24.5002L213.286 24.5002L213.286 24.5002L210.254 26.3197M213.397 23.7886L213.446 23.7546L211.206 27.907C211.302 27.8498 211.333 27.7259 211.275 27.6298C211.218 27.5344 211.094 27.5031 210.998 27.5604L214.031 25.741C214.101 25.6992 214.174 25.6676 214.248 25.6459L214.719 25.3247L214.719 25.3246L214.745 25.307C214.855 25.2316 214.928 25.1272 214.958 25.007L214.958 25.0069L214.9 24.9924M210.254 26.3197C210.349 26.2626 210.473 26.2936 210.531 26.389C210.531 26.3892 210.531 26.3894 210.531 26.3896C210.588 26.4857 210.557 26.6092 210.462 26.6663M210.254 26.3197C210.254 26.3197 210.254 26.3198 210.254 26.3198M210.254 26.3197L210.254 26.3198M210.462 26.6663L213.495 24.8471L213.495 24.847L213.495 24.8469C213.495 24.8469 213.495 24.8468 213.495 24.8468L213.525 24.8971L213.525 24.8974L213.526 24.898M210.462 26.6663L210.358 26.4934L210.358 26.493L210.323 26.4345L210.254 26.3198M213.526 24.898V24.8275C213.584 24.7892 213.638 24.7447 213.686 24.6952L214.185 24.4346L214.185 24.4346L214.213 24.4201C214.293 24.3782 214.374 24.3587 214.451 24.3587C214.492 24.3587 214.535 24.3638 214.579 24.3746C214.579 24.3746 214.579 24.3747 214.579 24.3747C214.579 24.3747 214.579 24.3747 214.579 24.3748L214.677 23.9824M213.526 24.898L214.215 24.4845C214.32 24.4212 214.444 24.4027 214.564 24.4326C214.684 24.4624 214.785 24.5372 214.848 24.643C214.912 24.7489 214.93 24.873 214.9 24.9924M214.677 23.9824C214.677 23.9824 214.677 23.9824 214.677 23.9824M214.677 23.9824C214.916 24.0421 215.119 24.1931 215.246 24.4041L215.297 24.3735M214.677 23.9824L214.691 23.9245M214.677 23.9824L214.579 24.3747C214.715 24.4086 214.827 24.492 214.899 24.6121C214.899 24.6122 214.899 24.6122 214.899 24.6123C214.899 24.6123 214.899 24.6123 214.899 24.6123C214.972 24.7331 214.992 24.8715 214.958 25.0067L214.958 25.0068L214.9 24.9924M214.677 23.9824C214.677 23.9824 214.677 23.9823 214.677 23.9823L214.676 23.9822C214.604 23.9644 214.532 23.9553 214.459 23.9546M214.677 23.9824L214.691 23.9245M214.239 26.0877L214.501 25.9308L214.771 26.0899C214.851 26.1375 214.912 26.1972 214.954 26.2662L214.954 26.2664C214.954 26.2665 214.954 26.2666 214.954 26.2667L214.903 26.2973M214.239 26.0877L215.013 26.6613C215.047 26.5256 215.026 26.3873 214.954 26.2667L214.903 26.2973M214.239 26.0877L214.27 26.1389M214.239 26.0877L214.239 26.0877L214.27 26.1389M214.903 26.2973C214.772 26.079 214.488 26.008 214.27 26.1389M214.903 26.2973C214.967 26.4031 214.985 26.5274 214.955 26.6469L214.27 26.1389M215.345 26.017C215.347 26.0206 215.35 26.0242 215.352 26.0279L215.345 26.017ZM215.345 26.017C215.33 26.0292 215.314 26.0411 215.298 26.0528C215.299 26.0545 215.3 26.0563 215.301 26.0581L215.345 26.017ZM215.273 25.3092C215.306 25.2451 215.333 25.1767 215.351 25.105L215.273 25.3092ZM215.273 25.3092C215.29 25.3196 215.306 25.3303 215.323 25.3413C215.36 25.2721 215.389 25.1978 215.408 25.1193C215.472 24.8643 215.433 24.5994 215.297 24.3735M215.273 25.3092L215.351 25.1049C215.41 24.8657 215.373 24.6154 215.246 24.4045L215.246 24.4042C215.246 24.4042 215.246 24.4041 215.246 24.4041L215.297 24.3735M215.297 24.3735C215.162 24.1478 214.947 23.9883 214.691 23.9245M214.691 23.9245L214.454 23.8946M214.454 23.8946C214.456 23.9146 214.458 23.9346 214.459 23.9546M214.454 23.8946C214.453 23.8946 214.452 23.8946 214.451 23.8946C214.294 23.8946 214.139 23.9348 213.998 24.0088M214.454 23.8946L213.998 24.0088M214.459 23.9546C214.46 23.9655 214.461 23.9764 214.461 23.9872L214.451 23.9877L214.162 24.0011M214.459 23.9546C214.457 23.9546 214.454 23.9546 214.451 23.9546C214.353 23.9547 214.256 23.9703 214.162 24.0011M214.162 24.0011L213.998 24.0088M214.162 24.0011C214.115 24.0167 214.069 24.0362 214.024 24.0596C214.008 24.0681 213.992 24.077 213.976 24.0865L213.976 24.0866L213.943 24.1064M213.998 24.0088L213.733 24.2323L213.733 24.2322L213.917 24.2781C213.917 24.2781 213.917 24.2782 213.917 24.2782C213.931 24.2211 213.94 24.1637 213.943 24.1064M213.998 24.0088L213.927 23.873M213.998 24.0088C213.99 23.8506 213.949 23.695 213.869 23.556C213.851 23.5641 213.833 23.5725 213.815 23.5813M213.943 24.1064C213.945 24.0746 213.945 24.0428 213.944 24.0113C213.942 23.9647 213.936 23.9185 213.927 23.873M213.943 24.1064L213.927 23.873M213.927 23.873L213.783 23.5974C213.794 23.5919 213.804 23.5866 213.815 23.5813M213.927 23.873L213.778 23.5244C213.791 23.543 213.803 23.562 213.815 23.5813M213.927 23.873C213.907 23.771 213.869 23.6725 213.815 23.5813M215.006 25.6902L215.086 25.5557C215.051 25.5879 215.014 25.6175 214.975 25.6444C214.96 25.6547 214.944 25.6646 214.929 25.6741L214.928 25.6742L214.895 25.6944L215.006 25.6902ZM207.596 23.5306L207.543 23.5028C207.533 23.5203 207.509 23.5638 207.473 23.628C207.464 23.6439 207.455 23.6611 207.445 23.6795C207.463 23.6886 207.481 23.6965 207.5 23.7034C207.531 23.6469 207.563 23.5893 207.596 23.5306ZM211.743 28.8012C211.742 28.8012 211.742 28.8013 211.742 28.8013L211.743 28.8012Z" fill="#4CAF4F" stroke="#4CAF4F" stroke-width="0.928093"/>
<path d="M223.444 24.3667L223.444 24.3668L223.444 24.3667ZM223.444 24.3667C223.347 24.1925 223.351 23.978 223.454 23.8063L223.444 24.3667ZM217.702 23.9545C217.63 23.9551 217.557 23.9642 217.485 23.9823L217.702 23.9545ZM217.702 23.9545C217.704 23.9345 217.706 23.9145 217.708 23.8946L217.702 23.9545ZM223.026 24.6922L222.987 24.6212L223.026 24.6922ZM221.908 26.3197C221.908 26.3196 221.908 26.3196 221.908 26.3195L221.908 26.3196L221.908 26.3197ZM220.419 28.8016C220.419 28.8016 220.419 28.8015 220.419 28.8014L220.419 28.8016ZM220.419 28.8013L220.419 28.8014L220.419 28.8013Z" fill="#4CAF4F" stroke="#4CAF4F" stroke-width="0.928093"/>
<g clip-path="url(#clip3_15_1279)">
<path d="M250.143 20.6838C249.165 20.6838 248.293 20.5038 247.527 20.1439C246.766 19.784 246.161 19.288 245.714 18.6559C245.266 18.0238 245.033 17.2993 245.015 16.4826H247.922C247.954 17.0317 248.185 17.477 248.614 17.8184C249.043 18.1599 249.553 18.3306 250.143 18.3306C250.614 18.3306 251.029 18.2268 251.389 18.0191C251.754 17.8069 252.037 17.5139 252.24 17.1402C252.448 16.7618 252.552 16.3281 252.552 15.839C252.552 15.3407 252.446 14.9023 252.233 14.524C252.026 14.1456 251.737 13.8503 251.368 13.6381C250.999 13.4258 250.577 13.3174 250.102 13.3128C249.687 13.3128 249.283 13.3981 248.891 13.5688C248.503 13.7396 248.201 13.9726 247.984 14.2679L245.319 13.7903L245.991 6.31548H254.656V8.76557H248.461L248.095 12.3161H248.178C248.427 11.9654 248.803 11.6748 249.306 11.4441C249.809 11.2133 250.372 11.098 250.995 11.098C251.848 11.098 252.61 11.2987 253.279 11.7001C253.948 12.1016 254.476 12.6529 254.864 13.3543C255.251 14.051 255.443 14.8539 255.438 15.7628C255.443 16.718 255.221 17.567 254.774 18.3098C254.331 19.0481 253.71 19.6295 252.912 20.054C252.118 20.4738 251.195 20.6838 250.143 20.6838ZM262.705 20.6838C261.727 20.6838 260.855 20.5038 260.089 20.1439C259.328 19.784 258.723 19.288 258.276 18.6559C257.828 18.0238 257.595 17.2993 257.577 16.4826H260.484C260.516 17.0317 260.747 17.477 261.176 17.8184C261.605 18.1599 262.115 18.3306 262.705 18.3306C263.176 18.3306 263.591 18.2268 263.951 18.0191C264.316 17.8069 264.599 17.5139 264.802 17.1402C265.01 16.7618 265.114 16.3281 265.114 15.839C265.114 15.3407 265.008 14.9023 264.795 14.524C264.588 14.1456 264.299 13.8503 263.93 13.6381C263.561 13.4258 263.139 13.3174 262.664 13.3128C262.248 13.3128 261.845 13.3981 261.452 13.5688C261.065 13.7396 260.763 13.9726 260.546 14.2679L257.881 13.7903L258.553 6.31548H267.218V8.76557H261.023L260.657 12.3161H260.74C260.989 11.9654 261.365 11.6748 261.868 11.4441C262.371 11.2133 262.934 11.098 263.556 11.098C264.41 11.098 265.171 11.2987 265.84 11.7001C266.51 12.1016 267.038 12.6529 267.425 13.3543C267.813 14.051 268.004 14.8539 268 15.7628C268.004 16.718 267.783 17.567 267.335 18.3098C266.892 19.0481 266.272 19.6295 265.474 20.054C264.68 20.4738 263.757 20.6838 262.705 20.6838Z" fill="#4D4D4D"/>
<path d="M246.966 38.6165C246.459 38.6165 246.012 38.4887 245.625 38.2329C245.237 37.9745 244.934 37.6107 244.715 37.1414C244.496 36.6694 244.387 36.1118 244.387 35.4684C244.387 34.8304 244.496 34.2767 244.715 33.8073C244.934 33.338 245.239 32.9755 245.629 32.7197C246.019 32.464 246.47 32.3361 246.981 32.3361C247.377 32.3361 247.689 32.402 247.919 32.5339C248.151 32.663 248.327 32.8107 248.449 32.9768C248.573 33.1403 248.669 33.2747 248.737 33.3802H248.816V30.3903H249.75V38.49H248.848V37.5566H248.737C248.669 37.6674 248.571 37.8071 248.445 37.9758C248.318 38.142 248.137 38.2909 247.903 38.4228C247.668 38.552 247.356 38.6165 246.966 38.6165ZM247.092 37.7781C247.466 37.7781 247.783 37.6805 248.041 37.4854C248.3 37.2877 248.496 37.0148 248.631 36.6668C248.765 36.3161 248.832 35.9114 248.832 35.4526C248.832 34.9991 248.766 34.6023 248.635 34.2622C248.503 33.9194 248.308 33.6531 248.049 33.4633C247.791 33.2708 247.472 33.1746 247.092 33.1746C246.697 33.1746 246.367 33.2761 246.103 33.4791C245.842 33.6795 245.646 33.9524 245.514 34.2978C245.385 34.6405 245.32 35.0255 245.32 35.4526C245.32 35.885 245.386 36.2779 245.518 36.6312C245.652 36.9818 245.85 37.2613 246.111 37.4696C246.375 37.6753 246.702 37.7781 247.092 37.7781ZM254.136 38.6165C253.55 38.6165 253.046 38.4874 252.621 38.229C252.199 37.9679 251.874 37.6041 251.644 37.1374C251.417 36.6681 251.304 36.1223 251.304 35.5001C251.304 34.8778 251.417 34.3294 251.644 33.8548C251.874 33.3776 252.193 33.0058 252.601 32.7395C253.013 32.4706 253.492 32.3361 254.041 32.3361C254.357 32.3361 254.67 32.3888 254.978 32.4943C255.287 32.5998 255.568 32.7711 255.821 33.0084C256.074 33.2431 256.275 33.5542 256.426 33.9418C256.576 34.3294 256.651 34.8066 256.651 35.3735V35.769H251.969V34.9622H255.702C255.702 34.6194 255.633 34.3136 255.496 34.0446C255.362 33.7757 255.169 33.5635 254.919 33.4079C254.671 33.2523 254.378 33.1746 254.041 33.1746C253.669 33.1746 253.347 33.2668 253.076 33.4514C252.807 33.6333 252.6 33.8706 252.455 34.1633C252.31 34.456 252.237 34.7697 252.237 35.1046V35.6424C252.237 36.1012 252.317 36.4901 252.475 36.8091C252.636 37.1255 252.858 37.3668 253.143 37.5329C253.428 37.6964 253.759 37.7781 254.136 37.7781C254.381 37.7781 254.603 37.7438 254.8 37.6753C255.001 37.6041 255.173 37.4986 255.318 37.3589C255.463 37.2165 255.575 37.0398 255.655 36.8289L256.556 37.082C256.461 37.3879 256.302 37.6568 256.078 37.8888C255.854 38.1182 255.577 38.2975 255.247 38.4267C254.918 38.5533 254.547 38.6165 254.136 38.6165ZM258.071 40.768V32.4152H258.973V33.3802H259.083C259.152 33.2747 259.247 33.1403 259.368 32.9768C259.492 32.8107 259.669 32.663 259.898 32.5339C260.13 32.402 260.444 32.3361 260.839 32.3361C261.351 32.3361 261.802 32.464 262.192 32.7197C262.582 32.9755 262.887 33.338 263.106 33.8073C263.324 34.2767 263.434 34.8304 263.434 35.4684C263.434 36.1118 263.324 36.6694 263.106 37.1414C262.887 37.6107 262.584 37.9745 262.196 38.2329C261.808 38.4887 261.361 38.6165 260.855 38.6165C260.465 38.6165 260.153 38.552 259.918 38.4228C259.683 38.2909 259.503 38.142 259.376 37.9758C259.25 37.8071 259.152 37.6674 259.083 37.5566H259.004V40.768H258.071ZM258.989 35.4526C258.989 35.9114 259.056 36.3161 259.19 36.6668C259.325 37.0148 259.521 37.2877 259.78 37.4854C260.038 37.6805 260.354 37.7781 260.729 37.7781C261.119 37.7781 261.445 37.6753 261.706 37.4696C261.969 37.2613 262.167 36.9818 262.299 36.6312C262.433 36.2779 262.501 35.885 262.501 35.4526C262.501 35.0255 262.435 34.6405 262.303 34.2978C262.174 33.9524 261.977 33.6795 261.713 33.4791C261.452 33.2761 261.124 33.1746 260.729 33.1746C260.349 33.1746 260.03 33.2708 259.772 33.4633C259.513 33.6531 259.318 33.9194 259.186 34.2622C259.054 34.6023 258.989 34.9991 258.989 35.4526ZM266.645 38.6324C266.26 38.6324 265.911 38.5599 265.597 38.4148C265.283 38.2672 265.034 38.0549 264.85 37.7781C264.665 37.4986 264.573 37.1611 264.573 36.7656C264.573 36.4176 264.641 36.1355 264.779 35.9193C264.916 35.7004 265.099 35.5291 265.328 35.4051C265.558 35.2812 265.811 35.1889 266.088 35.1283C266.367 35.065 266.648 35.0149 266.93 34.978C267.299 34.9305 267.598 34.8949 267.828 34.8712C268.06 34.8449 268.229 34.8013 268.334 34.7407C268.442 34.6801 268.496 34.5746 268.496 34.4243V34.3927C268.496 34.0025 268.389 33.6992 268.176 33.483C267.965 33.2668 267.645 33.1587 267.215 33.1587C266.769 33.1587 266.42 33.2563 266.167 33.4514C265.914 33.6465 265.736 33.8548 265.633 34.0763L264.747 33.7599C264.905 33.3908 265.116 33.1034 265.38 32.8977C265.646 32.6894 265.936 32.5444 266.25 32.4627C266.566 32.3783 266.877 32.3361 267.183 32.3361C267.378 32.3361 267.602 32.3598 267.856 32.4073C268.111 32.4521 268.358 32.5457 268.595 32.6881C268.835 32.8305 269.034 33.0454 269.192 33.3327C269.35 33.6201 269.43 34.0051 269.43 34.4876V38.49H268.496V37.6674H268.449C268.385 37.7992 268.28 37.9403 268.132 38.0905C267.985 38.2408 267.788 38.3687 267.543 38.4742C267.298 38.5796 266.999 38.6324 266.645 38.6324ZM266.788 37.7939C267.157 37.7939 267.468 37.7214 267.721 37.5764C267.977 37.4314 268.169 37.2442 268.298 37.0148C268.43 36.7854 268.496 36.5442 268.496 36.291V35.4368C268.457 35.4842 268.37 35.5277 268.235 35.5673C268.103 35.6042 267.95 35.6372 267.776 35.6662C267.605 35.6925 267.438 35.7163 267.274 35.7374C267.113 35.7558 266.983 35.7716 266.883 35.7848C266.64 35.8165 266.413 35.8679 266.202 35.9391C265.994 36.0076 265.825 36.1118 265.696 36.2515C265.57 36.3886 265.506 36.5758 265.506 36.8131C265.506 37.1374 265.626 37.3826 265.866 37.5487C266.109 37.7122 266.416 37.7939 266.788 37.7939ZM271.133 38.49V32.4152H272.035V33.3327H272.098C272.209 33.0322 272.409 32.7883 272.699 32.6011C272.989 32.4139 273.316 32.3203 273.68 32.3203C273.749 32.3203 273.834 32.3216 273.937 32.3242C274.04 32.3269 274.118 32.3308 274.171 32.3361V33.2853C274.139 33.2774 274.066 33.2655 273.953 33.2497C273.842 33.2312 273.725 33.222 273.601 33.222C273.306 33.222 273.042 33.284 272.81 33.4079C272.581 33.5292 272.399 33.6979 272.264 33.9141C272.132 34.1277 272.067 34.3716 272.067 34.6458V38.49H271.133ZM278.3 32.4152V33.2062H275.151V32.4152H278.3ZM276.069 30.9598H277.002V36.7498C277.002 37.0135 277.041 37.2112 277.117 37.3431C277.196 37.4723 277.296 37.5593 277.418 37.6041C277.541 37.6463 277.672 37.6674 277.809 37.6674C277.912 37.6674 277.996 37.6621 278.062 37.6515C278.128 37.6384 278.181 37.6278 278.22 37.6199L278.41 38.4584C278.347 38.4821 278.259 38.5058 278.145 38.5295C278.032 38.5559 277.888 38.5691 277.714 38.5691C277.451 38.5691 277.192 38.5124 276.939 38.399C276.689 38.2857 276.48 38.113 276.314 37.8809C276.151 37.6489 276.069 37.3562 276.069 37.0029V30.9598ZM279.704 38.49V32.4152H280.605V33.3644H280.684C280.811 33.0401 281.015 32.7883 281.297 32.609C281.579 32.4271 281.918 32.3361 282.314 32.3361C282.715 32.3361 283.048 32.4271 283.314 32.609C283.583 32.7883 283.793 33.0401 283.943 33.3644H284.006C284.162 33.0506 284.395 32.8015 284.707 32.6169C285.018 32.4297 285.391 32.3361 285.826 32.3361C286.369 32.3361 286.813 32.5062 287.159 32.8463C287.504 33.1838 287.677 33.7098 287.677 34.4243V38.49H286.743V34.4243C286.743 33.9761 286.621 33.6557 286.376 33.4633C286.13 33.2708 285.842 33.1746 285.509 33.1746C285.082 33.1746 284.751 33.3037 284.517 33.5621C284.282 33.8179 284.165 34.1422 284.165 34.535V38.49H283.216V34.3294C283.216 33.984 283.103 33.7058 282.879 33.4949C282.655 33.2813 282.367 33.1746 282.013 33.1746C281.771 33.1746 281.544 33.2391 281.333 33.3683C281.125 33.4975 280.956 33.6768 280.827 33.9062C280.7 34.133 280.637 34.3953 280.637 34.6932V38.49H279.704ZM291.93 38.6165C291.345 38.6165 290.84 38.4874 290.415 38.229C289.994 37.9679 289.668 37.6041 289.439 37.1374C289.212 36.6681 289.098 36.1223 289.098 35.5001C289.098 34.8778 289.212 34.3294 289.439 33.8548C289.668 33.3776 289.987 33.0058 290.396 32.7395C290.807 32.4706 291.287 32.3361 291.835 32.3361C292.152 32.3361 292.464 32.3888 292.773 32.4943C293.081 32.5998 293.362 32.7711 293.615 33.0084C293.868 33.2431 294.07 33.5542 294.22 33.9418C294.37 34.3294 294.446 34.8066 294.446 35.3735V35.769H289.763V34.9622H293.496C293.496 34.6194 293.428 34.3136 293.291 34.0446C293.156 33.7757 292.964 33.5635 292.713 33.4079C292.465 33.2523 292.173 33.1746 291.835 33.1746C291.464 33.1746 291.142 33.2668 290.87 33.4514C290.601 33.6333 290.394 33.8706 290.249 34.1633C290.104 34.456 290.032 34.7697 290.032 35.1046V35.6424C290.032 36.1012 290.111 36.4901 290.269 36.8091C290.43 37.1255 290.653 37.3668 290.938 37.5329C291.222 37.6964 291.553 37.7781 291.93 37.7781C292.175 37.7781 292.397 37.7438 292.595 37.6753C292.795 37.6041 292.968 37.4986 293.113 37.3589C293.258 37.2165 293.37 37.0398 293.449 36.8289L294.351 37.082C294.256 37.3879 294.096 37.6568 293.872 37.8888C293.648 38.1182 293.371 38.2975 293.042 38.4267C292.712 38.5533 292.342 38.6165 291.93 38.6165ZM296.799 34.8356V38.49H295.865V32.4152H296.767V33.3644H296.846C296.989 33.0559 297.205 32.8081 297.495 32.6209C297.785 32.431 298.159 32.3361 298.618 32.3361C299.029 32.3361 299.389 32.4205 299.698 32.5892C300.006 32.7553 300.246 33.0084 300.418 33.3486C300.589 33.6861 300.675 34.1132 300.675 34.63V38.49H299.741V34.6932C299.741 34.216 299.617 33.8443 299.369 33.578C299.122 33.309 298.781 33.1746 298.349 33.1746C298.051 33.1746 297.785 33.2391 297.55 33.3683C297.318 33.4975 297.135 33.6861 297 33.9339C296.866 34.1817 296.799 34.4823 296.799 34.8356ZM305.022 32.4152V33.2062H301.874V32.4152H305.022ZM302.791 30.9598H303.725V36.7498C303.725 37.0135 303.763 37.2112 303.84 37.3431C303.919 37.4723 304.019 37.5593 304.14 37.6041C304.264 37.6463 304.395 37.6674 304.532 37.6674C304.634 37.6674 304.719 37.6621 304.785 37.6515C304.851 37.6384 304.903 37.6278 304.943 37.6199L305.133 38.4584C305.07 38.4821 304.981 38.5058 304.868 38.5295C304.754 38.5559 304.611 38.5691 304.437 38.5691C304.173 38.5691 303.915 38.5124 303.662 38.399C303.411 38.2857 303.203 38.113 303.037 37.8809C302.873 37.6489 302.791 37.3562 302.791 37.0029V30.9598Z" fill="#717171"/>
</g>
</g>
<g clip-path="url(#clip4_15_1279)">
<g clip-path="url(#clip5_15_1279)">
<g clip-path="url(#clip6_15_1279)">
<path d="M82.6538 101.058L72.9092 106.626V84.3525L82.6538 78.7842M82.6538 101.058L93.7904 106.626M82.6538 101.058V78.7842M93.7904 106.626L103.535 101.058V78.7842L93.7904 84.3525M93.7904 106.626V84.3525M93.7904 84.3525L82.6538 78.7842" stroke="#4CAF4F" stroke-width="4" stroke-linecap="round" stroke-linejoin="round"/>
</g>
</g>
<g clip-path="url(#clip7_15_1279)">
<path d="M117.104 91.3328V89.1734L122.15 84.5016C122.579 84.0863 122.939 83.7126 123.229 83.3804C123.525 83.0482 123.748 82.7229 123.901 82.4045C124.053 82.0815 124.129 81.7331 124.129 81.3594C124.129 80.9441 124.034 80.5865 123.845 80.2866C123.656 79.9821 123.398 79.7491 123.07 79.5876C122.742 79.4215 122.371 79.3384 121.956 79.3384C121.522 79.3384 121.144 79.4261 120.821 79.6014C120.498 79.7768 120.248 80.0282 120.073 80.3558C119.898 80.6834 119.81 81.0733 119.81 81.5255H116.966C116.966 80.5981 117.176 79.7929 117.595 79.11C118.015 78.4271 118.604 77.8988 119.36 77.5251C120.117 77.1513 120.989 76.9645 121.976 76.9645C122.992 76.9645 123.875 77.1444 124.627 77.5043C125.384 77.8596 125.972 78.3533 126.392 78.9854C126.812 79.6176 127.022 80.342 127.022 81.1587C127.022 81.6939 126.916 82.2222 126.704 82.7436C126.496 83.265 126.125 83.8441 125.589 84.4808C125.054 85.113 124.3 85.872 123.326 86.7579L121.257 88.7858V88.8827H127.209V91.3328H117.104ZM134.62 91.5266C133.586 91.5266 132.666 91.3489 131.858 90.9936C131.055 90.6337 130.421 90.14 129.955 89.5125C129.493 88.8804 129.256 88.1513 129.242 87.3254H132.26C132.278 87.6715 132.391 87.976 132.599 88.239C132.811 88.4974 133.092 88.6981 133.443 88.8412C133.794 88.9842 134.188 89.0557 134.627 89.0557C135.083 89.0557 135.487 88.975 135.838 88.8135C136.188 88.652 136.463 88.4282 136.661 88.1421C136.86 87.856 136.959 87.5261 136.959 87.1524C136.959 86.774 136.853 86.4395 136.641 86.1488C136.433 85.8535 136.133 85.6228 135.741 85.4567C135.353 85.2906 134.892 85.2076 134.357 85.2076H133.035V83.0066H134.357C134.809 83.0066 135.208 82.9282 135.554 82.7713C135.905 82.6144 136.177 82.3976 136.371 82.1207C136.565 81.8393 136.661 81.5117 136.661 81.1379C136.661 80.7826 136.576 80.4712 136.405 80.2036C136.239 79.9313 136.004 79.7191 135.699 79.5668C135.399 79.4146 135.049 79.3384 134.647 79.3384C134.241 79.3384 133.87 79.4122 133.533 79.5599C133.196 79.7029 132.926 79.9083 132.723 80.1759C132.52 80.4435 132.412 80.7573 132.398 81.1172H129.526C129.54 80.3005 129.773 79.5807 130.225 78.9578C130.677 78.3349 131.286 77.8481 132.052 77.4974C132.822 77.1421 133.692 76.9645 134.661 76.9645C135.639 76.9645 136.495 77.1421 137.229 77.4974C137.963 77.8527 138.532 78.3325 138.938 78.937C139.349 79.5368 139.552 80.2105 139.548 80.958C139.552 81.7516 139.305 82.4137 138.807 82.9443C138.313 83.475 137.67 83.8118 136.876 83.9548V84.0656C137.919 84.1994 138.712 84.5616 139.257 85.1522C139.806 85.7382 140.078 86.4718 140.074 87.3531C140.078 88.1606 139.845 88.8781 139.375 89.5056C138.908 90.1331 138.265 90.6268 137.444 90.9867C136.622 91.3466 135.681 91.5266 134.62 91.5266ZM147.467 91.5266C146.433 91.5266 145.513 91.3489 144.706 90.9936C143.903 90.6337 143.268 90.14 142.802 89.5125C142.341 88.8804 142.103 88.1513 142.089 87.3254H145.107C145.125 87.6715 145.238 87.976 145.446 88.239C145.658 88.4974 145.94 88.6981 146.29 88.8412C146.641 88.9842 147.036 89.0557 147.474 89.0557C147.931 89.0557 148.335 88.975 148.685 88.8135C149.036 88.652 149.31 88.4282 149.509 88.1421C149.707 87.856 149.806 87.5261 149.806 87.1524C149.806 86.774 149.7 86.4395 149.488 86.1488C149.28 85.8535 148.98 85.6228 148.588 85.4567C148.201 85.2906 147.739 85.2076 147.204 85.2076H145.882V83.0066H147.204C147.656 83.0066 148.055 82.9282 148.401 82.7713C148.752 82.6144 149.024 82.3976 149.218 82.1207C149.412 81.8393 149.509 81.5117 149.509 81.1379C149.509 80.7826 149.423 80.4712 149.253 80.2036C149.087 79.9313 148.851 79.7191 148.547 79.5668C148.247 79.4146 147.896 79.3384 147.495 79.3384C147.089 79.3384 146.717 79.4122 146.38 79.5599C146.044 79.7029 145.774 79.9083 145.571 80.1759C145.368 80.4435 145.259 80.7573 145.245 81.1172H142.373C142.387 80.3005 142.62 79.5807 143.072 78.9578C143.524 78.3349 144.133 77.8481 144.899 77.4974C145.67 77.1421 146.54 76.9645 147.509 76.9645C148.487 76.9645 149.343 77.1421 150.076 77.4974C150.81 77.8527 151.38 78.3325 151.786 78.937C152.197 79.5368 152.4 80.2105 152.395 80.958C152.4 81.7516 152.153 82.4137 151.654 82.9443C151.161 83.475 150.517 83.8118 149.723 83.9548V84.0656C150.766 84.1994 151.56 84.5616 152.104 85.1522C152.653 85.7382 152.926 86.4718 152.921 87.3531C152.926 88.1606 152.693 88.8781 152.222 89.5056C151.756 90.1331 151.112 90.6268 150.291 90.9867C149.47 91.3466 148.528 91.5266 147.467 91.5266ZM157.908 89.3948L157.831 90.1562C157.771 90.7652 157.656 91.372 157.485 91.9764C157.319 92.5855 157.144 93.1369 156.959 93.6306C156.779 94.1243 156.634 94.5119 156.523 94.7933H154.613C154.682 94.5211 154.777 94.1404 154.897 93.6513C155.017 93.1669 155.13 92.6224 155.236 92.018C155.342 91.4135 155.409 90.7975 155.437 90.17L155.471 89.3948H157.908ZM160.361 88.8412V86.481L166.279 77.1583H168.314V80.425H167.109L163.379 86.3288V86.4395H171.788V88.8412H160.361ZM167.165 91.3328V88.1214L167.22 87.0763V77.1583H170.03V91.3328H167.165ZM179.761 77.1583V91.3328H176.764V80.0028H176.681L173.435 82.0377V79.3799L176.944 77.1583H179.761ZM183.13 91.3328V89.1734L188.175 84.5016C188.605 84.0863 188.965 83.7126 189.255 83.3804C189.55 83.0482 189.774 82.7229 189.927 82.4045C190.079 82.0815 190.155 81.7331 190.155 81.3594C190.155 80.9441 190.06 80.5865 189.871 80.2866C189.682 79.9821 189.424 79.7491 189.096 79.5876C188.768 79.4215 188.397 79.3384 187.982 79.3384C187.548 79.3384 187.17 79.4261 186.847 79.6014C186.524 79.7768 186.274 80.0282 186.099 80.3558C185.924 80.6834 185.836 81.0733 185.836 81.5255H182.992C182.992 80.5981 183.202 79.7929 183.621 79.11C184.041 78.4271 184.63 77.8988 185.386 77.5251C186.143 77.1513 187.015 76.9645 188.002 76.9645C189.018 76.9645 189.901 77.1444 190.653 77.5043C191.41 77.8596 191.998 78.3533 192.418 78.9854C192.838 79.6176 193.048 80.342 193.048 81.1587C193.048 81.6939 192.942 82.2222 192.73 82.7436C192.522 83.265 192.151 83.8441 191.615 84.4808C191.08 85.113 190.326 85.872 189.352 86.7579L187.283 88.7858V88.8827H193.235V91.3328H183.13Z" fill="#4D4D4D"/>
<path d="M116.936 109.333V101.233H117.917V105.251H118.012L121.65 101.233H122.932L119.53 104.887L122.932 109.333H121.745L118.929 105.568L117.917 106.707V109.333H116.936ZM126.097 109.459C125.548 109.459 125.067 109.329 124.653 109.068C124.242 108.807 123.92 108.442 123.688 107.972C123.459 107.503 123.344 106.955 123.344 106.327C123.344 105.694 123.459 105.142 123.688 104.67C123.92 104.198 124.242 103.831 124.653 103.57C125.067 103.309 125.548 103.179 126.097 103.179C126.645 103.179 127.125 103.309 127.536 103.57C127.95 103.831 128.272 104.198 128.501 104.67C128.733 105.142 128.849 105.694 128.849 106.327C128.849 106.955 128.733 107.503 128.501 107.972C128.272 108.442 127.95 108.807 127.536 109.068C127.125 109.329 126.645 109.459 126.097 109.459ZM126.097 108.621C126.513 108.621 126.856 108.514 127.125 108.301C127.394 108.087 127.593 107.806 127.722 107.458C127.851 107.11 127.916 106.733 127.916 106.327C127.916 105.921 127.851 105.543 127.722 105.192C127.593 104.841 127.394 104.558 127.125 104.342C126.856 104.125 126.513 104.017 126.097 104.017C125.68 104.017 125.337 104.125 125.068 104.342C124.799 104.558 124.6 104.841 124.471 105.192C124.342 105.543 124.277 105.921 124.277 106.327C124.277 106.733 124.342 107.11 124.471 107.458C124.6 107.806 124.799 108.087 125.068 108.301C125.337 108.514 125.68 108.621 126.097 108.621ZM131.207 105.678V109.333H130.274V103.258H131.176V104.207H131.255C131.397 103.899 131.613 103.651 131.903 103.464C132.193 103.274 132.568 103.179 133.027 103.179C133.438 103.179 133.798 103.263 134.106 103.432C134.415 103.598 134.655 103.851 134.826 104.191C134.997 104.529 135.083 104.956 135.083 105.473V109.333H134.15V105.536C134.15 105.059 134.026 104.687 133.778 104.421C133.53 104.152 133.19 104.017 132.758 104.017C132.46 104.017 132.193 104.082 131.959 104.211C131.727 104.34 131.543 104.529 131.409 104.777C131.275 105.025 131.207 105.325 131.207 105.678ZM137.659 107.118L137.643 105.963H137.833L140.491 103.258H141.645L138.814 106.121H138.735L137.659 107.118ZM136.789 109.333V101.233H137.722V109.333H136.789ZM140.649 109.333L138.276 106.327L138.94 105.678L141.835 109.333H140.649ZM146.675 106.849V103.258H147.608V109.333H146.675V108.304H146.612C146.469 108.613 146.248 108.875 145.947 109.092C145.647 109.305 145.267 109.412 144.808 109.412C144.429 109.412 144.091 109.329 143.796 109.163C143.501 108.994 143.269 108.741 143.1 108.403C142.931 108.063 142.847 107.635 142.847 107.118V103.258H143.78V107.055C143.78 107.498 143.904 107.851 144.152 108.115C144.402 108.378 144.721 108.51 145.109 108.51C145.341 108.51 145.577 108.451 145.817 108.332C146.059 108.214 146.262 108.032 146.426 107.786C146.592 107.541 146.675 107.229 146.675 106.849ZM157.892 101.233H158.873V106.596C158.873 107.15 158.743 107.644 158.482 108.079C158.223 108.511 157.858 108.853 157.386 109.103C156.914 109.351 156.36 109.475 155.725 109.475C155.09 109.475 154.536 109.351 154.064 109.103C153.592 108.853 153.225 108.511 152.964 108.079C152.706 107.644 152.577 107.15 152.577 106.596V101.233H153.558V106.517C153.558 106.912 153.645 107.264 153.819 107.573C153.993 107.879 154.241 108.12 154.562 108.297C154.887 108.471 155.274 108.558 155.725 108.558C156.176 108.558 156.563 108.471 156.888 108.297C157.212 108.12 157.46 107.879 157.631 107.573C157.805 107.264 157.892 106.912 157.892 106.517V101.233ZM161.639 105.678V109.333H160.705V103.258H161.607V104.207H161.686C161.828 103.899 162.045 103.651 162.335 103.464C162.625 103.274 162.999 103.179 163.458 103.179C163.869 103.179 164.229 103.263 164.538 103.432C164.846 103.598 165.086 103.851 165.257 104.191C165.429 104.529 165.514 104.956 165.514 105.473V109.333H164.581V105.536C164.581 105.059 164.457 104.687 164.209 104.421C163.961 104.152 163.621 104.017 163.189 104.017C162.891 104.017 162.625 104.082 162.39 104.211C162.158 104.34 161.975 104.529 161.84 104.777C161.706 105.025 161.639 105.325 161.639 105.678ZM167.22 109.333V103.258H168.153V109.333H167.22ZM167.695 102.246C167.513 102.246 167.356 102.184 167.224 102.06C167.095 101.936 167.03 101.787 167.03 101.613C167.03 101.439 167.095 101.29 167.224 101.166C167.356 101.042 167.513 100.98 167.695 100.98C167.877 100.98 168.032 101.042 168.161 101.166C168.293 101.29 168.359 101.439 168.359 101.613C168.359 101.787 168.293 101.936 168.161 102.06C168.032 102.184 167.877 102.246 167.695 102.246ZM174.83 103.258L172.584 109.333H171.635L169.388 103.258H170.401L172.078 108.099H172.141L173.818 103.258H174.83ZM178.392 109.459C177.806 109.459 177.301 109.33 176.877 109.072C176.455 108.811 176.129 108.447 175.9 107.98C175.673 107.511 175.56 106.965 175.56 106.343C175.56 105.721 175.673 105.172 175.9 104.698C176.129 104.22 176.449 103.849 176.857 103.582C177.269 103.313 177.748 103.179 178.297 103.179C178.613 103.179 178.926 103.232 179.234 103.337C179.543 103.443 179.823 103.614 180.077 103.851C180.33 104.086 180.531 104.397 180.682 104.785C180.832 105.172 180.907 105.649 180.907 106.216V106.612H176.224V105.805H179.958C179.958 105.462 179.889 105.156 179.752 104.887C179.618 104.618 179.425 104.406 179.175 104.251C178.927 104.095 178.634 104.017 178.297 104.017C177.925 104.017 177.603 104.11 177.332 104.294C177.063 104.476 176.856 104.713 176.711 105.006C176.566 105.299 176.493 105.612 176.493 105.947V106.485C176.493 106.944 176.572 107.333 176.731 107.652C176.891 107.968 177.114 108.21 177.399 108.376C177.684 108.539 178.015 108.621 178.392 108.621C178.637 108.621 178.858 108.587 179.056 108.518C179.257 108.447 179.429 108.341 179.574 108.202C179.719 108.059 179.831 107.883 179.91 107.672L180.812 107.925C180.717 108.231 180.558 108.5 180.334 108.732C180.109 108.961 179.833 109.14 179.503 109.269C179.173 109.396 178.803 109.459 178.392 109.459ZM182.327 109.333V103.258H183.229V104.176H183.292C183.403 103.875 183.603 103.631 183.893 103.444C184.183 103.257 184.51 103.163 184.874 103.163C184.942 103.163 185.028 103.164 185.131 103.167C185.234 103.17 185.312 103.174 185.364 103.179V104.128C185.333 104.12 185.26 104.108 185.147 104.092C185.036 104.074 184.919 104.065 184.795 104.065C184.499 104.065 184.236 104.127 184.004 104.251C183.774 104.372 183.592 104.541 183.458 104.757C183.326 104.97 183.26 105.214 183.26 105.489V109.333H182.327ZM190.774 104.618L189.935 104.856C189.882 104.716 189.805 104.58 189.702 104.448C189.602 104.314 189.465 104.203 189.291 104.116C189.117 104.029 188.894 103.986 188.622 103.986C188.25 103.986 187.941 104.071 187.693 104.243C187.448 104.411 187.325 104.626 187.325 104.887C187.325 105.119 187.409 105.303 187.578 105.437C187.747 105.572 188.01 105.684 188.369 105.773L189.271 105.995C189.814 106.127 190.219 106.328 190.485 106.6C190.751 106.869 190.884 107.216 190.884 107.64C190.884 107.988 190.784 108.299 190.584 108.573C190.386 108.848 190.109 109.064 189.753 109.222C189.397 109.38 188.983 109.459 188.511 109.459C187.892 109.459 187.379 109.325 186.973 109.056C186.567 108.787 186.31 108.394 186.202 107.877L187.088 107.656C187.172 107.983 187.332 108.228 187.566 108.391C187.803 108.555 188.113 108.637 188.496 108.637C188.931 108.637 189.276 108.544 189.532 108.36C189.79 108.173 189.919 107.949 189.919 107.688C189.919 107.477 189.846 107.3 189.698 107.158C189.55 107.013 189.324 106.904 189.018 106.833L188.005 106.596C187.449 106.464 187.04 106.26 186.779 105.983C186.521 105.703 186.392 105.354 186.392 104.935C186.392 104.592 186.488 104.289 186.68 104.025C186.875 103.762 187.14 103.555 187.475 103.404C187.813 103.254 188.195 103.179 188.622 103.179C189.223 103.179 189.695 103.311 190.038 103.574C190.383 103.838 190.629 104.186 190.774 104.618ZM192.289 109.333V103.258H193.223V109.333H192.289ZM192.764 102.246C192.582 102.246 192.425 102.184 192.293 102.06C192.164 101.936 192.1 101.787 192.1 101.613C192.1 101.439 192.164 101.29 192.293 101.166C192.425 101.042 192.582 100.98 192.764 100.98C192.946 100.98 193.101 101.042 193.231 101.166C193.362 101.29 193.428 101.439 193.428 101.613C193.428 101.787 193.362 101.936 193.231 102.06C193.101 102.184 192.946 102.246 192.764 102.246ZM197.574 103.258V104.049H194.426V103.258H197.574ZM195.344 101.803H196.277V107.593C196.277 107.856 196.315 108.054 196.392 108.186C196.471 108.315 196.571 108.402 196.692 108.447C196.816 108.489 196.947 108.51 197.084 108.51C197.187 108.51 197.271 108.505 197.337 108.494C197.403 108.481 197.456 108.471 197.495 108.463L197.685 109.301C197.622 109.325 197.533 109.349 197.42 109.372C197.307 109.399 197.163 109.412 196.989 109.412C196.725 109.412 196.467 109.355 196.214 109.242C195.963 109.128 195.755 108.956 195.589 108.724C195.425 108.492 195.344 108.199 195.344 107.846V101.803ZM199.579 111.611C199.421 111.611 199.28 111.598 199.156 111.571C199.032 111.548 198.947 111.524 198.899 111.5L199.136 110.677C199.363 110.735 199.564 110.757 199.738 110.741C199.912 110.725 200.066 110.647 200.2 110.507C200.337 110.37 200.463 110.147 200.576 109.839L200.75 109.364L198.504 103.258H199.516L201.193 108.099H201.256L202.933 103.258H203.946L201.367 110.219C201.251 110.532 201.107 110.792 200.936 110.998C200.764 111.206 200.565 111.36 200.339 111.461C200.115 111.561 199.861 111.611 199.579 111.611ZM214.954 103.764H213.973C213.915 103.482 213.814 103.234 213.669 103.021C213.526 102.807 213.352 102.628 213.147 102.483C212.944 102.335 212.718 102.224 212.47 102.151C212.223 102.077 211.964 102.04 211.695 102.04C211.205 102.04 210.761 102.164 210.362 102.412C209.967 102.659 209.652 103.025 209.417 103.507C209.185 103.99 209.069 104.582 209.069 105.283C209.069 105.984 209.185 106.576 209.417 107.059C209.652 107.541 209.967 107.906 210.362 108.154C210.761 108.402 211.205 108.526 211.695 108.526C211.964 108.526 212.223 108.489 212.47 108.415C212.718 108.341 212.944 108.232 213.147 108.087C213.352 107.939 213.526 107.759 213.669 107.545C213.814 107.329 213.915 107.081 213.973 106.802H214.954C214.88 107.216 214.746 107.586 214.551 107.913C214.356 108.24 214.113 108.518 213.823 108.747C213.533 108.974 213.207 109.147 212.846 109.266C212.488 109.384 212.104 109.444 211.695 109.444C211.004 109.444 210.39 109.275 209.852 108.937C209.314 108.6 208.891 108.12 208.583 107.498C208.274 106.875 208.12 106.137 208.12 105.283C208.12 104.429 208.274 103.69 208.583 103.068C208.891 102.446 209.314 101.966 209.852 101.629C210.39 101.291 211.004 101.122 211.695 101.122C212.104 101.122 212.488 101.182 212.846 101.3C213.207 101.419 213.533 101.593 213.823 101.822C214.113 102.049 214.356 102.326 214.551 102.653C214.746 102.977 214.88 103.348 214.954 103.764ZM218.2 109.475C217.815 109.475 217.466 109.403 217.152 109.258C216.838 109.11 216.589 108.898 216.405 108.621C216.22 108.341 216.128 108.004 216.128 107.608C216.128 107.26 216.196 106.978 216.333 106.762C216.471 106.543 216.654 106.372 216.883 106.248C217.113 106.124 217.366 106.032 217.643 105.971C217.922 105.908 218.203 105.858 218.485 105.821C218.854 105.773 219.153 105.738 219.383 105.714C219.615 105.688 219.783 105.644 219.889 105.583C219.997 105.523 220.051 105.417 220.051 105.267V105.235C220.051 104.845 219.944 104.542 219.731 104.326C219.52 104.11 219.199 104.002 218.77 104.002C218.324 104.002 217.975 104.099 217.722 104.294C217.469 104.489 217.291 104.698 217.188 104.919L216.302 104.603C216.46 104.234 216.671 103.946 216.935 103.74C217.201 103.532 217.491 103.387 217.805 103.305C218.121 103.221 218.432 103.179 218.738 103.179C218.933 103.179 219.157 103.203 219.41 103.25C219.666 103.295 219.913 103.388 220.15 103.531C220.39 103.673 220.589 103.888 220.747 104.176C220.905 104.463 220.984 104.848 220.984 105.33V109.333H220.051V108.51H220.004C219.94 108.642 219.835 108.783 219.687 108.933C219.54 109.084 219.343 109.211 219.098 109.317C218.853 109.422 218.553 109.475 218.2 109.475ZM218.343 108.637C218.712 108.637 219.023 108.564 219.276 108.419C219.532 108.274 219.724 108.087 219.853 107.858C219.985 107.628 220.051 107.387 220.051 107.134V106.28C220.012 106.327 219.925 106.371 219.79 106.41C219.658 106.447 219.505 106.48 219.331 106.509C219.16 106.535 218.992 106.559 218.829 106.58C218.668 106.599 218.538 106.614 218.437 106.628C218.195 106.659 217.968 106.711 217.757 106.782C217.549 106.85 217.38 106.955 217.251 107.094C217.124 107.231 217.061 107.419 217.061 107.656C217.061 107.98 217.181 108.225 217.421 108.391C217.664 108.555 217.971 108.637 218.343 108.637ZM222.688 109.333V103.258H223.59V104.207H223.669C223.795 103.883 224 103.631 224.282 103.452C224.564 103.27 224.903 103.179 225.298 103.179C225.699 103.179 226.033 103.27 226.299 103.452C226.568 103.631 226.777 103.883 226.928 104.207H226.991C227.147 103.893 227.38 103.644 227.691 103.46C228.002 103.272 228.375 103.179 228.81 103.179C229.353 103.179 229.798 103.349 230.143 103.689C230.488 104.027 230.661 104.553 230.661 105.267V109.333H229.728V105.267C229.728 104.819 229.605 104.499 229.36 104.306C229.115 104.114 228.826 104.017 228.494 104.017C228.067 104.017 227.736 104.147 227.501 104.405C227.267 104.661 227.149 104.985 227.149 105.378V109.333H226.2V105.172C226.2 104.827 226.088 104.549 225.864 104.338C225.64 104.124 225.351 104.017 224.998 104.017C224.755 104.017 224.528 104.082 224.317 104.211C224.109 104.34 223.94 104.52 223.811 104.749C223.685 104.976 223.621 105.238 223.621 105.536V109.333H222.688ZM232.368 111.611V103.258H233.269V104.223H233.38C233.449 104.118 233.544 103.983 233.665 103.82C233.789 103.653 233.966 103.506 234.195 103.377C234.427 103.245 234.741 103.179 235.136 103.179C235.648 103.179 236.099 103.307 236.489 103.563C236.879 103.818 237.184 104.181 237.402 104.65C237.621 105.119 237.731 105.673 237.731 106.311C237.731 106.955 237.621 107.512 237.402 107.984C237.184 108.453 236.88 108.817 236.493 109.076C236.105 109.331 235.658 109.459 235.152 109.459C234.762 109.459 234.449 109.395 234.215 109.266C233.98 109.134 233.799 108.985 233.673 108.819C233.546 108.65 233.449 108.51 233.38 108.399H233.301V111.611H232.368ZM233.285 106.295C233.285 106.754 233.353 107.159 233.487 107.51C233.621 107.858 233.818 108.13 234.076 108.328C234.335 108.523 234.651 108.621 235.025 108.621C235.416 108.621 235.741 108.518 236.002 108.312C236.266 108.104 236.464 107.825 236.596 107.474C236.73 107.121 236.797 106.728 236.797 106.295C236.797 105.868 236.731 105.483 236.6 105.141C236.47 104.795 236.274 104.522 236.01 104.322C235.749 104.119 235.421 104.017 235.025 104.017C234.646 104.017 234.327 104.114 234.068 104.306C233.81 104.496 233.615 104.762 233.483 105.105C233.351 105.445 233.285 105.842 233.285 106.295ZM242.983 106.849V103.258H243.916V109.333H242.983V108.304H242.92C242.777 108.613 242.556 108.875 242.255 109.092C241.955 109.305 241.575 109.412 241.116 109.412C240.736 109.412 240.399 109.329 240.104 109.163C239.808 108.994 239.576 108.741 239.408 108.403C239.239 108.063 239.154 107.635 239.154 107.118V103.258H240.088V107.055C240.088 107.498 240.212 107.851 240.46 108.115C240.71 108.378 241.029 108.51 241.417 108.51C241.649 108.51 241.885 108.451 242.125 108.332C242.367 108.214 242.57 108.032 242.734 107.786C242.9 107.541 242.983 107.229 242.983 106.849ZM249.929 104.618L249.09 104.856C249.038 104.716 248.96 104.58 248.857 104.448C248.757 104.314 248.62 104.203 248.446 104.116C248.272 104.029 248.049 103.986 247.777 103.986C247.405 103.986 247.096 104.071 246.848 104.243C246.603 104.411 246.48 104.626 246.48 104.887C246.48 105.119 246.564 105.303 246.733 105.437C246.902 105.572 247.165 105.684 247.524 105.773L248.426 105.995C248.969 106.127 249.374 106.328 249.64 106.6C249.906 106.869 250.039 107.216 250.039 107.64C250.039 107.988 249.939 108.299 249.739 108.573C249.541 108.848 249.264 109.064 248.908 109.222C248.552 109.38 248.138 109.459 247.666 109.459C247.047 109.459 246.534 109.325 246.128 109.056C245.722 108.787 245.465 108.394 245.357 107.877L246.243 107.656C246.327 107.983 246.487 108.228 246.721 108.391C246.959 108.555 247.268 108.637 247.651 108.637C248.086 108.637 248.431 108.544 248.687 108.36C248.945 108.173 249.074 107.949 249.074 107.688C249.074 107.477 249.001 107.3 248.853 107.158C248.705 107.013 248.479 106.904 248.173 106.833L247.16 106.596C246.604 106.464 246.195 106.26 245.934 105.983C245.676 105.703 245.547 105.354 245.547 104.935C245.547 104.592 245.643 104.289 245.835 104.025C246.03 103.762 246.295 103.555 246.63 103.404C246.968 103.254 247.35 103.179 247.777 103.179C248.378 103.179 248.85 103.311 249.193 103.574C249.538 103.838 249.784 104.186 249.929 104.618Z" fill="#717171"/>
</g>
</g>
</g>
<defs>
<clipPath id="clip0_15_1279">
<rect width="375.878" height="113.843" fill="white" transform="translate(0.888672 0.48999)"/>
</clipPath>
<clipPath id="clip1_15_1279">
<rect width="375.878" height="43" fill="white" transform="translate(0.888672 0.48999)"/>
</clipPath>
<clipPath id="clip2_15_1279">
<rect width="132.949" height="43" fill="white" transform="translate(45.4375 0.48999)"/>
</clipPath>
<clipPath id="clip3_15_1279">
<rect width="132.949" height="43" fill="white" transform="translate(243.817 0.48999)"/>
</clipPath>
<clipPath id="clip4_15_1279">
<rect width="234.842" height="43" fill="white" transform="translate(71.4062 71.3328)"/>
</clipPath>
<clipPath id="clip5_15_1279">
<rect width="33.4113" height="33.4113" fill="white" transform="translate(71.4062 76.1272)"/>
</clipPath>
<clipPath id="clip6_15_1279">
<rect width="33.41" height="33.41" fill="white" transform="translate(71.5176 76)"/>
</clipPath>
<clipPath id="clip7_15_1279">
<rect width="136" height="43" fill="white" transform="translate(115.955 71.3328)"/>
</clipPath>
</defs>
</svg>