<svg width="72" height="199" viewBox="0 0 72 199" fill="none" xmlns="http://www.w3.org/2000/svg">
<g id="character-2">
<path id="Vector" d="M38.6758 41.146L32.5782 38.6873C32.5782 38.6873 24.5321 53.3596 22.227 54.1033C19.0922 55.1114 12.6012 57.9143 8.75338 58.406C8.2309 59.0207 7.37649 60.9324 7.4564 61.6269C12.6258 63.3542 23.985 61.0614 26.4191 59.2543C31.9574 55.1544 38.6758 41.146 38.6758 41.146Z" fill="#FFC3B1"/>
<path id="Vector_2" d="M40.5506 37.8082C41.6877 42.0065 35.5287 50.4521 35.5287 50.4521L27.458 45.9281C27.458 45.9281 28.9701 42.4552 30.8141 38.9208C33.7707 33.2105 39.2536 33.0199 40.5506 37.8082Z" fill="#4CAF4F"/>
<path id="Vector_3" opacity="0.2" d="M40.5506 37.8082C41.6877 42.0065 35.5287 50.4521 35.5287 50.4521L27.458 45.9281C27.458 45.9281 28.9701 42.4552 30.8141 38.9208C33.7707 33.2105 39.2536 33.0199 40.5506 37.8082Z" fill="black"/>
<path id="Vector_4" opacity="0.2" d="M30.6602 47.7353L33.838 49.5178L34.3974 39.7629C32.5472 41.1828 31.2441 45.461 30.6602 47.7353Z" fill="black"/>
<path id="Vector_5" d="M35.2394 34.6488C35.2394 34.6488 28.9574 48.6265 32.6209 74.6519H57.3738C57.7672 70.8532 56.4641 52.3146 61.1787 34.4152C58.4633 33.8846 55.7159 33.5334 52.9543 33.3641C49.4516 33.1612 45.94 33.1612 42.4372 33.3641C40.009 33.6107 37.6029 34.0402 35.2394 34.6488Z" fill="#4CAF4F"/>
<path id="Vector_6" opacity="0.2" d="M35.2394 34.6488C35.2394 34.6488 28.9574 48.6265 32.6209 74.6519H57.3738C57.7672 70.8532 56.4641 52.3146 61.1787 34.4152C58.4633 33.8846 55.7159 33.5334 52.9543 33.3641C49.4516 33.1612 45.94 33.1612 42.4372 33.3641C40.009 33.6107 37.6029 34.0402 35.2394 34.6488Z" fill="black"/>
<g id="Vector_7" style="mix-blend-mode:multiply">
<path d="M29.4982 197.095C29.4613 197.759 38.8474 198.294 50.4586 198.294C62.0698 198.294 71.5235 197.759 71.5604 197.095C71.5973 196.431 62.2173 195.903 50.5999 195.903C38.9826 195.903 29.5412 196.437 29.4982 197.095Z" fill="#E8ECF1"/>
</g>
<path id="Vector_8" d="M46.0211 179.652L41.6309 181.352L45.4126 191.121L49.8028 189.422L46.0211 179.652Z" fill="#FFC3B1"/>
<path id="Vector_9" d="M65.5984 192.368H60.9699L59.2734 181.655H63.9019L65.5984 192.368Z" fill="#FFC3B1"/>
<path id="Vector_10" d="M60.6501 191.833H65.8503C65.9405 191.834 66.0277 191.866 66.0963 191.925C66.165 191.983 66.2107 192.064 66.2252 192.153L66.8952 196.265C66.9093 196.368 66.9011 196.473 66.871 196.573C66.8409 196.673 66.7898 196.765 66.721 196.843C66.6521 196.921 66.5673 196.984 66.4722 197.026C66.3771 197.068 66.274 197.09 66.1699 197.089C64.3566 197.058 63.4838 196.948 61.1972 196.948C59.7896 196.948 56.8944 197.095 54.9398 197.095C52.9851 197.095 52.856 195.177 53.6613 194.999C57.2756 194.218 58.677 193.155 59.8818 192.122C60.0942 191.936 60.3674 191.833 60.6501 191.833Z" fill="#263238"/>
<path id="Vector_11" d="M45.2831 190.248L50.2005 188.809C50.2883 188.784 50.3819 188.79 50.4657 188.826C50.5496 188.862 50.6187 188.925 50.6616 189.006L52.5056 192.694C52.5484 192.787 52.5703 192.889 52.5697 192.992C52.5691 193.095 52.5461 193.197 52.5022 193.29C52.4583 193.383 52.3946 193.465 52.3155 193.531C52.2365 193.597 52.144 193.645 52.0446 193.671C50.2559 194.163 49.0573 194.464 46.8198 195.116C45.277 195.564 43.7034 196.296 42.179 196.782C41.1218 197.12 38.6385 197.132 37.3538 197.132C35.4545 197.132 35.0304 195.128 35.8479 195.036C37.907 194.808 38.1836 194.913 39.3208 194.341C41.1814 193.528 42.8678 192.363 44.2874 190.911C44.5551 190.606 44.8986 190.377 45.2831 190.248Z" fill="#263238"/>
<path id="Vector_12" d="M9.52733 58.3815L4.43782 56.2485L2.3418 61.8912C4.42786 62.209 6.55 62.209 8.63606 61.8912L9.52733 58.3815Z" fill="#E58A7B"/>
<path id="Vector_13" d="M0.651831 56.1008L0.516602 59.8504L2.34219 61.8788L4.43821 56.2361L0.651831 56.1008Z" fill="#E58A7B"/>
<path id="Vector_14" d="M46.6236 180.482L42.2197 182.182L44.1701 187.234L48.574 185.534L46.6236 180.482Z" fill="#CF6F64"/>
<path id="Vector_15" d="M63.9019 181.655H59.2734L60.1524 187.18H64.7809L63.9019 181.655Z" fill="#CF6F64"/>
<path id="Vector_16" opacity="0.2" d="M31.834 67.6139C31.9262 68.7265 32.0307 69.8636 32.1659 71.0315L50.5693 65.0569C53.4433 64.2051 55.941 62.399 57.6503 59.9366C57.7241 58.2954 57.8163 56.5682 57.9577 54.7672C58.0191 53.8944 58.0929 52.9969 58.1728 52.0872C58.2527 51.1775 58.3634 50.1694 58.4802 49.1982L31.834 67.6139Z" fill="black"/>
<path id="Vector_17" d="M37.8461 47.4525L37.2314 47.3787C37.5941 44.3054 39.8868 41.8835 42.3025 41.945V42.5597C40.188 42.5166 38.1719 44.6987 37.8461 47.4525Z" fill="#FAFAFA"/>
<path id="Vector_18" d="M41.1221 53.126H41.0176V52.5113C43.1321 52.5912 45.1175 50.3846 45.4432 47.637L46.0579 47.7107C45.7321 50.7165 43.5132 53.126 41.1221 53.126Z" fill="#FAFAFA"/>
<path id="Vector_19" d="M52.6102 21.301C51.7435 24.6879 50.7232 30.89 52.9544 33.1458C52.9544 33.1458 51.3932 36.5818 45.105 36.5818C39.3578 36.5818 42.4373 33.1458 42.4373 33.1458C46.2606 32.2484 46.3282 29.4578 45.8242 26.8147L52.6102 21.301Z" fill="#FFC3B1"/>
<path id="Vector_20" d="M49.8439 23.769L45.8301 27.033C45.9545 27.6403 46.0265 28.2573 46.0452 28.877C47.2192 30.0449 49.5734 27.0883 49.8132 25.5762C49.935 24.9809 49.9454 24.3681 49.8439 23.769Z" fill="#CF6F64"/>
<path id="Vector_21" d="M38.9274 21.4764C39.2067 21.9605 39.5829 22.3817 40.0324 22.7138C40.4819 23.0459 40.995 23.2817 41.5398 23.4065C43.015 23.7322 43.7526 22.3738 43.347 21.0092C42.9843 19.7799 41.7734 18.1264 40.2736 18.4092C39.9523 18.4753 39.6516 18.6175 39.3966 18.8238C39.1415 19.0301 38.9397 19.2945 38.8079 19.5949C38.676 19.8952 38.6181 20.2228 38.6389 20.5502C38.6597 20.8775 38.7587 21.1951 38.9274 21.4764Z" fill="#CF6F64"/>
<path id="Vector_22" d="M41.3681 10.6396C39.0692 11.6907 38.2578 20.8248 41.1468 22.1771C44.0357 23.5294 45.72 8.64194 41.3681 10.6396Z" fill="#263238"/>
<path id="Vector_23" d="M53.3112 16.4236C52.758 21.0091 52.6966 23.7075 50.2379 26.0556C49.476 26.8348 48.5136 27.3883 47.4569 27.655C46.4003 27.9216 45.2905 27.8911 44.2501 27.5668C43.2097 27.2425 42.2792 26.6369 41.5613 25.8171C40.8433 24.9972 40.3659 23.9949 40.1818 22.9208C39.438 18.8024 40.4645 11.998 45.0623 10.1724C46.0283 9.74629 47.0908 9.58633 48.1394 9.7091C49.1881 9.83186 50.1848 10.2329 51.0263 10.8706C51.8678 11.5083 52.5234 12.3595 52.9252 13.3359C53.327 14.3123 53.4603 15.3784 53.3112 16.4236Z" fill="#FFC3B1"/>
<path id="Vector_24" d="M45.7565 13.0122C49.1618 12.1455 51.6636 11.5554 50.7661 14.3891C49.5798 18.1755 48.1538 21.8389 50.0654 22.0049C51.2333 22.1094 56.3966 19.9211 55.7389 17.7022C55.1672 15.7721 57.5829 15.2435 58.0132 14.2661C59.6052 10.7256 55.0504 11.1928 55.8618 9.04139C56.6732 6.89003 52.1737 3.42327 49.715 5.1505C45.7135 7.94113 38.8476 7.8981 42.4557 3.30648C45.0435 0.030261 40.4273 0.700253 40.4273 0.700253C40.4273 0.700253 43.2179 2.35373 38.5218 4.91078C33.5552 7.63994 38.11 14.973 45.7565 13.0122Z" fill="#263238"/>
<path id="Vector_25" d="M55.1178 21.4764C54.4456 22.4491 53.4356 23.1371 52.2842 23.4065C50.766 23.7322 50.182 22.3738 50.7536 21.0092C51.2638 19.7799 52.6653 18.1264 54.1159 18.4092C55.5666 18.6919 55.8985 20.2716 55.1178 21.4764Z" fill="#FFC3B1"/>
<path id="Vector_26" d="M32.6214 74.6519C32.6214 74.6519 28.4662 111.84 28.1404 125.953C27.8085 140.631 42.2226 186.431 42.2226 186.431L49.5987 183.357C49.5987 183.357 40.9933 141.51 42.2226 127.096C43.5257 111.379 48.9103 74.6764 48.9103 74.6764L32.6214 74.6519Z" fill="#4CAF4F"/>
<path id="Vector_27" opacity="0.2" d="M42.9477 84.8616C39.6346 91.7337 41.8659 105.324 43.6608 113.376C44.343 107.691 45.1544 101.519 45.9228 95.809C45.849 87.0314 45.1667 80.2516 42.9477 84.8616Z" fill="black"/>
<path id="Vector_28" d="M49.2731 180.923C49.3099 180.923 50.1459 183.271 50.1459 183.271L41.6388 186.849L40.2988 184.353L49.2731 180.923Z" fill="#4CAF4F"/>
<path id="Vector_29" d="M41.4043 74.6519C41.4043 74.6519 44.5822 110.02 46.6844 123.267C48.9955 137.779 58.0558 186.111 58.0558 186.111H66.5322C66.5322 186.111 61.455 138.953 60.4961 124.582C59.4512 108.994 57.3736 74.6519 57.3736 74.6519H41.4043Z" fill="#4CAF4F"/>
<path id="Vector_30" d="M66.6615 183.904C66.6984 183.904 66.9442 186.271 66.9442 186.271H57.6258L56.9619 183.554L66.6615 183.904Z" fill="#4CAF4F"/>
<path id="Vector_31" opacity="0.2" d="M63.4165 181.101C63.3973 181.102 63.3787 181.095 63.364 181.082C63.3493 181.07 63.3396 181.053 63.3366 181.034C63.2875 180.603 58.7081 138.006 57.8476 125.098C56.9133 111.096 55.0324 80.0365 55.0139 79.723C55.0131 79.7128 55.0144 79.7025 55.0177 79.6929C55.021 79.6832 55.0263 79.6743 55.0332 79.6668C55.0402 79.6593 55.0486 79.6533 55.058 79.6492C55.0673 79.6451 55.0775 79.643 55.0877 79.6431C55.1079 79.643 55.1273 79.6506 55.1421 79.6643C55.157 79.6779 55.166 79.6967 55.1676 79.7168C55.1676 80.0303 57.067 111.065 58.0013 125.092C58.8618 138 63.4411 180.567 63.4841 181.028C63.4859 181.038 63.4855 181.048 63.483 181.058C63.4804 181.068 63.4758 181.078 63.4695 181.086C63.4631 181.094 63.4551 181.1 63.446 181.105C63.4369 181.11 63.4268 181.113 63.4165 181.114V181.101Z" fill="black"/>
<path id="Vector_32" d="M46.2787 17.7023C46.2787 18.0772 46.0451 18.3784 45.7993 18.3784C45.5534 18.3784 45.3751 18.0772 45.3997 17.7023C45.4243 17.3273 45.6333 17.0261 45.8792 17.0261C46.125 17.0261 46.3033 17.3335 46.2787 17.7023Z" fill="#263238"/>
<path id="Vector_33" d="M42.0622 17.7023C42.0622 18.0772 41.8225 18.3784 41.5827 18.3784C41.343 18.3784 41.1586 18.0772 41.1771 17.7023C41.1955 17.3273 41.4168 17.0261 41.6626 17.0261C41.9085 17.0261 42.0868 17.3335 42.0622 17.7023Z" fill="#263238"/>
<path id="Vector_34" d="M43.3898 17.8928C42.8767 19.0378 42.2154 20.1103 41.4229 21.083C42.0375 21.6977 43.187 21.4149 43.187 21.4149L43.3898 17.8928Z" fill="#DF5753"/>
<path id="Vector_35" d="M43.5012 22.9821C43.4869 22.9821 43.4728 22.9793 43.4597 22.9736C43.4466 22.968 43.4348 22.9597 43.425 22.9494C43.4152 22.939 43.4077 22.9268 43.4028 22.9134C43.3979 22.9 43.3958 22.8857 43.3967 22.8715C43.3982 22.8416 43.4112 22.8134 43.433 22.7928C43.4547 22.7723 43.4835 22.7608 43.5135 22.7608C43.9836 22.7641 44.4485 22.662 44.8739 22.462C45.2994 22.262 45.6747 21.9693 45.9722 21.6052C45.9934 21.5867 46.0207 21.5764 46.049 21.5764C46.0772 21.5764 46.1045 21.5867 46.1258 21.6052C46.1457 21.6259 46.1569 21.6534 46.1569 21.6821C46.1569 21.7107 46.1457 21.7383 46.1258 21.7589C45.8074 22.1458 45.4064 22.4565 44.9522 22.6682C44.498 22.8798 44.0022 22.9871 43.5012 22.9821Z" fill="#263238"/>
<path id="Vector_36" d="M47.029 16.5711C46.9995 16.5862 46.9668 16.5941 46.9337 16.5941C46.9005 16.5941 46.8679 16.5862 46.8384 16.5711C46.6085 16.4224 46.3468 16.33 46.0745 16.3011C45.8022 16.2723 45.527 16.3079 45.271 16.4051C45.246 16.4176 45.2188 16.4249 45.191 16.4267C45.1631 16.4285 45.1352 16.4247 45.1089 16.4156C45.0825 16.4064 45.0583 16.3921 45.0375 16.3734C45.0168 16.3547 45.0001 16.332 44.9882 16.3068C44.9654 16.2521 44.9649 16.1906 44.9867 16.1355C45.0085 16.0804 45.0509 16.036 45.105 16.0117C45.4264 15.8805 45.7747 15.8287 46.1203 15.8608C46.4659 15.8929 46.7987 16.0079 47.0904 16.1961C47.114 16.2121 47.1341 16.2327 47.1497 16.2566C47.1652 16.2804 47.1759 16.3071 47.181 16.3352C47.1862 16.3632 47.1857 16.3919 47.1797 16.4198C47.1736 16.4476 47.1621 16.474 47.1457 16.4973C47.1147 16.5326 47.0741 16.5582 47.029 16.5711Z" fill="#263238"/>
<path id="Vector_37" d="M40.4338 15.3419C40.4011 15.3339 40.3712 15.3169 40.3478 15.2927C40.3273 15.2727 40.3111 15.2487 40.3 15.2224C40.2889 15.196 40.2832 15.1676 40.2832 15.139C40.2832 15.1104 40.2889 15.0821 40.3 15.0557C40.3111 15.0293 40.3273 15.0054 40.3478 14.9854C40.5833 14.7211 40.8768 14.5149 41.2052 14.3827C41.5335 14.2504 41.888 14.1959 42.241 14.2232C42.2692 14.2275 42.2963 14.2376 42.3205 14.2529C42.3447 14.2681 42.3656 14.2882 42.3817 14.3118C42.3978 14.3355 42.4089 14.3622 42.4143 14.3902C42.4197 14.4183 42.4193 14.4472 42.4131 14.4752C42.3999 14.5321 42.3664 14.5822 42.3189 14.6162C42.2713 14.6501 42.213 14.6656 42.1549 14.6596C41.8756 14.642 41.596 14.6882 41.3372 14.7947C41.0784 14.9012 40.8473 15.0652 40.6613 15.2742C40.6332 15.3054 40.5972 15.3281 40.5571 15.3401C40.5169 15.352 40.4743 15.3526 40.4338 15.3419Z" fill="#263238"/>
<path id="Vector_38" d="M63.5575 40.4636L57.1648 38.761C57.1648 38.761 50.8951 54.1955 48.6762 55.1974C45.6642 56.5743 38.0361 61.3442 34.7906 63.6C34.6124 64.3684 34.7538 66.4029 35.1595 66.9623C40.6915 65.9542 51.2824 61.8789 53.4952 59.8075C58.5417 55.0806 63.5575 40.4636 63.5575 40.4636Z" fill="#FFC3B1"/>
<path id="Vector_39" d="M59.0954 192.645C58.7834 192.67 58.4726 192.585 58.2164 192.405C58.1372 192.334 58.078 192.243 58.0446 192.142C58.0112 192.04 58.0047 191.932 58.0258 191.827C58.0297 191.762 58.0512 191.699 58.088 191.645C58.1247 191.591 58.1755 191.548 58.2348 191.52C58.7511 191.256 60.1956 192.172 60.3616 192.276C60.3798 192.287 60.3939 192.304 60.4017 192.324C60.4094 192.344 60.4105 192.366 60.4046 192.387C60.3994 192.408 60.3887 192.428 60.3736 192.444C60.3585 192.46 60.3396 192.472 60.3186 192.479C59.9178 192.577 59.5078 192.633 59.0954 192.645ZM58.4807 191.686C58.4341 191.676 58.3859 191.676 58.3393 191.686C58.3157 191.698 58.2962 191.717 58.2831 191.74C58.27 191.762 58.2639 191.789 58.2655 191.815C58.2492 191.887 58.2519 191.961 58.2735 192.031C58.2951 192.102 58.3347 192.165 58.3885 192.215C58.6282 192.43 59.2306 192.454 60.0235 192.301C59.5514 191.99 59.0197 191.78 58.4622 191.686H58.4807Z" fill="#4CAF4F"/>
<path id="Vector_40" d="M60.2871 192.479C60.2711 192.484 60.2539 192.484 60.2379 192.479C59.7769 192.221 58.9102 191.207 59.0393 190.69C59.0586 190.608 59.1049 190.535 59.1706 190.483C59.2364 190.431 59.3179 190.402 59.402 190.401C59.4845 190.39 59.5684 190.397 59.6479 190.422C59.7275 190.446 59.8009 190.487 59.863 190.543C60.3732 190.979 60.4039 192.319 60.4039 192.387C60.4069 192.407 60.4031 192.428 60.393 192.445C60.383 192.463 60.3674 192.477 60.3486 192.485C60.3279 192.489 60.3065 192.487 60.2871 192.479ZM59.4635 190.604H59.4204C59.279 190.604 59.2606 190.684 59.2545 190.715C59.1807 191.016 59.7278 191.784 60.1826 192.147C60.1805 191.628 60.0197 191.122 59.7216 190.696C59.6503 190.634 59.5581 190.601 59.4635 190.604Z" fill="#4CAF4F"/>
<path id="Vector_41" d="M42.7754 191.876C42.3993 192.008 41.9898 192.008 41.6137 191.876C41.5282 191.83 41.4559 191.763 41.4032 191.682C41.3506 191.6 41.3194 191.506 41.3125 191.409C41.3047 191.349 41.3125 191.287 41.3351 191.23C41.3576 191.173 41.3943 191.123 41.4416 191.084C41.9333 190.641 43.9433 191.084 44.1707 191.17C44.1924 191.175 44.2115 191.188 44.2249 191.206C44.2383 191.224 44.2452 191.246 44.2445 191.268C44.2454 191.291 44.2395 191.314 44.2275 191.334C44.2154 191.353 44.1978 191.369 44.1769 191.379C43.7243 191.583 43.2555 191.749 42.7754 191.876ZM41.7735 191.145C41.7032 191.159 41.6377 191.191 41.5829 191.237C41.5634 191.252 41.5483 191.272 41.5396 191.295C41.5309 191.317 41.5289 191.342 41.5338 191.366C41.5378 191.431 41.5579 191.493 41.5923 191.548C41.6266 191.603 41.6741 191.648 41.7305 191.68C42.0562 191.852 42.8123 191.717 43.7896 191.305C43.1313 191.139 42.4497 191.085 41.7735 191.145Z" fill="#4CAF4F"/>
<path id="Vector_42" d="M44.1586 191.379H44.1094C43.4947 191.268 42.2654 190.561 42.2285 190.032C42.2285 189.91 42.2838 189.737 42.5789 189.639C42.6786 189.604 42.7844 189.589 42.89 189.595C42.9956 189.601 43.0988 189.629 43.1936 189.676C43.8574 190.002 44.2078 191.182 44.2262 191.237C44.2305 191.256 44.23 191.275 44.2246 191.294C44.2192 191.312 44.2092 191.328 44.1955 191.342C44.1863 191.357 44.1737 191.369 44.1586 191.379ZM42.7018 189.824H42.6404C42.4498 189.891 42.4498 189.971 42.4498 189.996C42.4498 190.315 43.3411 190.899 43.9619 191.096C43.8189 190.602 43.5163 190.17 43.1014 189.867C42.9779 189.804 42.8358 189.788 42.7018 189.824Z" fill="#4CAF4F"/>
<path id="Vector_43" d="M35.313 63.2373L28.902 66.1877L28.1582 68.0318L30.5247 69.6238C30.5247 69.6238 34.9503 69.1443 36.2104 66.2984L35.313 63.2373Z" fill="#FFC3B1"/>
<path id="Vector_44" d="M35.5841 67.0667C35.4408 65.8349 35.0341 64.6483 34.3916 63.5876L35.4058 62.8254C36.1687 64.0476 36.6554 65.4217 36.8319 66.8516L35.5841 67.0667Z" fill="#263238"/>
<path id="Vector_45" d="M36.6779 64.1102C36.8134 64.3233 36.88 64.5731 36.8686 64.8255C36.8572 65.0778 36.7682 65.3205 36.614 65.5205C36.4597 65.7206 36.2476 65.8682 36.0064 65.9434C35.7653 66.0186 35.5068 66.0177 35.2662 65.9408C35.0256 65.8639 34.8145 65.7147 34.6616 65.5135C34.5088 65.3124 34.4217 65.0691 34.412 64.8166C34.4024 64.5642 34.4708 64.3149 34.6078 64.1028C34.7449 63.8906 34.944 63.7257 35.1781 63.6307C35.4408 63.4969 35.7458 63.4721 36.0266 63.5619C36.3075 63.6517 36.5415 63.8487 36.6779 64.1102Z" fill="#263238"/>
<path id="Vector_46" d="M24.5684 68.5727L25.4228 69.4332L31.1761 66.9745L28.9018 66.1877L24.5684 68.5727Z" fill="#FFC3B1"/>
<path id="Vector_47" opacity="0.2" d="M49.2731 180.923C49.3099 180.923 50.1459 183.271 50.1459 183.271L41.6388 186.849L40.2988 184.353L49.2731 180.923Z" fill="black"/>
<path id="Vector_48" opacity="0.2" d="M66.6615 183.904C66.6984 183.904 66.9442 186.271 66.9442 186.271H57.6258L56.9619 183.554L66.6615 183.904Z" fill="black"/>
<path id="Vector_49" d="M65.2231 38.6933C66.9134 44.1455 60.3057 51.6015 60.3057 51.6015L51.1777 47.8766C52.2597 44.7253 53.5072 41.6333 54.915 38.6134C57.7179 32.5712 63.5143 33.192 65.2231 38.6933Z" fill="#4CAF4F"/>
<path id="Vector_50" opacity="0.2" d="M65.2231 38.6933C66.9134 44.1455 60.3057 51.6015 60.3057 51.6015L51.1777 47.8766C52.2597 44.7253 53.5072 41.6333 54.915 38.6134C57.7179 32.5712 63.5143 33.192 65.2231 38.6933Z" fill="black"/>
</g>
</svg>
